G75*
%MOIN*%
%OFA0B0*%
%FSLAX25Y25*%
%IPPOS*%
%LPD*%
%AMOC8*
5,1,8,0,0,1.08239X$1,22.5*
%
%ADD10C,0.03300*%
%ADD11C,0.04808*%
%ADD12C,0.20800*%
%ADD13C,0.01000*%
D10*
X0170255Y0323900D03*
X0311255Y0416400D03*
D11*
X0213755Y0372400D03*
X0203755Y0372400D03*
X0203755Y0362400D03*
X0203755Y0352400D03*
X0213755Y0352400D03*
X0213755Y0362400D03*
D12*
X0221255Y0310400D03*
X0181255Y0310400D03*
X0261255Y0310400D03*
X0301255Y0310400D03*
X0301255Y0432400D03*
X0261255Y0432400D03*
X0221255Y0432400D03*
X0181255Y0432400D03*
D13*
X0168955Y0311200D02*
X0168955Y0296200D01*
X0193755Y0296200D01*
X0193755Y0311600D01*
X0193550Y0313273D01*
X0193108Y0314900D01*
X0192439Y0316448D01*
X0191557Y0317884D01*
X0190480Y0319181D01*
X0189229Y0320311D01*
X0187830Y0321251D01*
X0186311Y0321983D01*
X0184704Y0322491D01*
X0183040Y0322765D01*
X0181355Y0322800D01*
X0179755Y0322846D01*
X0178165Y0322666D01*
X0176616Y0322262D01*
X0175140Y0321643D01*
X0173767Y0320821D01*
X0172523Y0319813D01*
X0171435Y0318640D01*
X0170524Y0317324D01*
X0169808Y0315893D01*
X0169302Y0314374D01*
X0169015Y0312799D01*
X0168955Y0311200D01*
X0168962Y0311378D02*
X0193755Y0311378D01*
X0193755Y0310379D02*
X0168955Y0310379D01*
X0168955Y0309381D02*
X0193755Y0309381D01*
X0193755Y0308382D02*
X0168955Y0308382D01*
X0168955Y0307384D02*
X0193755Y0307384D01*
X0193755Y0306385D02*
X0168955Y0306385D01*
X0168955Y0305387D02*
X0193755Y0305387D01*
X0193755Y0304388D02*
X0168955Y0304388D01*
X0168955Y0303390D02*
X0193755Y0303390D01*
X0193755Y0302391D02*
X0168955Y0302391D01*
X0168955Y0301393D02*
X0193755Y0301393D01*
X0193755Y0300394D02*
X0168955Y0300394D01*
X0168955Y0299396D02*
X0193755Y0299396D01*
X0193755Y0298397D02*
X0168955Y0298397D01*
X0168955Y0297399D02*
X0193755Y0297399D01*
X0193755Y0296400D02*
X0168955Y0296400D01*
X0168999Y0312376D02*
X0193660Y0312376D01*
X0193522Y0313375D02*
X0169120Y0313375D01*
X0169301Y0314373D02*
X0193251Y0314373D01*
X0192904Y0315372D02*
X0169634Y0315372D01*
X0170047Y0316370D02*
X0192473Y0316370D01*
X0191874Y0317369D02*
X0170555Y0317369D01*
X0171246Y0318367D02*
X0191156Y0318367D01*
X0190275Y0319366D02*
X0172108Y0319366D01*
X0173203Y0320364D02*
X0189149Y0320364D01*
X0187598Y0321363D02*
X0174672Y0321363D01*
X0176998Y0322361D02*
X0185114Y0322361D01*
X0209302Y0314374D02*
X0209808Y0315893D01*
X0210524Y0317324D01*
X0211435Y0318640D01*
X0212523Y0319813D01*
X0213767Y0320821D01*
X0215140Y0321643D01*
X0216616Y0322262D01*
X0218165Y0322666D01*
X0219755Y0322846D01*
X0221355Y0322800D01*
X0223040Y0322765D01*
X0224704Y0322491D01*
X0226311Y0321983D01*
X0227830Y0321251D01*
X0229229Y0320311D01*
X0230480Y0319181D01*
X0231557Y0317884D01*
X0232439Y0316448D01*
X0233108Y0314900D01*
X0233550Y0313273D01*
X0233755Y0311600D01*
X0233755Y0296200D01*
X0208955Y0296200D01*
X0208955Y0311200D01*
X0209015Y0312799D01*
X0209302Y0314374D01*
X0209301Y0314373D02*
X0233251Y0314373D01*
X0233522Y0313375D02*
X0209120Y0313375D01*
X0208999Y0312376D02*
X0233660Y0312376D01*
X0233755Y0311378D02*
X0208962Y0311378D01*
X0208955Y0310379D02*
X0233755Y0310379D01*
X0233755Y0309381D02*
X0208955Y0309381D01*
X0208955Y0308382D02*
X0233755Y0308382D01*
X0233755Y0307384D02*
X0208955Y0307384D01*
X0208955Y0306385D02*
X0233755Y0306385D01*
X0233755Y0305387D02*
X0208955Y0305387D01*
X0208955Y0304388D02*
X0233755Y0304388D01*
X0233755Y0303390D02*
X0208955Y0303390D01*
X0208955Y0302391D02*
X0233755Y0302391D01*
X0233755Y0301393D02*
X0208955Y0301393D01*
X0208955Y0300394D02*
X0233755Y0300394D01*
X0233755Y0299396D02*
X0208955Y0299396D01*
X0208955Y0298397D02*
X0233755Y0298397D01*
X0233755Y0297399D02*
X0208955Y0297399D01*
X0208955Y0296400D02*
X0233755Y0296400D01*
X0248955Y0296400D02*
X0273755Y0296400D01*
X0273755Y0296200D02*
X0273755Y0311600D01*
X0273550Y0313273D01*
X0273108Y0314900D01*
X0272439Y0316448D01*
X0271557Y0317884D01*
X0270480Y0319181D01*
X0269229Y0320311D01*
X0267830Y0321251D01*
X0266311Y0321983D01*
X0264704Y0322491D01*
X0263040Y0322765D01*
X0261355Y0322800D01*
X0259755Y0322846D01*
X0258165Y0322666D01*
X0256616Y0322262D01*
X0255140Y0321643D01*
X0253767Y0320821D01*
X0252523Y0319813D01*
X0251435Y0318640D01*
X0250524Y0317324D01*
X0249808Y0315893D01*
X0249302Y0314374D01*
X0249015Y0312799D01*
X0248955Y0311200D01*
X0248955Y0296200D01*
X0273755Y0296200D01*
X0273755Y0297399D02*
X0248955Y0297399D01*
X0248955Y0298397D02*
X0273755Y0298397D01*
X0273755Y0299396D02*
X0248955Y0299396D01*
X0248955Y0300394D02*
X0273755Y0300394D01*
X0273755Y0301393D02*
X0248955Y0301393D01*
X0248955Y0302391D02*
X0273755Y0302391D01*
X0273755Y0303390D02*
X0248955Y0303390D01*
X0248955Y0304388D02*
X0273755Y0304388D01*
X0273755Y0305387D02*
X0248955Y0305387D01*
X0248955Y0306385D02*
X0273755Y0306385D01*
X0273755Y0307384D02*
X0248955Y0307384D01*
X0248955Y0308382D02*
X0273755Y0308382D01*
X0273755Y0309381D02*
X0248955Y0309381D01*
X0248955Y0310379D02*
X0273755Y0310379D01*
X0273755Y0311378D02*
X0248962Y0311378D01*
X0248999Y0312376D02*
X0273660Y0312376D01*
X0273522Y0313375D02*
X0249120Y0313375D01*
X0249301Y0314373D02*
X0273251Y0314373D01*
X0272904Y0315372D02*
X0249634Y0315372D01*
X0250047Y0316370D02*
X0272473Y0316370D01*
X0271874Y0317369D02*
X0250555Y0317369D01*
X0251246Y0318367D02*
X0271156Y0318367D01*
X0270275Y0319366D02*
X0252108Y0319366D01*
X0253203Y0320364D02*
X0269149Y0320364D01*
X0267598Y0321363D02*
X0254672Y0321363D01*
X0256998Y0322361D02*
X0265114Y0322361D01*
X0289302Y0314374D02*
X0289808Y0315893D01*
X0290524Y0317324D01*
X0291435Y0318640D01*
X0292523Y0319813D01*
X0293767Y0320821D01*
X0295140Y0321643D01*
X0296616Y0322262D01*
X0298165Y0322666D01*
X0299755Y0322846D01*
X0301355Y0322800D01*
X0303040Y0322765D01*
X0304704Y0322491D01*
X0306311Y0321983D01*
X0307830Y0321251D01*
X0309229Y0320311D01*
X0310480Y0319181D01*
X0311557Y0317884D01*
X0312439Y0316448D01*
X0313108Y0314900D01*
X0313550Y0313273D01*
X0313755Y0311600D01*
X0313755Y0296200D01*
X0288955Y0296200D01*
X0288955Y0311200D01*
X0289015Y0312799D01*
X0289302Y0314374D01*
X0289301Y0314373D02*
X0313251Y0314373D01*
X0313522Y0313375D02*
X0289120Y0313375D01*
X0288999Y0312376D02*
X0313660Y0312376D01*
X0313755Y0311378D02*
X0288962Y0311378D01*
X0288955Y0310379D02*
X0313755Y0310379D01*
X0313755Y0309381D02*
X0288955Y0309381D01*
X0288955Y0308382D02*
X0313755Y0308382D01*
X0313755Y0307384D02*
X0288955Y0307384D01*
X0288955Y0306385D02*
X0313755Y0306385D01*
X0313755Y0305387D02*
X0288955Y0305387D01*
X0288955Y0304388D02*
X0313755Y0304388D01*
X0313755Y0303390D02*
X0288955Y0303390D01*
X0288955Y0302391D02*
X0313755Y0302391D01*
X0313755Y0301393D02*
X0288955Y0301393D01*
X0288955Y0300394D02*
X0313755Y0300394D01*
X0313755Y0299396D02*
X0288955Y0299396D01*
X0288955Y0298397D02*
X0313755Y0298397D01*
X0313755Y0297399D02*
X0288955Y0297399D01*
X0288955Y0296400D02*
X0313755Y0296400D01*
X0312904Y0315372D02*
X0289634Y0315372D01*
X0290047Y0316370D02*
X0312473Y0316370D01*
X0311874Y0317369D02*
X0290555Y0317369D01*
X0291246Y0318367D02*
X0311156Y0318367D01*
X0310275Y0319366D02*
X0292108Y0319366D01*
X0293203Y0320364D02*
X0309149Y0320364D01*
X0307598Y0321363D02*
X0294672Y0321363D01*
X0296998Y0322361D02*
X0305114Y0322361D01*
X0232904Y0315372D02*
X0209634Y0315372D01*
X0210047Y0316370D02*
X0232473Y0316370D01*
X0231874Y0317369D02*
X0210555Y0317369D01*
X0211246Y0318367D02*
X0231156Y0318367D01*
X0230275Y0319366D02*
X0212108Y0319366D01*
X0213203Y0320364D02*
X0229149Y0320364D01*
X0227598Y0321363D02*
X0214672Y0321363D01*
X0216998Y0322361D02*
X0225114Y0322361D01*
X0222755Y0419954D02*
X0221155Y0420000D01*
X0219470Y0420035D01*
X0217806Y0420309D01*
X0216199Y0420817D01*
X0214680Y0421549D01*
X0213281Y0422489D01*
X0212030Y0423619D01*
X0210953Y0424916D01*
X0210071Y0426352D01*
X0209402Y0427900D01*
X0208961Y0429527D01*
X0208755Y0431200D01*
X0208755Y0446600D01*
X0233555Y0446600D01*
X0233555Y0431600D01*
X0233495Y0430001D01*
X0233209Y0428426D01*
X0232702Y0426907D01*
X0231987Y0425476D01*
X0231075Y0424160D01*
X0229987Y0422987D01*
X0228743Y0421979D01*
X0227370Y0421157D01*
X0225894Y0420538D01*
X0224345Y0420134D01*
X0222755Y0419954D01*
X0224656Y0420215D02*
X0218374Y0420215D01*
X0215375Y0421214D02*
X0227465Y0421214D01*
X0229032Y0422212D02*
X0213693Y0422212D01*
X0212482Y0423211D02*
X0230195Y0423211D01*
X0231109Y0424209D02*
X0211540Y0424209D01*
X0210773Y0425208D02*
X0231801Y0425208D01*
X0232352Y0426206D02*
X0210160Y0426206D01*
X0209702Y0427205D02*
X0232802Y0427205D01*
X0233134Y0428203D02*
X0209320Y0428203D01*
X0209049Y0429202D02*
X0233350Y0429202D01*
X0233502Y0430201D02*
X0208878Y0430201D01*
X0208755Y0431199D02*
X0233540Y0431199D01*
X0233555Y0432198D02*
X0208755Y0432198D01*
X0208755Y0433196D02*
X0233555Y0433196D01*
X0233555Y0434195D02*
X0208755Y0434195D01*
X0208755Y0435193D02*
X0233555Y0435193D01*
X0233555Y0436192D02*
X0208755Y0436192D01*
X0208755Y0437190D02*
X0233555Y0437190D01*
X0233555Y0438189D02*
X0208755Y0438189D01*
X0208755Y0439187D02*
X0233555Y0439187D01*
X0233555Y0440186D02*
X0208755Y0440186D01*
X0208755Y0441184D02*
X0233555Y0441184D01*
X0233555Y0442183D02*
X0208755Y0442183D01*
X0208755Y0443181D02*
X0233555Y0443181D01*
X0233555Y0444180D02*
X0208755Y0444180D01*
X0208755Y0445178D02*
X0233555Y0445178D01*
X0233555Y0446177D02*
X0208755Y0446177D01*
X0193555Y0446177D02*
X0168755Y0446177D01*
X0168755Y0446600D02*
X0168755Y0431200D01*
X0168961Y0429527D01*
X0169402Y0427900D01*
X0170071Y0426352D01*
X0170953Y0424916D01*
X0172030Y0423619D01*
X0173281Y0422489D01*
X0174680Y0421549D01*
X0176199Y0420817D01*
X0177806Y0420309D01*
X0179470Y0420035D01*
X0181155Y0420000D01*
X0182755Y0419954D01*
X0184345Y0420134D01*
X0185894Y0420538D01*
X0187370Y0421157D01*
X0188743Y0421979D01*
X0189987Y0422987D01*
X0191075Y0424160D01*
X0191987Y0425476D01*
X0192702Y0426907D01*
X0193209Y0428426D01*
X0193495Y0430001D01*
X0193555Y0431600D01*
X0193555Y0446600D01*
X0168755Y0446600D01*
X0168755Y0445178D02*
X0193555Y0445178D01*
X0193555Y0444180D02*
X0168755Y0444180D01*
X0168755Y0443181D02*
X0193555Y0443181D01*
X0193555Y0442183D02*
X0168755Y0442183D01*
X0168755Y0441184D02*
X0193555Y0441184D01*
X0193555Y0440186D02*
X0168755Y0440186D01*
X0168755Y0439187D02*
X0193555Y0439187D01*
X0193555Y0438189D02*
X0168755Y0438189D01*
X0168755Y0437190D02*
X0193555Y0437190D01*
X0193555Y0436192D02*
X0168755Y0436192D01*
X0168755Y0435193D02*
X0193555Y0435193D01*
X0193555Y0434195D02*
X0168755Y0434195D01*
X0168755Y0433196D02*
X0193555Y0433196D01*
X0193555Y0432198D02*
X0168755Y0432198D01*
X0168755Y0431199D02*
X0193540Y0431199D01*
X0193502Y0430201D02*
X0168878Y0430201D01*
X0169049Y0429202D02*
X0193350Y0429202D01*
X0193134Y0428203D02*
X0169320Y0428203D01*
X0169702Y0427205D02*
X0192802Y0427205D01*
X0192352Y0426206D02*
X0170160Y0426206D01*
X0170773Y0425208D02*
X0191801Y0425208D01*
X0191109Y0424209D02*
X0171540Y0424209D01*
X0172482Y0423211D02*
X0190195Y0423211D01*
X0189032Y0422212D02*
X0173693Y0422212D01*
X0175375Y0421214D02*
X0187465Y0421214D01*
X0184656Y0420215D02*
X0178374Y0420215D01*
X0248961Y0429527D02*
X0248755Y0431200D01*
X0248755Y0446600D01*
X0273555Y0446600D01*
X0273555Y0431600D01*
X0273495Y0430001D01*
X0273209Y0428426D01*
X0272702Y0426907D01*
X0271987Y0425476D01*
X0271075Y0424160D01*
X0269987Y0422987D01*
X0268743Y0421979D01*
X0267370Y0421157D01*
X0265894Y0420538D01*
X0264345Y0420134D01*
X0262755Y0419954D01*
X0261155Y0420000D01*
X0259470Y0420035D01*
X0257806Y0420309D01*
X0256199Y0420817D01*
X0254680Y0421549D01*
X0253281Y0422489D01*
X0252030Y0423619D01*
X0250953Y0424916D01*
X0250071Y0426352D01*
X0249402Y0427900D01*
X0248961Y0429527D01*
X0249049Y0429202D02*
X0273350Y0429202D01*
X0273502Y0430201D02*
X0248878Y0430201D01*
X0248755Y0431199D02*
X0273540Y0431199D01*
X0273555Y0432198D02*
X0248755Y0432198D01*
X0248755Y0433196D02*
X0273555Y0433196D01*
X0273555Y0434195D02*
X0248755Y0434195D01*
X0248755Y0435193D02*
X0273555Y0435193D01*
X0273555Y0436192D02*
X0248755Y0436192D01*
X0248755Y0437190D02*
X0273555Y0437190D01*
X0273555Y0438189D02*
X0248755Y0438189D01*
X0248755Y0439187D02*
X0273555Y0439187D01*
X0273555Y0440186D02*
X0248755Y0440186D01*
X0248755Y0441184D02*
X0273555Y0441184D01*
X0273555Y0442183D02*
X0248755Y0442183D01*
X0248755Y0443181D02*
X0273555Y0443181D01*
X0273555Y0444180D02*
X0248755Y0444180D01*
X0248755Y0445178D02*
X0273555Y0445178D01*
X0273555Y0446177D02*
X0248755Y0446177D01*
X0249320Y0428203D02*
X0273134Y0428203D01*
X0272802Y0427205D02*
X0249702Y0427205D01*
X0250160Y0426206D02*
X0272352Y0426206D01*
X0271801Y0425208D02*
X0250773Y0425208D01*
X0251540Y0424209D02*
X0271109Y0424209D01*
X0270195Y0423211D02*
X0252482Y0423211D01*
X0253693Y0422212D02*
X0269032Y0422212D01*
X0267465Y0421214D02*
X0255375Y0421214D01*
X0258374Y0420215D02*
X0264656Y0420215D01*
X0289402Y0427900D02*
X0288961Y0429527D01*
X0288755Y0431200D01*
X0288755Y0446600D01*
X0313555Y0446600D01*
X0313555Y0431600D01*
X0313495Y0430001D01*
X0313209Y0428426D01*
X0312702Y0426907D01*
X0311987Y0425476D01*
X0311075Y0424160D01*
X0309987Y0422987D01*
X0308743Y0421979D01*
X0307370Y0421157D01*
X0305894Y0420538D01*
X0304345Y0420134D01*
X0302755Y0419954D01*
X0301155Y0420000D01*
X0299470Y0420035D01*
X0297806Y0420309D01*
X0296199Y0420817D01*
X0294680Y0421549D01*
X0293281Y0422489D01*
X0292030Y0423619D01*
X0290953Y0424916D01*
X0290071Y0426352D01*
X0289402Y0427900D01*
X0289320Y0428203D02*
X0313134Y0428203D01*
X0313350Y0429202D02*
X0289049Y0429202D01*
X0288878Y0430201D02*
X0313502Y0430201D01*
X0313540Y0431199D02*
X0288755Y0431199D01*
X0288755Y0432198D02*
X0313555Y0432198D01*
X0313555Y0433196D02*
X0288755Y0433196D01*
X0288755Y0434195D02*
X0313555Y0434195D01*
X0313555Y0435193D02*
X0288755Y0435193D01*
X0288755Y0436192D02*
X0313555Y0436192D01*
X0313555Y0437190D02*
X0288755Y0437190D01*
X0288755Y0438189D02*
X0313555Y0438189D01*
X0313555Y0439187D02*
X0288755Y0439187D01*
X0288755Y0440186D02*
X0313555Y0440186D01*
X0313555Y0441184D02*
X0288755Y0441184D01*
X0288755Y0442183D02*
X0313555Y0442183D01*
X0313555Y0443181D02*
X0288755Y0443181D01*
X0288755Y0444180D02*
X0313555Y0444180D01*
X0313555Y0445178D02*
X0288755Y0445178D01*
X0288755Y0446177D02*
X0313555Y0446177D01*
X0312802Y0427205D02*
X0289702Y0427205D01*
X0290160Y0426206D02*
X0312352Y0426206D01*
X0311801Y0425208D02*
X0290773Y0425208D01*
X0291540Y0424209D02*
X0311109Y0424209D01*
X0310195Y0423211D02*
X0292482Y0423211D01*
X0293693Y0422212D02*
X0309032Y0422212D01*
X0307465Y0421214D02*
X0295375Y0421214D01*
X0298374Y0420215D02*
X0304656Y0420215D01*
M02*
