%
M48
M72
T01C0.0138
T02C0.0150
T03C0.0200
T04C0.1575
%
T01
X28126Y30140
X23426Y33440
X22626Y34740
X20876Y35490
X19776Y36640
X19626Y37640
X18126Y38140
X17626Y36640
X22126Y38140
X24376Y37640
X25006Y38020
X26773Y36538
X28126Y36640
X28968Y37640
X28126Y38640
X29076Y39840
X29626Y41140
X30626Y41140
X30826Y39240
X30126Y38640
X30126Y37640
X30276Y37190
X30126Y36640
X26876Y39640
X23126Y41240
X20076Y40990
X19326Y40990
X18376Y40990
X25076Y35790
X24876Y34640
T02
X23026Y41760
T03
X21376Y37240
X21376Y36240
X21376Y35240
X20376Y35240
X20376Y36240
X20376Y37240
T04
X22126Y43240
X18126Y43240
X26126Y43240
X30126Y43240
X30126Y31040
X26126Y31040
X22126Y31040
X18126Y31040
M30
