G75*
%MOIN*%
%OFA0B0*%
%FSLAX25Y25*%
%IPPOS*%
%LPD*%
%AMOC8*
5,1,8,0,0,1.08239X$1,22.5*
%
%ADD10R,0.04331X0.03937*%
%ADD11C,0.01181*%
%ADD12C,0.01772*%
%ADD13C,0.01000*%
%ADD14C,0.02500*%
%ADD15C,0.03400*%
%ADD16R,0.02200X0.05000*%
%ADD17R,0.05000X0.02200*%
%ADD18R,0.05512X0.07087*%
%ADD19R,0.07480X0.05512*%
%ADD20R,0.05906X0.03150*%
%ADD21C,0.20000*%
%ADD22R,0.03937X0.04331*%
%ADD23R,0.01969X0.03150*%
%ADD24R,0.00000X0.00000*%
%ADD25R,0.06693X0.16535*%
%ADD26C,0.00197*%
%ADD27R,0.03937X0.03937*%
%ADD28R,0.03268X0.02480*%
%ADD29R,0.03543X0.03150*%
%ADD30C,0.00800*%
%ADD31C,0.02900*%
%ADD32C,0.02778*%
D10*
X0255409Y0338400D03*
X0262102Y0338400D03*
X0262102Y0346400D03*
X0255409Y0346400D03*
X0255409Y0353900D03*
X0262102Y0353900D03*
X0262102Y0376400D03*
X0255409Y0376400D03*
X0255409Y0383900D03*
X0262102Y0383900D03*
X0262102Y0391400D03*
X0255409Y0391400D03*
X0300409Y0351400D03*
X0307102Y0351400D03*
X0307102Y0343900D03*
X0300409Y0343900D03*
D11*
X0263586Y0360022D02*
X0263586Y0362778D01*
X0263586Y0360022D02*
X0260830Y0360022D01*
X0260830Y0362778D01*
X0263586Y0362778D01*
X0263586Y0361144D02*
X0260830Y0361144D01*
X0260830Y0362266D02*
X0263586Y0362266D01*
X0256680Y0362778D02*
X0256680Y0360022D01*
X0253924Y0360022D01*
X0253924Y0362778D01*
X0256680Y0362778D01*
X0256680Y0361144D02*
X0253924Y0361144D01*
X0253924Y0362266D02*
X0256680Y0362266D01*
X0253924Y0397522D02*
X0253924Y0400278D01*
X0256680Y0400278D01*
X0256680Y0397522D01*
X0253924Y0397522D01*
X0253924Y0398644D02*
X0256680Y0398644D01*
X0256680Y0399766D02*
X0253924Y0399766D01*
X0260830Y0400278D02*
X0260830Y0397522D01*
X0260830Y0400278D02*
X0263586Y0400278D01*
X0263586Y0397522D01*
X0260830Y0397522D01*
X0260830Y0398644D02*
X0263586Y0398644D01*
X0263586Y0399766D02*
X0260830Y0399766D01*
D12*
X0277031Y0400036D02*
X0277031Y0405764D01*
X0281755Y0405764D02*
X0281755Y0400036D01*
X0286479Y0400036D02*
X0286479Y0405764D01*
D13*
X0193255Y0296400D02*
X0169255Y0296400D01*
X0193255Y0296400D01*
X0193255Y0310400D01*
X0193133Y0312108D01*
X0192769Y0313781D01*
X0192171Y0315385D01*
X0191350Y0316888D01*
X0190324Y0318258D01*
X0189113Y0319469D01*
X0187743Y0320495D01*
X0186240Y0321316D01*
X0184636Y0321914D01*
X0182963Y0322278D01*
X0181255Y0322400D01*
X0179547Y0322278D01*
X0177874Y0321914D01*
X0176270Y0321316D01*
X0174767Y0320495D01*
X0173397Y0319469D01*
X0172186Y0318258D01*
X0171160Y0316888D01*
X0170339Y0315385D01*
X0169741Y0313781D01*
X0169377Y0312108D01*
X0169255Y0310400D01*
X0169255Y0296400D01*
X0169255Y0297399D02*
X0193255Y0297399D01*
X0193255Y0298397D02*
X0169255Y0298397D01*
X0169255Y0299396D02*
X0193255Y0299396D01*
X0193255Y0300394D02*
X0169255Y0300394D01*
X0169255Y0301393D02*
X0193255Y0301393D01*
X0193255Y0302391D02*
X0169255Y0302391D01*
X0169255Y0303390D02*
X0193255Y0303390D01*
X0193255Y0304388D02*
X0169255Y0304388D01*
X0169255Y0305387D02*
X0193255Y0305387D01*
X0193255Y0306385D02*
X0169255Y0306385D01*
X0169255Y0307384D02*
X0193255Y0307384D01*
X0193255Y0308382D02*
X0169255Y0308382D01*
X0169255Y0309381D02*
X0193255Y0309381D01*
X0193255Y0310379D02*
X0169255Y0310379D01*
X0169325Y0311378D02*
X0193185Y0311378D01*
X0193075Y0312376D02*
X0169436Y0312376D01*
X0169653Y0313375D02*
X0192857Y0313375D01*
X0192548Y0314373D02*
X0169962Y0314373D01*
X0170335Y0315372D02*
X0192176Y0315372D01*
X0191633Y0316370D02*
X0170877Y0316370D01*
X0171520Y0317369D02*
X0190990Y0317369D01*
X0190215Y0318367D02*
X0172295Y0318367D01*
X0173294Y0319366D02*
X0189217Y0319366D01*
X0187917Y0320364D02*
X0174593Y0320364D01*
X0176397Y0321363D02*
X0186114Y0321363D01*
X0181796Y0322361D02*
X0180714Y0322361D01*
X0209741Y0313781D02*
X0209377Y0312108D01*
X0209255Y0310400D01*
X0209255Y0296400D01*
X0233255Y0296400D01*
X0233255Y0310400D01*
X0233133Y0312108D01*
X0232769Y0313781D01*
X0232171Y0315385D01*
X0231350Y0316888D01*
X0230324Y0318258D01*
X0229113Y0319469D01*
X0227743Y0320495D01*
X0226240Y0321316D01*
X0224636Y0321914D01*
X0222963Y0322278D01*
X0221255Y0322400D01*
X0219547Y0322278D01*
X0217874Y0321914D01*
X0216270Y0321316D01*
X0214767Y0320495D01*
X0213397Y0319469D01*
X0212186Y0318258D01*
X0211160Y0316888D01*
X0210339Y0315385D01*
X0209741Y0313781D01*
X0209653Y0313375D02*
X0232857Y0313375D01*
X0233075Y0312376D02*
X0209436Y0312376D01*
X0209325Y0311378D02*
X0233185Y0311378D01*
X0233255Y0310379D02*
X0209255Y0310379D01*
X0209255Y0309381D02*
X0233255Y0309381D01*
X0233255Y0308382D02*
X0209255Y0308382D01*
X0209255Y0307384D02*
X0233255Y0307384D01*
X0233255Y0306385D02*
X0209255Y0306385D01*
X0209255Y0305387D02*
X0233255Y0305387D01*
X0233255Y0304388D02*
X0209255Y0304388D01*
X0209255Y0303390D02*
X0233255Y0303390D01*
X0233255Y0302391D02*
X0209255Y0302391D01*
X0209255Y0301393D02*
X0233255Y0301393D01*
X0233255Y0300394D02*
X0209255Y0300394D01*
X0209255Y0299396D02*
X0233255Y0299396D01*
X0233255Y0298397D02*
X0209255Y0298397D01*
X0209255Y0297399D02*
X0233255Y0297399D01*
X0233255Y0296400D02*
X0209255Y0296400D01*
X0209962Y0314373D02*
X0232548Y0314373D01*
X0232176Y0315372D02*
X0210335Y0315372D01*
X0210877Y0316370D02*
X0231633Y0316370D01*
X0230990Y0317369D02*
X0211520Y0317369D01*
X0212295Y0318367D02*
X0230215Y0318367D01*
X0229217Y0319366D02*
X0213294Y0319366D01*
X0214593Y0320364D02*
X0227917Y0320364D01*
X0226114Y0321363D02*
X0216397Y0321363D01*
X0220714Y0322361D02*
X0221796Y0322361D01*
X0249741Y0313781D02*
X0249377Y0312108D01*
X0249255Y0310400D01*
X0249255Y0296400D01*
X0273255Y0296400D01*
X0273255Y0310400D01*
X0273133Y0312108D01*
X0272769Y0313781D01*
X0272171Y0315385D01*
X0271350Y0316888D01*
X0270324Y0318258D01*
X0269113Y0319469D01*
X0267743Y0320495D01*
X0266240Y0321316D01*
X0264636Y0321914D01*
X0262963Y0322278D01*
X0261255Y0322400D01*
X0259547Y0322278D01*
X0257874Y0321914D01*
X0256270Y0321316D01*
X0254767Y0320495D01*
X0253397Y0319469D01*
X0252186Y0318258D01*
X0251160Y0316888D01*
X0250339Y0315385D01*
X0249741Y0313781D01*
X0249653Y0313375D02*
X0272857Y0313375D01*
X0273075Y0312376D02*
X0249436Y0312376D01*
X0249325Y0311378D02*
X0273185Y0311378D01*
X0273255Y0310379D02*
X0249255Y0310379D01*
X0249255Y0309381D02*
X0273255Y0309381D01*
X0273255Y0308382D02*
X0249255Y0308382D01*
X0249255Y0307384D02*
X0273255Y0307384D01*
X0273255Y0306385D02*
X0249255Y0306385D01*
X0249255Y0305387D02*
X0273255Y0305387D01*
X0273255Y0304388D02*
X0249255Y0304388D01*
X0249255Y0303390D02*
X0273255Y0303390D01*
X0273255Y0302391D02*
X0249255Y0302391D01*
X0249255Y0301393D02*
X0273255Y0301393D01*
X0273255Y0300394D02*
X0249255Y0300394D01*
X0249255Y0299396D02*
X0273255Y0299396D01*
X0273255Y0298397D02*
X0249255Y0298397D01*
X0249255Y0297399D02*
X0273255Y0297399D01*
X0273255Y0296400D02*
X0249255Y0296400D01*
X0249962Y0314373D02*
X0272548Y0314373D01*
X0272176Y0315372D02*
X0250335Y0315372D01*
X0250877Y0316370D02*
X0271633Y0316370D01*
X0270990Y0317369D02*
X0251520Y0317369D01*
X0252295Y0318367D02*
X0270215Y0318367D01*
X0269217Y0319366D02*
X0253294Y0319366D01*
X0254593Y0320364D02*
X0267917Y0320364D01*
X0266114Y0321363D02*
X0256397Y0321363D01*
X0260714Y0322361D02*
X0261796Y0322361D01*
X0289741Y0313781D02*
X0289377Y0312108D01*
X0289255Y0310400D01*
X0289255Y0296400D01*
X0313255Y0296400D01*
X0313255Y0310400D01*
X0313133Y0312108D01*
X0312769Y0313781D01*
X0312171Y0315385D01*
X0311350Y0316888D01*
X0310324Y0318258D01*
X0309113Y0319469D01*
X0307743Y0320495D01*
X0306240Y0321316D01*
X0304636Y0321914D01*
X0302963Y0322278D01*
X0301255Y0322400D01*
X0299547Y0322278D01*
X0297874Y0321914D01*
X0296270Y0321316D01*
X0294767Y0320495D01*
X0293397Y0319469D01*
X0292186Y0318258D01*
X0291160Y0316888D01*
X0290339Y0315385D01*
X0289741Y0313781D01*
X0289653Y0313375D02*
X0312857Y0313375D01*
X0313075Y0312376D02*
X0289436Y0312376D01*
X0289325Y0311378D02*
X0313185Y0311378D01*
X0313255Y0310379D02*
X0289255Y0310379D01*
X0289255Y0309381D02*
X0313255Y0309381D01*
X0313255Y0308382D02*
X0289255Y0308382D01*
X0289255Y0307384D02*
X0313255Y0307384D01*
X0313255Y0306385D02*
X0289255Y0306385D01*
X0289255Y0305387D02*
X0313255Y0305387D01*
X0313255Y0304388D02*
X0289255Y0304388D01*
X0289255Y0303390D02*
X0313255Y0303390D01*
X0313255Y0302391D02*
X0289255Y0302391D01*
X0289255Y0301393D02*
X0313255Y0301393D01*
X0313255Y0300394D02*
X0289255Y0300394D01*
X0289255Y0299396D02*
X0313255Y0299396D01*
X0313255Y0298397D02*
X0289255Y0298397D01*
X0289255Y0297399D02*
X0313255Y0297399D01*
X0313255Y0296400D02*
X0289255Y0296400D01*
X0289962Y0314373D02*
X0312548Y0314373D01*
X0312176Y0315372D02*
X0290335Y0315372D01*
X0290877Y0316370D02*
X0311633Y0316370D01*
X0310990Y0317369D02*
X0291520Y0317369D01*
X0292295Y0318367D02*
X0310215Y0318367D01*
X0309217Y0319366D02*
X0293294Y0319366D01*
X0294593Y0320364D02*
X0307917Y0320364D01*
X0306114Y0321363D02*
X0296397Y0321363D01*
X0300714Y0322361D02*
X0301796Y0322361D01*
X0286479Y0398900D02*
X0286479Y0402900D01*
X0286479Y0406900D01*
X0281755Y0406900D02*
X0281755Y0402900D01*
X0281755Y0398900D01*
X0277031Y0398900D02*
X0277031Y0402900D01*
X0277031Y0406900D01*
X0267743Y0422305D02*
X0266240Y0421484D01*
X0264636Y0420886D01*
X0262963Y0420522D01*
X0261255Y0420400D01*
X0259547Y0420522D01*
X0257874Y0420886D01*
X0256270Y0421484D01*
X0254767Y0422305D01*
X0253397Y0423331D01*
X0252186Y0424542D01*
X0251160Y0425912D01*
X0250339Y0427415D01*
X0249741Y0429019D01*
X0249377Y0430692D01*
X0249255Y0432400D01*
X0249255Y0446400D01*
X0273255Y0446400D01*
X0273255Y0432400D01*
X0273133Y0430692D01*
X0272769Y0429019D01*
X0272171Y0427415D01*
X0271350Y0425912D01*
X0270324Y0424542D01*
X0269113Y0423331D01*
X0267743Y0422305D01*
X0267573Y0422212D02*
X0254937Y0422212D01*
X0253557Y0423211D02*
X0268953Y0423211D01*
X0269992Y0424209D02*
X0252518Y0424209D01*
X0251687Y0425208D02*
X0270823Y0425208D01*
X0271511Y0426206D02*
X0250999Y0426206D01*
X0250454Y0427205D02*
X0272056Y0427205D01*
X0272465Y0428203D02*
X0250045Y0428203D01*
X0249701Y0429202D02*
X0272809Y0429202D01*
X0273026Y0430201D02*
X0249484Y0430201D01*
X0249341Y0431199D02*
X0273169Y0431199D01*
X0273241Y0432198D02*
X0249270Y0432198D01*
X0249255Y0433196D02*
X0273255Y0433196D01*
X0273255Y0434195D02*
X0249255Y0434195D01*
X0249255Y0435193D02*
X0273255Y0435193D01*
X0273255Y0436192D02*
X0249255Y0436192D01*
X0249255Y0437190D02*
X0273255Y0437190D01*
X0273255Y0438189D02*
X0249255Y0438189D01*
X0249255Y0439187D02*
X0273255Y0439187D01*
X0273255Y0440186D02*
X0249255Y0440186D01*
X0249255Y0441184D02*
X0273255Y0441184D01*
X0273255Y0442183D02*
X0249255Y0442183D01*
X0249255Y0443181D02*
X0273255Y0443181D01*
X0273255Y0444180D02*
X0249255Y0444180D01*
X0249255Y0445178D02*
X0273255Y0445178D01*
X0273255Y0446177D02*
X0249255Y0446177D01*
X0233255Y0446177D02*
X0209255Y0446177D01*
X0209255Y0446400D02*
X0209255Y0432400D01*
X0209377Y0430692D01*
X0209741Y0429019D01*
X0210339Y0427415D01*
X0211160Y0425912D01*
X0212186Y0424542D01*
X0213397Y0423331D01*
X0214767Y0422305D01*
X0216270Y0421484D01*
X0217874Y0420886D01*
X0219547Y0420522D01*
X0221255Y0420400D01*
X0222963Y0420522D01*
X0224636Y0420886D01*
X0226240Y0421484D01*
X0227743Y0422305D01*
X0229113Y0423331D01*
X0230324Y0424542D01*
X0231350Y0425912D01*
X0232171Y0427415D01*
X0232769Y0429019D01*
X0233133Y0430692D01*
X0233255Y0432400D01*
X0233255Y0446400D01*
X0209255Y0446400D01*
X0209255Y0445178D02*
X0233255Y0445178D01*
X0233255Y0444180D02*
X0209255Y0444180D01*
X0209255Y0443181D02*
X0233255Y0443181D01*
X0233255Y0442183D02*
X0209255Y0442183D01*
X0209255Y0441184D02*
X0233255Y0441184D01*
X0233255Y0440186D02*
X0209255Y0440186D01*
X0209255Y0439187D02*
X0233255Y0439187D01*
X0233255Y0438189D02*
X0209255Y0438189D01*
X0209255Y0437190D02*
X0233255Y0437190D01*
X0233255Y0436192D02*
X0209255Y0436192D01*
X0209255Y0435193D02*
X0233255Y0435193D01*
X0233255Y0434195D02*
X0209255Y0434195D01*
X0209255Y0433196D02*
X0233255Y0433196D01*
X0233241Y0432198D02*
X0209270Y0432198D01*
X0209341Y0431199D02*
X0233169Y0431199D01*
X0233026Y0430201D02*
X0209484Y0430201D01*
X0209701Y0429202D02*
X0232809Y0429202D01*
X0232465Y0428203D02*
X0210045Y0428203D01*
X0210454Y0427205D02*
X0232056Y0427205D01*
X0231511Y0426206D02*
X0210999Y0426206D01*
X0211687Y0425208D02*
X0230823Y0425208D01*
X0229992Y0424209D02*
X0212518Y0424209D01*
X0213557Y0423211D02*
X0228953Y0423211D01*
X0227573Y0422212D02*
X0214937Y0422212D01*
X0216995Y0421214D02*
X0225515Y0421214D01*
X0256995Y0421214D02*
X0265515Y0421214D01*
X0289741Y0429019D02*
X0290339Y0427415D01*
X0291160Y0425912D01*
X0292186Y0424542D01*
X0293397Y0423331D01*
X0294767Y0422305D01*
X0296270Y0421484D01*
X0297874Y0420886D01*
X0299547Y0420522D01*
X0301255Y0420400D01*
X0302963Y0420522D01*
X0304636Y0420886D01*
X0306240Y0421484D01*
X0307743Y0422305D01*
X0309113Y0423331D01*
X0310324Y0424542D01*
X0311350Y0425912D01*
X0312171Y0427415D01*
X0312769Y0429019D01*
X0313133Y0430692D01*
X0313255Y0432400D01*
X0313255Y0446400D01*
X0289255Y0446400D01*
X0289255Y0432400D01*
X0289377Y0430692D01*
X0289741Y0429019D01*
X0289701Y0429202D02*
X0312809Y0429202D01*
X0313026Y0430201D02*
X0289484Y0430201D01*
X0289341Y0431199D02*
X0313169Y0431199D01*
X0313241Y0432198D02*
X0289270Y0432198D01*
X0289255Y0433196D02*
X0313255Y0433196D01*
X0313255Y0434195D02*
X0289255Y0434195D01*
X0289255Y0435193D02*
X0313255Y0435193D01*
X0313255Y0436192D02*
X0289255Y0436192D01*
X0289255Y0437190D02*
X0313255Y0437190D01*
X0313255Y0438189D02*
X0289255Y0438189D01*
X0289255Y0439187D02*
X0313255Y0439187D01*
X0313255Y0440186D02*
X0289255Y0440186D01*
X0289255Y0441184D02*
X0313255Y0441184D01*
X0313255Y0442183D02*
X0289255Y0442183D01*
X0289255Y0443181D02*
X0313255Y0443181D01*
X0313255Y0444180D02*
X0289255Y0444180D01*
X0289255Y0445178D02*
X0313255Y0445178D01*
X0313255Y0446177D02*
X0289255Y0446177D01*
X0290045Y0428203D02*
X0312465Y0428203D01*
X0312056Y0427205D02*
X0290454Y0427205D01*
X0290999Y0426206D02*
X0311511Y0426206D01*
X0310823Y0425208D02*
X0291687Y0425208D01*
X0292518Y0424209D02*
X0309992Y0424209D01*
X0308953Y0423211D02*
X0293557Y0423211D01*
X0294937Y0422212D02*
X0307573Y0422212D01*
X0305515Y0421214D02*
X0296995Y0421214D01*
X0193133Y0430692D02*
X0193255Y0432400D01*
X0193255Y0446400D01*
X0169255Y0446400D01*
X0169255Y0432400D01*
X0169377Y0430692D01*
X0169741Y0429019D01*
X0170339Y0427415D01*
X0171160Y0425912D01*
X0172186Y0424542D01*
X0173397Y0423331D01*
X0174767Y0422305D01*
X0176270Y0421484D01*
X0177874Y0420886D01*
X0179547Y0420522D01*
X0181255Y0420400D01*
X0182963Y0420522D01*
X0184636Y0420886D01*
X0186240Y0421484D01*
X0187743Y0422305D01*
X0189113Y0423331D01*
X0190324Y0424542D01*
X0191350Y0425912D01*
X0192171Y0427415D01*
X0192769Y0429019D01*
X0193133Y0430692D01*
X0193026Y0430201D02*
X0169484Y0430201D01*
X0169341Y0431199D02*
X0193169Y0431199D01*
X0193241Y0432198D02*
X0169270Y0432198D01*
X0169255Y0433196D02*
X0193255Y0433196D01*
X0193255Y0434195D02*
X0169255Y0434195D01*
X0169255Y0435193D02*
X0193255Y0435193D01*
X0193255Y0436192D02*
X0169255Y0436192D01*
X0169255Y0437190D02*
X0193255Y0437190D01*
X0193255Y0438189D02*
X0169255Y0438189D01*
X0169255Y0439187D02*
X0193255Y0439187D01*
X0193255Y0440186D02*
X0169255Y0440186D01*
X0169255Y0441184D02*
X0193255Y0441184D01*
X0193255Y0442183D02*
X0169255Y0442183D01*
X0169255Y0443181D02*
X0193255Y0443181D01*
X0193255Y0444180D02*
X0169255Y0444180D01*
X0169255Y0445178D02*
X0193255Y0445178D01*
X0193255Y0446177D02*
X0169255Y0446177D01*
X0169701Y0429202D02*
X0192809Y0429202D01*
X0192465Y0428203D02*
X0170045Y0428203D01*
X0170454Y0427205D02*
X0192056Y0427205D01*
X0191511Y0426206D02*
X0170999Y0426206D01*
X0171687Y0425208D02*
X0190823Y0425208D01*
X0189992Y0424209D02*
X0172518Y0424209D01*
X0173557Y0423211D02*
X0188953Y0423211D01*
X0187573Y0422212D02*
X0174937Y0422212D01*
X0176995Y0421214D02*
X0185515Y0421214D01*
D14*
X0170255Y0323900D03*
X0311255Y0416400D03*
D15*
X0213755Y0372400D03*
X0203755Y0372400D03*
X0203755Y0362400D03*
X0203755Y0352400D03*
X0213755Y0352400D03*
X0213755Y0362400D03*
D16*
X0280231Y0359500D03*
X0283381Y0359500D03*
X0286531Y0359500D03*
X0289680Y0359500D03*
X0292830Y0359500D03*
X0295979Y0359500D03*
X0299129Y0359500D03*
X0302279Y0359500D03*
X0302279Y0393300D03*
X0299129Y0393300D03*
X0295979Y0393300D03*
X0292830Y0393300D03*
X0289680Y0393300D03*
X0286531Y0393300D03*
X0283381Y0393300D03*
X0280231Y0393300D03*
D17*
X0274355Y0387424D03*
X0274355Y0384274D03*
X0274355Y0381124D03*
X0274355Y0377975D03*
X0274355Y0374825D03*
X0274355Y0371676D03*
X0274355Y0368526D03*
X0274355Y0365376D03*
X0308155Y0365376D03*
X0308155Y0368526D03*
X0308155Y0371676D03*
X0308155Y0374825D03*
X0308155Y0377975D03*
X0308155Y0381124D03*
X0308155Y0384274D03*
X0308155Y0387424D03*
D18*
X0230680Y0380829D03*
X0230680Y0358388D03*
D19*
X0178909Y0387128D03*
X0174972Y0335357D03*
D20*
X0190129Y0353703D03*
X0191704Y0358034D03*
X0190129Y0362365D03*
X0189342Y0366695D03*
X0190129Y0371026D03*
X0189342Y0375357D03*
X0190129Y0379687D03*
X0190129Y0384018D03*
D21*
X0181255Y0432400D03*
X0221255Y0432400D03*
X0261255Y0432400D03*
X0301255Y0432400D03*
X0301255Y0310400D03*
X0261255Y0310400D03*
X0221255Y0310400D03*
X0181255Y0310400D03*
D22*
X0201255Y0308054D03*
X0201255Y0314746D03*
X0208755Y0398054D03*
X0208755Y0404746D03*
X0216255Y0404746D03*
X0216255Y0398054D03*
X0223755Y0398054D03*
X0223755Y0404746D03*
X0236255Y0413054D03*
X0236255Y0419746D03*
X0183755Y0404746D03*
X0183755Y0398054D03*
X0176255Y0398054D03*
X0176255Y0404746D03*
D23*
X0189956Y0405731D03*
X0193105Y0405731D03*
X0196255Y0405731D03*
X0199405Y0405731D03*
X0202554Y0405731D03*
X0202554Y0397069D03*
X0199405Y0397069D03*
X0196255Y0397069D03*
X0193105Y0397069D03*
X0189956Y0397069D03*
D24*
X0196255Y0401400D03*
D25*
X0248539Y0398762D03*
D26*
X0240153Y0406951D02*
X0230704Y0397502D01*
X0230704Y0406951D01*
X0240153Y0406951D01*
X0239981Y0406779D02*
X0230704Y0406779D01*
X0230704Y0406584D02*
X0239786Y0406584D01*
X0239590Y0406389D02*
X0230704Y0406389D01*
X0230704Y0406193D02*
X0239395Y0406193D01*
X0239199Y0405998D02*
X0230704Y0405998D01*
X0230704Y0405803D02*
X0239004Y0405803D01*
X0238809Y0405607D02*
X0230704Y0405607D01*
X0230704Y0405412D02*
X0238613Y0405412D01*
X0238418Y0405216D02*
X0230704Y0405216D01*
X0230704Y0405021D02*
X0238223Y0405021D01*
X0238027Y0404826D02*
X0230704Y0404826D01*
X0230704Y0404630D02*
X0237832Y0404630D01*
X0237637Y0404435D02*
X0230704Y0404435D01*
X0230704Y0404240D02*
X0237441Y0404240D01*
X0237246Y0404044D02*
X0230704Y0404044D01*
X0230704Y0403849D02*
X0237050Y0403849D01*
X0236855Y0403654D02*
X0230704Y0403654D01*
X0230704Y0403458D02*
X0236660Y0403458D01*
X0236464Y0403263D02*
X0230704Y0403263D01*
X0230704Y0403067D02*
X0236269Y0403067D01*
X0236074Y0402872D02*
X0230704Y0402872D01*
X0230704Y0402677D02*
X0235878Y0402677D01*
X0235683Y0402481D02*
X0230704Y0402481D01*
X0230704Y0402286D02*
X0235488Y0402286D01*
X0235292Y0402091D02*
X0230704Y0402091D01*
X0230704Y0401895D02*
X0235097Y0401895D01*
X0234901Y0401700D02*
X0230704Y0401700D01*
X0230704Y0401505D02*
X0234706Y0401505D01*
X0234511Y0401309D02*
X0230704Y0401309D01*
X0230704Y0401114D02*
X0234315Y0401114D01*
X0234120Y0400919D02*
X0230704Y0400919D01*
X0230704Y0400723D02*
X0233925Y0400723D01*
X0233729Y0400528D02*
X0230704Y0400528D01*
X0230704Y0400332D02*
X0233534Y0400332D01*
X0233339Y0400137D02*
X0230704Y0400137D01*
X0230704Y0399942D02*
X0233143Y0399942D01*
X0232948Y0399746D02*
X0230704Y0399746D01*
X0230704Y0399551D02*
X0232753Y0399551D01*
X0232557Y0399356D02*
X0230704Y0399356D01*
X0230704Y0399160D02*
X0232362Y0399160D01*
X0232166Y0398965D02*
X0230704Y0398965D01*
X0230704Y0398770D02*
X0231971Y0398770D01*
X0231776Y0398574D02*
X0230704Y0398574D01*
X0230704Y0398379D02*
X0231580Y0398379D01*
X0231385Y0398183D02*
X0230704Y0398183D01*
X0230704Y0397988D02*
X0231190Y0397988D01*
X0230994Y0397793D02*
X0230704Y0397793D01*
X0230704Y0397597D02*
X0230799Y0397597D01*
D27*
X0233255Y0404361D03*
D28*
X0206755Y0328428D03*
X0206755Y0319372D03*
X0241255Y0315928D03*
X0241255Y0306872D03*
X0281255Y0306872D03*
X0281255Y0315928D03*
D29*
X0200692Y0320160D03*
X0200692Y0327640D03*
X0192424Y0323900D03*
D30*
X0196255Y0323900D01*
X0196755Y0323900D01*
X0197255Y0323900D01*
X0197255Y0331900D01*
X0176255Y0352900D01*
X0176255Y0366400D01*
X0174155Y0364273D02*
X0168255Y0364273D01*
X0168255Y0363475D02*
X0174255Y0363475D01*
X0174255Y0364173D02*
X0173721Y0364707D01*
X0173266Y0365805D01*
X0173266Y0366995D01*
X0173721Y0368093D01*
X0174562Y0368934D01*
X0175661Y0369389D01*
X0176850Y0369389D01*
X0177948Y0368934D01*
X0178789Y0368093D01*
X0179244Y0366995D01*
X0179244Y0365805D01*
X0178789Y0364707D01*
X0178255Y0364173D01*
X0178255Y0353728D01*
X0181755Y0350228D01*
X0181755Y0368072D01*
X0168255Y0381572D01*
X0168255Y0402728D01*
X0169427Y0403900D01*
X0172273Y0406746D01*
X0172687Y0406746D01*
X0172687Y0407575D01*
X0173624Y0408512D01*
X0178886Y0408512D01*
X0179824Y0407575D01*
X0179824Y0404006D01*
X0180387Y0403443D01*
X0180387Y0404346D01*
X0183355Y0404346D01*
X0183355Y0405146D01*
X0180387Y0405146D01*
X0180387Y0407096D01*
X0180482Y0407452D01*
X0180666Y0407771D01*
X0180927Y0408032D01*
X0181246Y0408216D01*
X0181602Y0408312D01*
X0183355Y0408312D01*
X0183355Y0405146D01*
X0184155Y0405146D01*
X0187124Y0405146D01*
X0187124Y0407096D01*
X0187028Y0407452D01*
X0186844Y0407771D01*
X0186583Y0408032D01*
X0186264Y0408216D01*
X0185908Y0408312D01*
X0184155Y0408312D01*
X0184155Y0405146D01*
X0184155Y0404346D01*
X0187124Y0404346D01*
X0187124Y0403400D01*
X0187465Y0403400D01*
X0187372Y0403493D01*
X0187372Y0407968D01*
X0187956Y0408552D01*
X0187956Y0411929D01*
X0192127Y0416100D01*
X0219383Y0416100D01*
X0225755Y0409728D01*
X0225755Y0408512D01*
X0226386Y0408512D01*
X0227324Y0407575D01*
X0227324Y0401918D01*
X0226805Y0401400D01*
X0227324Y0400882D01*
X0227324Y0395400D01*
X0238427Y0395400D01*
X0239755Y0396728D01*
X0239755Y0404152D01*
X0231407Y0395804D01*
X0230000Y0395804D01*
X0229005Y0396799D01*
X0229005Y0407655D01*
X0230000Y0408650D01*
X0232755Y0408650D01*
X0232755Y0409228D01*
X0233219Y0409693D01*
X0232997Y0409915D01*
X0232948Y0409866D01*
X0231850Y0409411D01*
X0230661Y0409411D01*
X0229562Y0409866D01*
X0228721Y0410707D01*
X0228266Y0411805D01*
X0228266Y0412995D01*
X0228721Y0414093D01*
X0229562Y0414934D01*
X0230255Y0415221D01*
X0230255Y0416575D01*
X0231427Y0417746D01*
X0232687Y0419006D01*
X0232687Y0422575D01*
X0233624Y0423512D01*
X0238886Y0423512D01*
X0239824Y0422575D01*
X0239824Y0416918D01*
X0239305Y0416400D01*
X0239824Y0415882D01*
X0239824Y0410297D01*
X0251588Y0422062D01*
X0251442Y0422171D01*
X0251418Y0422340D01*
X0251195Y0422563D01*
X0251026Y0422587D01*
X0250595Y0423163D01*
X0250086Y0423672D01*
X0250086Y0423843D01*
X0249898Y0424094D01*
X0249734Y0424142D01*
X0249389Y0424774D01*
X0248958Y0425350D01*
X0248982Y0425519D01*
X0248831Y0425795D01*
X0248676Y0425866D01*
X0248424Y0426540D01*
X0248079Y0427172D01*
X0248128Y0427336D01*
X0248018Y0427630D01*
X0247874Y0427723D01*
X0247721Y0428426D01*
X0247470Y0429100D01*
X0247541Y0429256D01*
X0247474Y0429563D01*
X0247345Y0429675D01*
X0247293Y0430393D01*
X0247140Y0431096D01*
X0247233Y0431240D01*
X0247216Y0431469D01*
X0247155Y0431530D01*
X0247155Y0432325D01*
X0247098Y0433118D01*
X0247155Y0433183D01*
X0247155Y0444400D01*
X0235355Y0444400D01*
X0235355Y0433183D01*
X0235412Y0433118D01*
X0235355Y0432325D01*
X0235355Y0431530D01*
X0235294Y0431469D01*
X0235277Y0431240D01*
X0235370Y0431096D01*
X0235217Y0430393D01*
X0235166Y0429675D01*
X0235036Y0429563D01*
X0234970Y0429256D01*
X0235041Y0429100D01*
X0234789Y0428426D01*
X0234636Y0427723D01*
X0234492Y0427630D01*
X0234382Y0427336D01*
X0234431Y0427172D01*
X0234086Y0426540D01*
X0233834Y0425866D01*
X0233679Y0425795D01*
X0233528Y0425519D01*
X0233553Y0425350D01*
X0233121Y0424774D01*
X0232776Y0424142D01*
X0232612Y0424094D01*
X0232424Y0423843D01*
X0232424Y0423672D01*
X0231915Y0423163D01*
X0231484Y0422587D01*
X0231315Y0422563D01*
X0231093Y0422340D01*
X0231068Y0422171D01*
X0230492Y0421740D01*
X0229983Y0421231D01*
X0229812Y0421231D01*
X0229561Y0421043D01*
X0229513Y0420879D01*
X0228881Y0420534D01*
X0228305Y0420103D01*
X0228136Y0420127D01*
X0227860Y0419976D01*
X0227789Y0419821D01*
X0227115Y0419569D01*
X0226483Y0419224D01*
X0226319Y0419273D01*
X0226025Y0419163D01*
X0225932Y0419019D01*
X0225229Y0418866D01*
X0224555Y0418615D01*
X0224399Y0418686D01*
X0224092Y0418619D01*
X0223980Y0418490D01*
X0223262Y0418438D01*
X0222559Y0418285D01*
X0222415Y0418378D01*
X0222102Y0418355D01*
X0221973Y0418243D01*
X0221255Y0418295D01*
X0220537Y0418243D01*
X0220408Y0418355D01*
X0220095Y0418378D01*
X0219951Y0418285D01*
X0219248Y0418438D01*
X0218530Y0418490D01*
X0218418Y0418619D01*
X0218111Y0418686D01*
X0217955Y0418615D01*
X0217281Y0418866D01*
X0216578Y0419019D01*
X0216486Y0419163D01*
X0216191Y0419273D01*
X0216027Y0419224D01*
X0215395Y0419569D01*
X0214721Y0419821D01*
X0214650Y0419976D01*
X0214374Y0420127D01*
X0214205Y0420103D01*
X0213629Y0420534D01*
X0212998Y0420879D01*
X0212949Y0421043D01*
X0212698Y0421231D01*
X0212527Y0421231D01*
X0212018Y0421740D01*
X0211442Y0422171D01*
X0211418Y0422340D01*
X0211195Y0422563D01*
X0211026Y0422587D01*
X0210595Y0423163D01*
X0210086Y0423672D01*
X0210086Y0423843D01*
X0209898Y0424094D01*
X0209734Y0424142D01*
X0209389Y0424774D01*
X0208958Y0425350D01*
X0208982Y0425519D01*
X0208831Y0425795D01*
X0208676Y0425866D01*
X0208424Y0426540D01*
X0208079Y0427172D01*
X0208128Y0427336D01*
X0208018Y0427630D01*
X0207874Y0427723D01*
X0207721Y0428426D01*
X0207470Y0429100D01*
X0207541Y0429256D01*
X0207474Y0429563D01*
X0207345Y0429675D01*
X0207293Y0430393D01*
X0207140Y0431096D01*
X0207233Y0431240D01*
X0207216Y0431469D01*
X0207155Y0431530D01*
X0207155Y0432325D01*
X0207098Y0433118D01*
X0207155Y0433183D01*
X0207155Y0444400D01*
X0195155Y0444400D01*
X0195155Y0432800D01*
X0181655Y0432800D01*
X0180855Y0432800D01*
X0180855Y0432000D01*
X0168255Y0432000D01*
X0168255Y0432800D01*
X0180855Y0432800D01*
X0180855Y0444400D01*
X0181655Y0444400D01*
X0181655Y0432800D01*
X0181655Y0432000D01*
X0181655Y0418500D01*
X0181984Y0418500D01*
X0183432Y0418652D01*
X0184858Y0418955D01*
X0186243Y0419405D01*
X0187574Y0419998D01*
X0188836Y0420726D01*
X0190015Y0421583D01*
X0191097Y0422558D01*
X0191097Y0422558D01*
X0192072Y0423640D01*
X0192087Y0423661D01*
X0192929Y0424819D01*
X0193657Y0426081D01*
X0194250Y0427412D01*
X0194700Y0428797D01*
X0194700Y0428797D01*
X0195003Y0430223D01*
X0195155Y0431672D01*
X0195155Y0432000D01*
X0181655Y0432000D01*
X0180855Y0432000D01*
X0180855Y0418500D01*
X0180527Y0418500D01*
X0179078Y0418652D01*
X0179078Y0418652D01*
X0178342Y0418809D01*
X0177653Y0418955D01*
X0177653Y0418955D01*
X0176845Y0419218D01*
X0176267Y0419405D01*
X0176267Y0419405D01*
X0175427Y0419780D01*
X0174936Y0419998D01*
X0174936Y0419998D01*
X0174094Y0420484D01*
X0173674Y0420726D01*
X0173674Y0420726D01*
X0172855Y0421322D01*
X0172496Y0421583D01*
X0172495Y0421583D01*
X0171720Y0422281D01*
X0171413Y0422558D01*
X0171413Y0422558D01*
X0171413Y0422558D01*
X0170438Y0423640D01*
X0170438Y0423640D01*
X0169582Y0424819D01*
X0169582Y0424819D01*
X0168853Y0426081D01*
X0168853Y0426081D01*
X0168260Y0427412D01*
X0168260Y0427412D01*
X0168255Y0427429D01*
X0168255Y0325930D01*
X0168641Y0326316D01*
X0169688Y0326750D01*
X0170822Y0326750D01*
X0171869Y0326316D01*
X0172671Y0325514D01*
X0173105Y0324467D01*
X0173105Y0323333D01*
X0172671Y0322286D01*
X0171869Y0321484D01*
X0170822Y0321050D01*
X0169688Y0321050D01*
X0168641Y0321484D01*
X0168255Y0321870D01*
X0168255Y0315371D01*
X0168260Y0315388D01*
X0168260Y0315388D01*
X0168853Y0316719D01*
X0168853Y0316719D01*
X0169582Y0317981D01*
X0169582Y0317981D01*
X0170436Y0319157D01*
X0170438Y0319160D01*
X0170438Y0319160D01*
X0171413Y0320242D01*
X0171413Y0320242D01*
X0172496Y0321217D01*
X0173674Y0322074D01*
X0174936Y0322802D01*
X0176267Y0323395D01*
X0177653Y0323845D01*
X0179078Y0324148D01*
X0180527Y0324300D01*
X0180855Y0324300D01*
X0180855Y0310800D01*
X0180855Y0310000D01*
X0168255Y0310000D01*
X0168255Y0310800D01*
X0180855Y0310800D01*
X0181655Y0310800D01*
X0181655Y0324300D01*
X0181984Y0324300D01*
X0183432Y0324148D01*
X0184858Y0323845D01*
X0186243Y0323395D01*
X0186243Y0323395D01*
X0187001Y0323057D01*
X0187574Y0322802D01*
X0187574Y0322802D01*
X0188340Y0322360D01*
X0188836Y0322074D01*
X0188836Y0322074D01*
X0189053Y0321916D01*
X0189053Y0326138D01*
X0189990Y0327075D01*
X0194859Y0327075D01*
X0195255Y0326678D01*
X0195255Y0331072D01*
X0174255Y0352072D01*
X0174255Y0364173D01*
X0173570Y0365072D02*
X0168255Y0365072D01*
X0168255Y0365870D02*
X0173266Y0365870D01*
X0173266Y0366669D02*
X0168255Y0366669D01*
X0168255Y0367468D02*
X0173462Y0367468D01*
X0173894Y0368266D02*
X0168255Y0368266D01*
X0168255Y0369065D02*
X0174877Y0369065D01*
X0177633Y0369065D02*
X0180762Y0369065D01*
X0179964Y0369863D02*
X0168255Y0369863D01*
X0168255Y0370662D02*
X0179165Y0370662D01*
X0178367Y0371460D02*
X0168255Y0371460D01*
X0168255Y0372259D02*
X0177568Y0372259D01*
X0176770Y0373057D02*
X0168255Y0373057D01*
X0168255Y0373856D02*
X0175971Y0373856D01*
X0175173Y0374654D02*
X0168255Y0374654D01*
X0168255Y0375453D02*
X0174374Y0375453D01*
X0173576Y0376251D02*
X0168255Y0376251D01*
X0168255Y0377050D02*
X0172777Y0377050D01*
X0171978Y0377848D02*
X0168255Y0377848D01*
X0168255Y0378647D02*
X0171180Y0378647D01*
X0170381Y0379445D02*
X0168255Y0379445D01*
X0168255Y0380244D02*
X0169583Y0380244D01*
X0168784Y0381042D02*
X0168255Y0381042D01*
X0168255Y0381841D02*
X0168255Y0381841D01*
X0168255Y0382639D02*
X0168255Y0382639D01*
X0168255Y0383438D02*
X0168255Y0383438D01*
X0168255Y0384236D02*
X0168255Y0384236D01*
X0168255Y0385035D02*
X0168255Y0385035D01*
X0168255Y0385833D02*
X0168255Y0385833D01*
X0168255Y0386632D02*
X0168255Y0386632D01*
X0168255Y0387430D02*
X0168255Y0387430D01*
X0168255Y0388229D02*
X0168255Y0388229D01*
X0168255Y0389027D02*
X0168255Y0389027D01*
X0168255Y0389826D02*
X0168255Y0389826D01*
X0168255Y0390624D02*
X0168255Y0390624D01*
X0168255Y0391423D02*
X0168255Y0391423D01*
X0168255Y0392221D02*
X0168255Y0392221D01*
X0168255Y0393020D02*
X0168255Y0393020D01*
X0168255Y0393818D02*
X0168255Y0393818D01*
X0168255Y0394617D02*
X0168255Y0394617D01*
X0168255Y0395415D02*
X0168255Y0395415D01*
X0168255Y0396214D02*
X0168255Y0396214D01*
X0168255Y0397012D02*
X0168255Y0397012D01*
X0168255Y0397811D02*
X0168255Y0397811D01*
X0168255Y0398609D02*
X0168255Y0398609D01*
X0168255Y0399408D02*
X0168255Y0399408D01*
X0168255Y0400206D02*
X0168255Y0400206D01*
X0168255Y0401005D02*
X0168255Y0401005D01*
X0168255Y0401803D02*
X0168255Y0401803D01*
X0168255Y0402602D02*
X0168255Y0402602D01*
X0168255Y0403401D02*
X0168927Y0403401D01*
X0168255Y0404199D02*
X0169726Y0404199D01*
X0170524Y0404998D02*
X0168255Y0404998D01*
X0168255Y0405796D02*
X0171323Y0405796D01*
X0172121Y0406595D02*
X0168255Y0406595D01*
X0168255Y0407393D02*
X0172687Y0407393D01*
X0173304Y0408192D02*
X0168255Y0408192D01*
X0168255Y0408990D02*
X0187956Y0408990D01*
X0187956Y0409789D02*
X0168255Y0409789D01*
X0168255Y0410587D02*
X0187956Y0410587D01*
X0187956Y0411386D02*
X0168255Y0411386D01*
X0168255Y0412184D02*
X0188211Y0412184D01*
X0189009Y0412983D02*
X0168255Y0412983D01*
X0168255Y0413781D02*
X0189808Y0413781D01*
X0190606Y0414580D02*
X0168255Y0414580D01*
X0168255Y0415378D02*
X0191405Y0415378D01*
X0192955Y0414100D02*
X0189956Y0411101D01*
X0189956Y0405731D01*
X0187372Y0405796D02*
X0187124Y0405796D01*
X0187124Y0406595D02*
X0187372Y0406595D01*
X0187372Y0407393D02*
X0187044Y0407393D01*
X0187595Y0408192D02*
X0186307Y0408192D01*
X0184155Y0408192D02*
X0183355Y0408192D01*
X0183355Y0407393D02*
X0184155Y0407393D01*
X0184155Y0406595D02*
X0183355Y0406595D01*
X0183355Y0405796D02*
X0184155Y0405796D01*
X0184155Y0404998D02*
X0187372Y0404998D01*
X0187372Y0404199D02*
X0187124Y0404199D01*
X0187124Y0403401D02*
X0187464Y0403401D01*
X0189956Y0401199D02*
X0190157Y0401400D01*
X0183755Y0401400D01*
X0183755Y0398054D01*
X0183755Y0401400D02*
X0179602Y0401400D01*
X0176255Y0404746D01*
X0173102Y0404746D01*
X0170255Y0401900D01*
X0170255Y0382400D01*
X0183755Y0368900D01*
X0183755Y0366400D01*
X0183755Y0349400D01*
X0203755Y0329400D01*
X0203755Y0328428D01*
X0201479Y0328428D01*
X0200692Y0327640D01*
X0203755Y0328428D02*
X0206755Y0328428D01*
X0209989Y0328340D02*
X0242867Y0328340D01*
X0242069Y0327542D02*
X0209989Y0327542D01*
X0209989Y0326743D02*
X0241270Y0326743D01*
X0240472Y0325945D02*
X0209409Y0325945D01*
X0209364Y0325900D02*
X0209989Y0326525D01*
X0209989Y0330330D01*
X0209052Y0331268D01*
X0204716Y0331268D01*
X0185755Y0350228D01*
X0185755Y0351287D01*
X0186514Y0350528D01*
X0193745Y0350528D01*
X0194682Y0351466D01*
X0194682Y0354859D01*
X0195319Y0354859D01*
X0196257Y0355796D01*
X0196257Y0356034D01*
X0205989Y0356034D01*
X0205766Y0355495D01*
X0205766Y0354773D01*
X0205731Y0354808D01*
X0205223Y0355147D01*
X0204659Y0355381D01*
X0204060Y0355500D01*
X0203855Y0355500D01*
X0203855Y0352500D01*
X0203655Y0352500D01*
X0203655Y0352300D01*
X0200655Y0352300D01*
X0200655Y0352095D01*
X0200774Y0351496D01*
X0201008Y0350932D01*
X0201347Y0350424D01*
X0201779Y0349992D01*
X0202287Y0349653D01*
X0202851Y0349419D01*
X0203450Y0349300D01*
X0203655Y0349300D01*
X0203655Y0352300D01*
X0203855Y0352300D01*
X0203855Y0349300D01*
X0204060Y0349300D01*
X0204659Y0349419D01*
X0205223Y0349653D01*
X0205731Y0349992D01*
X0206163Y0350424D01*
X0206502Y0350932D01*
X0206736Y0351496D01*
X0206855Y0352095D01*
X0206855Y0352300D01*
X0203855Y0352300D01*
X0203855Y0352500D01*
X0206855Y0352500D01*
X0206855Y0352573D01*
X0207062Y0352366D01*
X0208161Y0351911D01*
X0209350Y0351911D01*
X0210448Y0352366D01*
X0210455Y0352373D01*
X0210455Y0351744D01*
X0210957Y0350531D01*
X0211886Y0349602D01*
X0213099Y0349100D01*
X0214227Y0349100D01*
X0222755Y0340572D01*
X0223927Y0339400D01*
X0244583Y0339400D01*
X0245755Y0340572D01*
X0248595Y0343411D01*
X0249350Y0343411D01*
X0250448Y0343866D01*
X0250982Y0344400D01*
X0251643Y0344400D01*
X0251643Y0343769D01*
X0252581Y0342831D01*
X0258237Y0342831D01*
X0258755Y0343350D01*
X0259273Y0342831D01*
X0264930Y0342831D01*
X0265867Y0343769D01*
X0265867Y0344400D01*
X0266755Y0344400D01*
X0266755Y0342228D01*
X0265712Y0341186D01*
X0264930Y0341968D01*
X0259273Y0341968D01*
X0258614Y0341309D01*
X0258434Y0341489D01*
X0258114Y0341673D01*
X0257758Y0341768D01*
X0255809Y0341768D01*
X0255809Y0338800D01*
X0255009Y0338800D01*
X0255009Y0341768D01*
X0253059Y0341768D01*
X0252703Y0341673D01*
X0252384Y0341489D01*
X0252123Y0341228D01*
X0251939Y0340909D01*
X0251843Y0340553D01*
X0251843Y0338800D01*
X0255009Y0338800D01*
X0255009Y0338000D01*
X0255809Y0338000D01*
X0255809Y0335031D01*
X0257758Y0335031D01*
X0258114Y0335127D01*
X0258434Y0335311D01*
X0258614Y0335491D01*
X0259273Y0334831D01*
X0264930Y0334831D01*
X0265867Y0335769D01*
X0265867Y0336400D01*
X0266583Y0336400D01*
X0269583Y0339400D01*
X0270755Y0340572D01*
X0270755Y0344400D01*
X0289583Y0344400D01*
X0290509Y0345325D01*
X0296643Y0345325D01*
X0296643Y0341269D01*
X0297581Y0340331D01*
X0299858Y0340331D01*
X0292927Y0333400D01*
X0247927Y0333400D01*
X0246755Y0332228D01*
X0239255Y0324728D01*
X0239255Y0318768D01*
X0238958Y0318768D01*
X0238021Y0317830D01*
X0238021Y0314025D01*
X0238958Y0313087D01*
X0243552Y0313087D01*
X0244489Y0314025D01*
X0244489Y0317830D01*
X0243552Y0318768D01*
X0243255Y0318768D01*
X0243255Y0323072D01*
X0249583Y0329400D01*
X0259255Y0329400D01*
X0259255Y0324363D01*
X0259248Y0324362D01*
X0258530Y0324310D01*
X0258418Y0324181D01*
X0258111Y0324114D01*
X0257955Y0324185D01*
X0257281Y0323934D01*
X0256578Y0323781D01*
X0256486Y0323637D01*
X0256191Y0323527D01*
X0256027Y0323576D01*
X0255395Y0323231D01*
X0254721Y0322979D01*
X0254650Y0322824D01*
X0254374Y0322673D01*
X0254205Y0322697D01*
X0253629Y0322266D01*
X0252998Y0321921D01*
X0252949Y0321757D01*
X0252698Y0321569D01*
X0252527Y0321569D01*
X0252018Y0321060D01*
X0251442Y0320629D01*
X0251418Y0320460D01*
X0251195Y0320237D01*
X0251026Y0320213D01*
X0250595Y0319637D01*
X0250086Y0319128D01*
X0250086Y0318957D01*
X0249898Y0318706D01*
X0249734Y0318658D01*
X0249389Y0318026D01*
X0248958Y0317450D01*
X0248982Y0317281D01*
X0248831Y0317005D01*
X0248676Y0316934D01*
X0248424Y0316260D01*
X0248079Y0315628D01*
X0248128Y0315464D01*
X0248018Y0315170D01*
X0247874Y0315077D01*
X0247721Y0314374D01*
X0247470Y0313700D01*
X0247541Y0313544D01*
X0247474Y0313237D01*
X0247345Y0313125D01*
X0247293Y0312407D01*
X0247140Y0311704D01*
X0247233Y0311560D01*
X0247216Y0311331D01*
X0247155Y0311270D01*
X0247155Y0310475D01*
X0247098Y0309682D01*
X0247155Y0309617D01*
X0247155Y0298400D01*
X0235355Y0298400D01*
X0235355Y0309617D01*
X0235412Y0309682D01*
X0235355Y0310475D01*
X0235355Y0311270D01*
X0235294Y0311331D01*
X0235277Y0311560D01*
X0235370Y0311704D01*
X0235217Y0312407D01*
X0235166Y0313125D01*
X0235036Y0313237D01*
X0234970Y0313544D01*
X0235041Y0313700D01*
X0234789Y0314374D01*
X0234636Y0315077D01*
X0234492Y0315170D01*
X0234382Y0315464D01*
X0234431Y0315628D01*
X0234086Y0316260D01*
X0233834Y0316934D01*
X0233679Y0317005D01*
X0233528Y0317281D01*
X0233553Y0317450D01*
X0233121Y0318026D01*
X0232776Y0318658D01*
X0232612Y0318706D01*
X0232424Y0318957D01*
X0232424Y0319128D01*
X0231915Y0319637D01*
X0231484Y0320213D01*
X0231315Y0320237D01*
X0231093Y0320460D01*
X0231068Y0320629D01*
X0230492Y0321060D01*
X0229983Y0321569D01*
X0229812Y0321569D01*
X0229561Y0321757D01*
X0229513Y0321921D01*
X0228881Y0322266D01*
X0228305Y0322697D01*
X0228136Y0322673D01*
X0227860Y0322824D01*
X0227789Y0322979D01*
X0227115Y0323231D01*
X0226483Y0323576D01*
X0226319Y0323527D01*
X0226025Y0323637D01*
X0225932Y0323781D01*
X0225229Y0323934D01*
X0224555Y0324185D01*
X0224399Y0324114D01*
X0224092Y0324181D01*
X0223980Y0324310D01*
X0223262Y0324362D01*
X0222559Y0324515D01*
X0222415Y0324422D01*
X0222102Y0324445D01*
X0221973Y0324557D01*
X0221255Y0324505D01*
X0220537Y0324557D01*
X0220408Y0324445D01*
X0220095Y0324422D01*
X0219951Y0324515D01*
X0219248Y0324362D01*
X0218530Y0324310D01*
X0218418Y0324181D01*
X0218111Y0324114D01*
X0217955Y0324185D01*
X0217281Y0323934D01*
X0216578Y0323781D01*
X0216486Y0323637D01*
X0216191Y0323527D01*
X0216027Y0323576D01*
X0215395Y0323231D01*
X0214721Y0322979D01*
X0214650Y0322824D01*
X0214374Y0322673D01*
X0214205Y0322697D01*
X0213629Y0322266D01*
X0213363Y0322121D01*
X0209583Y0325900D01*
X0209364Y0325900D01*
X0210337Y0325146D02*
X0239673Y0325146D01*
X0239255Y0324348D02*
X0223457Y0324348D01*
X0226260Y0323549D02*
X0226394Y0323549D01*
X0226531Y0323549D02*
X0239255Y0323549D01*
X0239255Y0322751D02*
X0227993Y0322751D01*
X0229456Y0321952D02*
X0239255Y0321952D01*
X0239255Y0321154D02*
X0230398Y0321154D01*
X0231197Y0320355D02*
X0239255Y0320355D01*
X0239255Y0319557D02*
X0231995Y0319557D01*
X0232573Y0318758D02*
X0238949Y0318758D01*
X0238151Y0317960D02*
X0233171Y0317960D01*
X0233593Y0317161D02*
X0238021Y0317161D01*
X0238021Y0316363D02*
X0234047Y0316363D01*
X0234412Y0315564D02*
X0238021Y0315564D01*
X0238021Y0314766D02*
X0234704Y0314766D01*
X0234941Y0313967D02*
X0238079Y0313967D01*
X0238877Y0313169D02*
X0235115Y0313169D01*
X0235225Y0312370D02*
X0247285Y0312370D01*
X0247225Y0311572D02*
X0235285Y0311572D01*
X0235355Y0310773D02*
X0247155Y0310773D01*
X0247119Y0309975D02*
X0235391Y0309975D01*
X0235355Y0309176D02*
X0238705Y0309176D01*
X0238762Y0309233D02*
X0238501Y0308972D01*
X0238317Y0308653D01*
X0238221Y0308297D01*
X0238221Y0307093D01*
X0241035Y0307093D01*
X0241035Y0309513D01*
X0239437Y0309513D01*
X0239081Y0309417D01*
X0238762Y0309233D01*
X0238243Y0308378D02*
X0235355Y0308378D01*
X0235355Y0307579D02*
X0238221Y0307579D01*
X0238221Y0306652D02*
X0238221Y0305448D01*
X0238317Y0305092D01*
X0238501Y0304773D01*
X0238762Y0304512D01*
X0239081Y0304328D01*
X0239437Y0304232D01*
X0241035Y0304232D01*
X0241035Y0306652D01*
X0241475Y0306652D01*
X0241475Y0304232D01*
X0243073Y0304232D01*
X0243429Y0304328D01*
X0243749Y0304512D01*
X0244009Y0304773D01*
X0244194Y0305092D01*
X0244289Y0305448D01*
X0244289Y0306652D01*
X0241475Y0306652D01*
X0241475Y0307093D01*
X0241035Y0307093D01*
X0241035Y0306652D01*
X0238221Y0306652D01*
X0238221Y0305982D02*
X0235355Y0305982D01*
X0235355Y0305184D02*
X0238292Y0305184D01*
X0238981Y0304385D02*
X0235355Y0304385D01*
X0235355Y0303587D02*
X0247155Y0303587D01*
X0247155Y0304385D02*
X0243529Y0304385D01*
X0244218Y0305184D02*
X0247155Y0305184D01*
X0247155Y0305982D02*
X0244289Y0305982D01*
X0244289Y0307093D02*
X0241475Y0307093D01*
X0241475Y0309513D01*
X0243073Y0309513D01*
X0243429Y0309417D01*
X0243749Y0309233D01*
X0244009Y0308972D01*
X0244194Y0308653D01*
X0244289Y0308297D01*
X0244289Y0307093D01*
X0244289Y0307579D02*
X0247155Y0307579D01*
X0247155Y0306781D02*
X0241475Y0306781D01*
X0241035Y0306781D02*
X0235355Y0306781D01*
X0235355Y0302788D02*
X0247155Y0302788D01*
X0247155Y0301990D02*
X0235355Y0301990D01*
X0235355Y0301191D02*
X0247155Y0301191D01*
X0247155Y0300393D02*
X0235355Y0300393D01*
X0235355Y0299594D02*
X0247155Y0299594D01*
X0247155Y0298796D02*
X0235355Y0298796D01*
X0241035Y0304385D02*
X0241475Y0304385D01*
X0241475Y0305184D02*
X0241035Y0305184D01*
X0241035Y0305982D02*
X0241475Y0305982D01*
X0241475Y0307579D02*
X0241035Y0307579D01*
X0241035Y0308378D02*
X0241475Y0308378D01*
X0241475Y0309176D02*
X0241035Y0309176D01*
X0243805Y0309176D02*
X0247155Y0309176D01*
X0247155Y0308378D02*
X0244267Y0308378D01*
X0243633Y0313169D02*
X0247395Y0313169D01*
X0247569Y0313967D02*
X0244432Y0313967D01*
X0244489Y0314766D02*
X0247806Y0314766D01*
X0248098Y0315564D02*
X0244489Y0315564D01*
X0244489Y0316363D02*
X0248463Y0316363D01*
X0248917Y0317161D02*
X0244489Y0317161D01*
X0244360Y0317960D02*
X0249339Y0317960D01*
X0249937Y0318758D02*
X0243561Y0318758D01*
X0243255Y0319557D02*
X0250515Y0319557D01*
X0251313Y0320355D02*
X0243255Y0320355D01*
X0243255Y0321154D02*
X0252112Y0321154D01*
X0253054Y0321952D02*
X0243255Y0321952D01*
X0243255Y0322751D02*
X0254517Y0322751D01*
X0255979Y0323549D02*
X0243733Y0323549D01*
X0244531Y0324348D02*
X0259054Y0324348D01*
X0259255Y0325146D02*
X0245330Y0325146D01*
X0246128Y0325945D02*
X0259255Y0325945D01*
X0259255Y0326743D02*
X0246927Y0326743D01*
X0247725Y0327542D02*
X0259255Y0327542D01*
X0259255Y0328340D02*
X0248524Y0328340D01*
X0249322Y0329139D02*
X0259255Y0329139D01*
X0261255Y0331400D02*
X0261255Y0310400D01*
X0271197Y0320355D02*
X0279255Y0320355D01*
X0279255Y0319557D02*
X0271995Y0319557D01*
X0271915Y0319637D02*
X0271484Y0320213D01*
X0271315Y0320237D01*
X0271093Y0320460D01*
X0271068Y0320629D01*
X0270492Y0321060D01*
X0269983Y0321569D01*
X0269812Y0321569D01*
X0269561Y0321757D01*
X0269513Y0321921D01*
X0268881Y0322266D01*
X0268305Y0322697D01*
X0268136Y0322673D01*
X0267860Y0322824D01*
X0267789Y0322979D01*
X0267115Y0323231D01*
X0266483Y0323576D01*
X0266319Y0323527D01*
X0266025Y0323637D01*
X0265932Y0323781D01*
X0265229Y0323934D01*
X0264555Y0324185D01*
X0264399Y0324114D01*
X0264092Y0324181D01*
X0263980Y0324310D01*
X0263263Y0324362D01*
X0263255Y0324363D01*
X0263255Y0329400D01*
X0294583Y0329400D01*
X0295755Y0330572D01*
X0305515Y0340331D01*
X0309930Y0340331D01*
X0310867Y0341269D01*
X0310867Y0341900D01*
X0311755Y0341900D01*
X0311755Y0334728D01*
X0305427Y0328400D01*
X0282927Y0328400D01*
X0281755Y0327228D01*
X0279255Y0324728D01*
X0279255Y0318768D01*
X0278958Y0318768D01*
X0278021Y0317830D01*
X0278021Y0314025D01*
X0278958Y0313087D01*
X0283552Y0313087D01*
X0284489Y0314025D01*
X0284489Y0317830D01*
X0283552Y0318768D01*
X0283255Y0318768D01*
X0283255Y0323072D01*
X0284583Y0324400D01*
X0299255Y0324400D01*
X0299255Y0324363D01*
X0299248Y0324362D01*
X0298530Y0324310D01*
X0298418Y0324181D01*
X0298111Y0324114D01*
X0297955Y0324185D01*
X0297281Y0323934D01*
X0296578Y0323781D01*
X0296486Y0323637D01*
X0296191Y0323527D01*
X0296027Y0323576D01*
X0295395Y0323231D01*
X0294721Y0322979D01*
X0294650Y0322824D01*
X0294374Y0322673D01*
X0294205Y0322697D01*
X0293629Y0322266D01*
X0292998Y0321921D01*
X0292949Y0321757D01*
X0292698Y0321569D01*
X0292527Y0321569D01*
X0292018Y0321060D01*
X0291442Y0320629D01*
X0291418Y0320460D01*
X0291195Y0320237D01*
X0291026Y0320213D01*
X0290595Y0319637D01*
X0290086Y0319128D01*
X0290086Y0318957D01*
X0289898Y0318706D01*
X0289734Y0318658D01*
X0289389Y0318026D01*
X0288958Y0317450D01*
X0288982Y0317281D01*
X0288831Y0317005D01*
X0288676Y0316934D01*
X0288424Y0316260D01*
X0288079Y0315628D01*
X0288128Y0315464D01*
X0288018Y0315170D01*
X0287874Y0315077D01*
X0287721Y0314374D01*
X0287470Y0313700D01*
X0287541Y0313544D01*
X0287474Y0313237D01*
X0287345Y0313125D01*
X0287293Y0312407D01*
X0287140Y0311704D01*
X0287233Y0311560D01*
X0287216Y0311331D01*
X0287155Y0311270D01*
X0287155Y0310475D01*
X0287098Y0309682D01*
X0287155Y0309617D01*
X0287155Y0298400D01*
X0275355Y0298400D01*
X0275355Y0309617D01*
X0275412Y0309682D01*
X0275355Y0310475D01*
X0275355Y0311270D01*
X0275294Y0311331D01*
X0275277Y0311560D01*
X0275370Y0311704D01*
X0275217Y0312407D01*
X0275166Y0313125D01*
X0275036Y0313237D01*
X0274970Y0313544D01*
X0275041Y0313700D01*
X0274789Y0314374D01*
X0274636Y0315077D01*
X0274492Y0315170D01*
X0274382Y0315464D01*
X0274431Y0315628D01*
X0274086Y0316260D01*
X0273834Y0316934D01*
X0273679Y0317005D01*
X0273528Y0317281D01*
X0273553Y0317450D01*
X0273121Y0318026D01*
X0272776Y0318658D01*
X0272612Y0318706D01*
X0272424Y0318957D01*
X0272424Y0319128D01*
X0271915Y0319637D01*
X0272573Y0318758D02*
X0278949Y0318758D01*
X0278151Y0317960D02*
X0273171Y0317960D01*
X0273593Y0317161D02*
X0278021Y0317161D01*
X0278021Y0316363D02*
X0274047Y0316363D01*
X0274412Y0315564D02*
X0278021Y0315564D01*
X0278021Y0314766D02*
X0274704Y0314766D01*
X0274941Y0313967D02*
X0278079Y0313967D01*
X0278877Y0313169D02*
X0275115Y0313169D01*
X0275225Y0312370D02*
X0287285Y0312370D01*
X0287225Y0311572D02*
X0275285Y0311572D01*
X0275355Y0310773D02*
X0287155Y0310773D01*
X0287119Y0309975D02*
X0275391Y0309975D01*
X0275355Y0309176D02*
X0278705Y0309176D01*
X0278762Y0309233D02*
X0278501Y0308972D01*
X0278317Y0308653D01*
X0278221Y0308297D01*
X0278221Y0307093D01*
X0281035Y0307093D01*
X0281035Y0309513D01*
X0279437Y0309513D01*
X0279081Y0309417D01*
X0278762Y0309233D01*
X0278243Y0308378D02*
X0275355Y0308378D01*
X0275355Y0307579D02*
X0278221Y0307579D01*
X0278221Y0306652D02*
X0278221Y0305448D01*
X0278317Y0305092D01*
X0278501Y0304773D01*
X0278762Y0304512D01*
X0279081Y0304328D01*
X0279437Y0304232D01*
X0281035Y0304232D01*
X0281035Y0306652D01*
X0281475Y0306652D01*
X0281475Y0304232D01*
X0283073Y0304232D01*
X0283429Y0304328D01*
X0283749Y0304512D01*
X0284009Y0304773D01*
X0284194Y0305092D01*
X0284289Y0305448D01*
X0284289Y0306652D01*
X0281475Y0306652D01*
X0281475Y0307093D01*
X0281035Y0307093D01*
X0281035Y0306652D01*
X0278221Y0306652D01*
X0278221Y0305982D02*
X0275355Y0305982D01*
X0275355Y0305184D02*
X0278292Y0305184D01*
X0278981Y0304385D02*
X0275355Y0304385D01*
X0275355Y0303587D02*
X0287155Y0303587D01*
X0287155Y0304385D02*
X0283529Y0304385D01*
X0284218Y0305184D02*
X0287155Y0305184D01*
X0287155Y0305982D02*
X0284289Y0305982D01*
X0284289Y0307093D02*
X0284289Y0308297D01*
X0284194Y0308653D01*
X0284009Y0308972D01*
X0283749Y0309233D01*
X0283429Y0309417D01*
X0283073Y0309513D01*
X0281475Y0309513D01*
X0281475Y0307093D01*
X0284289Y0307093D01*
X0284289Y0307579D02*
X0287155Y0307579D01*
X0287155Y0306781D02*
X0281475Y0306781D01*
X0281035Y0306781D02*
X0275355Y0306781D01*
X0275355Y0302788D02*
X0287155Y0302788D01*
X0287155Y0301990D02*
X0275355Y0301990D01*
X0275355Y0301191D02*
X0287155Y0301191D01*
X0287155Y0300393D02*
X0275355Y0300393D01*
X0275355Y0299594D02*
X0287155Y0299594D01*
X0287155Y0298796D02*
X0275355Y0298796D01*
X0281035Y0304385D02*
X0281475Y0304385D01*
X0281475Y0305184D02*
X0281035Y0305184D01*
X0281035Y0305982D02*
X0281475Y0305982D01*
X0281475Y0307579D02*
X0281035Y0307579D01*
X0281035Y0308378D02*
X0281475Y0308378D01*
X0281475Y0309176D02*
X0281035Y0309176D01*
X0283805Y0309176D02*
X0287155Y0309176D01*
X0287155Y0308378D02*
X0284267Y0308378D01*
X0283633Y0313169D02*
X0287395Y0313169D01*
X0287569Y0313967D02*
X0284432Y0313967D01*
X0284489Y0314766D02*
X0287806Y0314766D01*
X0288098Y0315564D02*
X0284489Y0315564D01*
X0284489Y0316363D02*
X0288463Y0316363D01*
X0288917Y0317161D02*
X0284489Y0317161D01*
X0284360Y0317960D02*
X0289339Y0317960D01*
X0289937Y0318758D02*
X0283561Y0318758D01*
X0283255Y0319557D02*
X0290515Y0319557D01*
X0291313Y0320355D02*
X0283255Y0320355D01*
X0283255Y0321154D02*
X0292112Y0321154D01*
X0293054Y0321952D02*
X0283255Y0321952D01*
X0283255Y0322751D02*
X0294517Y0322751D01*
X0295979Y0323549D02*
X0283733Y0323549D01*
X0284531Y0324348D02*
X0299054Y0324348D01*
X0296250Y0323549D02*
X0296116Y0323549D01*
X0301255Y0326400D02*
X0301255Y0310400D01*
X0301255Y0326400D02*
X0283755Y0326400D01*
X0281255Y0323900D01*
X0281255Y0315928D01*
X0279255Y0321154D02*
X0270398Y0321154D01*
X0269456Y0321952D02*
X0279255Y0321952D01*
X0279255Y0322751D02*
X0267993Y0322751D01*
X0266531Y0323549D02*
X0279255Y0323549D01*
X0279255Y0324348D02*
X0263457Y0324348D01*
X0263255Y0325146D02*
X0279673Y0325146D01*
X0280472Y0325945D02*
X0263255Y0325945D01*
X0263255Y0326743D02*
X0281270Y0326743D01*
X0282069Y0327542D02*
X0263255Y0327542D01*
X0263255Y0328340D02*
X0282867Y0328340D01*
X0293755Y0331400D02*
X0261255Y0331400D01*
X0248755Y0331400D01*
X0241255Y0323900D01*
X0241255Y0315928D01*
X0243666Y0329139D02*
X0209989Y0329139D01*
X0209989Y0329937D02*
X0244464Y0329937D01*
X0245263Y0330736D02*
X0209583Y0330736D01*
X0204449Y0331534D02*
X0246061Y0331534D01*
X0246860Y0332333D02*
X0203650Y0332333D01*
X0202852Y0333132D02*
X0247658Y0333132D01*
X0252123Y0335572D02*
X0252384Y0335311D01*
X0252703Y0335127D01*
X0253059Y0335031D01*
X0255009Y0335031D01*
X0255009Y0338000D01*
X0251843Y0338000D01*
X0251843Y0336247D01*
X0251939Y0335891D01*
X0252123Y0335572D01*
X0252168Y0335527D02*
X0200456Y0335527D01*
X0199658Y0336326D02*
X0251843Y0336326D01*
X0251843Y0337124D02*
X0198859Y0337124D01*
X0198061Y0337923D02*
X0251843Y0337923D01*
X0251843Y0339520D02*
X0244703Y0339520D01*
X0245502Y0340318D02*
X0251843Y0340318D01*
X0252059Y0341117D02*
X0246300Y0341117D01*
X0247099Y0341915D02*
X0259220Y0341915D01*
X0255809Y0341117D02*
X0255009Y0341117D01*
X0255009Y0340318D02*
X0255809Y0340318D01*
X0255809Y0339520D02*
X0255009Y0339520D01*
X0255009Y0338721D02*
X0197262Y0338721D01*
X0196464Y0339520D02*
X0223807Y0339520D01*
X0223009Y0340318D02*
X0195665Y0340318D01*
X0194867Y0341117D02*
X0222210Y0341117D01*
X0221411Y0341915D02*
X0194068Y0341915D01*
X0193270Y0342714D02*
X0220613Y0342714D01*
X0219814Y0343512D02*
X0192471Y0343512D01*
X0191673Y0344311D02*
X0219016Y0344311D01*
X0218217Y0345109D02*
X0190874Y0345109D01*
X0190076Y0345908D02*
X0217419Y0345908D01*
X0216620Y0346706D02*
X0189277Y0346706D01*
X0188479Y0347505D02*
X0215822Y0347505D01*
X0215023Y0348303D02*
X0187680Y0348303D01*
X0186882Y0349102D02*
X0213094Y0349102D01*
X0211588Y0349900D02*
X0205594Y0349900D01*
X0206347Y0350699D02*
X0210888Y0350699D01*
X0210557Y0351497D02*
X0206736Y0351497D01*
X0206855Y0352296D02*
X0207232Y0352296D01*
X0208755Y0354900D02*
X0210289Y0356434D01*
X0217524Y0356434D01*
X0223758Y0350200D01*
X0238752Y0350200D01*
X0257078Y0368526D01*
X0274355Y0368526D01*
X0274355Y0371676D02*
X0262102Y0371676D01*
X0262102Y0376400D01*
X0265867Y0376251D02*
X0270255Y0376251D01*
X0270255Y0375453D02*
X0265867Y0375453D01*
X0265867Y0374654D02*
X0270255Y0374654D01*
X0270255Y0373856D02*
X0265867Y0373856D01*
X0265867Y0373769D02*
X0265867Y0379031D01*
X0264930Y0379968D01*
X0259273Y0379968D01*
X0258755Y0379450D01*
X0258237Y0379968D01*
X0257409Y0379968D01*
X0257409Y0380331D01*
X0258237Y0380331D01*
X0258896Y0380991D01*
X0259077Y0380811D01*
X0259396Y0380627D01*
X0259752Y0380531D01*
X0261702Y0380531D01*
X0261702Y0383500D01*
X0262501Y0383500D01*
X0262501Y0380531D01*
X0264451Y0380531D01*
X0264807Y0380627D01*
X0265126Y0380811D01*
X0265387Y0381072D01*
X0265571Y0381391D01*
X0265667Y0381747D01*
X0265667Y0383500D01*
X0262502Y0383500D01*
X0262502Y0384300D01*
X0265667Y0384300D01*
X0265667Y0385424D01*
X0270255Y0385424D01*
X0270255Y0373676D01*
X0265774Y0373676D01*
X0265867Y0373769D01*
X0265867Y0377050D02*
X0270255Y0377050D01*
X0270255Y0377848D02*
X0265867Y0377848D01*
X0265867Y0378647D02*
X0270255Y0378647D01*
X0270255Y0379445D02*
X0265453Y0379445D01*
X0265357Y0381042D02*
X0270255Y0381042D01*
X0270255Y0380244D02*
X0257409Y0380244D01*
X0255409Y0380400D02*
X0255209Y0380200D01*
X0250055Y0380200D01*
X0250055Y0375200D01*
X0242355Y0367500D01*
X0208855Y0367500D01*
X0203955Y0372400D01*
X0203755Y0372400D01*
X0202501Y0375453D02*
X0189729Y0375453D01*
X0189729Y0375744D02*
X0193694Y0375744D01*
X0193694Y0376513D01*
X0193745Y0376513D01*
X0194682Y0377450D01*
X0194682Y0377687D01*
X0205639Y0377687D01*
X0210455Y0372872D01*
X0210455Y0371744D01*
X0210957Y0370531D01*
X0211886Y0369602D01*
X0212133Y0369500D01*
X0209683Y0369500D01*
X0207055Y0372128D01*
X0207055Y0373056D01*
X0206553Y0374269D01*
X0205624Y0375198D01*
X0204411Y0375700D01*
X0203099Y0375700D01*
X0201886Y0375198D01*
X0200957Y0374269D01*
X0200455Y0373056D01*
X0200455Y0371744D01*
X0200957Y0370531D01*
X0201886Y0369602D01*
X0203099Y0369100D01*
X0204411Y0369100D01*
X0204422Y0369104D01*
X0205927Y0367600D01*
X0202883Y0367600D01*
X0197458Y0373026D01*
X0194682Y0373026D01*
X0194682Y0373264D01*
X0193745Y0374201D01*
X0193694Y0374201D01*
X0193694Y0374969D01*
X0189729Y0374969D01*
X0189729Y0375744D01*
X0188954Y0375744D02*
X0188954Y0374969D01*
X0184989Y0374969D01*
X0184989Y0373598D01*
X0185084Y0373241D01*
X0185269Y0372922D01*
X0185529Y0372662D01*
X0185576Y0372634D01*
X0185576Y0369907D01*
X0184583Y0370900D01*
X0172255Y0383228D01*
X0172255Y0401072D01*
X0172894Y0401711D01*
X0173205Y0401400D01*
X0172687Y0400882D01*
X0172687Y0395225D01*
X0173624Y0394288D01*
X0174255Y0394288D01*
X0174255Y0393572D01*
X0175255Y0392572D01*
X0176342Y0391484D01*
X0174506Y0391484D01*
X0173568Y0390547D01*
X0173568Y0383710D01*
X0174506Y0382772D01*
X0183312Y0382772D01*
X0184249Y0383710D01*
X0184249Y0390547D01*
X0183396Y0391400D01*
X0196083Y0391400D01*
X0197083Y0392400D01*
X0197405Y0392721D01*
X0197405Y0392422D01*
X0199255Y0390572D01*
X0200427Y0389400D01*
X0240083Y0389400D01*
X0243792Y0393109D01*
X0243792Y0390310D01*
X0243887Y0389954D01*
X0244072Y0389635D01*
X0244332Y0389374D01*
X0244652Y0389190D01*
X0245008Y0389094D01*
X0248139Y0389094D01*
X0248139Y0398362D01*
X0248938Y0398362D01*
X0248938Y0389094D01*
X0251643Y0389094D01*
X0251643Y0388769D01*
X0252581Y0387831D01*
X0258237Y0387831D01*
X0258755Y0388350D01*
X0259273Y0387831D01*
X0262842Y0387831D01*
X0263405Y0387268D01*
X0262501Y0387268D01*
X0262501Y0384300D01*
X0261702Y0384300D01*
X0261702Y0387268D01*
X0259752Y0387268D01*
X0259396Y0387173D01*
X0259077Y0386989D01*
X0258896Y0386809D01*
X0258237Y0387468D01*
X0252581Y0387468D01*
X0251643Y0386531D01*
X0251643Y0382777D01*
X0250650Y0383189D01*
X0249461Y0383189D01*
X0248362Y0382734D01*
X0247521Y0381893D01*
X0247066Y0380795D01*
X0247066Y0379605D01*
X0247521Y0378507D01*
X0248055Y0377973D01*
X0248055Y0376028D01*
X0241527Y0369500D01*
X0215377Y0369500D01*
X0215624Y0369602D01*
X0216553Y0370531D01*
X0217055Y0371744D01*
X0217055Y0373056D01*
X0216553Y0374269D01*
X0215624Y0375198D01*
X0214411Y0375700D01*
X0213283Y0375700D01*
X0207296Y0381687D01*
X0194682Y0381687D01*
X0194682Y0386256D01*
X0193745Y0387193D01*
X0186514Y0387193D01*
X0185576Y0386256D01*
X0185576Y0378079D01*
X0185529Y0378052D01*
X0185269Y0377791D01*
X0185084Y0377472D01*
X0184989Y0377116D01*
X0184989Y0375744D01*
X0188954Y0375744D01*
X0188954Y0375453D02*
X0180031Y0375453D01*
X0179232Y0376251D02*
X0184989Y0376251D01*
X0184989Y0377050D02*
X0178434Y0377050D01*
X0177635Y0377848D02*
X0185326Y0377848D01*
X0185576Y0378647D02*
X0176837Y0378647D01*
X0176038Y0379445D02*
X0185576Y0379445D01*
X0185576Y0380244D02*
X0175240Y0380244D01*
X0174441Y0381042D02*
X0185576Y0381042D01*
X0185576Y0381841D02*
X0173643Y0381841D01*
X0172844Y0382639D02*
X0185576Y0382639D01*
X0185576Y0383438D02*
X0183977Y0383438D01*
X0184249Y0384236D02*
X0185576Y0384236D01*
X0185576Y0385035D02*
X0184249Y0385035D01*
X0184249Y0385833D02*
X0185576Y0385833D01*
X0185952Y0386632D02*
X0184249Y0386632D01*
X0184249Y0387430D02*
X0252542Y0387430D01*
X0252183Y0388229D02*
X0184249Y0388229D01*
X0184249Y0389027D02*
X0251643Y0389027D01*
X0251744Y0386632D02*
X0194306Y0386632D01*
X0194682Y0385833D02*
X0227122Y0385833D01*
X0227262Y0385972D02*
X0226324Y0385035D01*
X0226324Y0376623D01*
X0227262Y0375686D01*
X0234099Y0375686D01*
X0235036Y0376623D01*
X0235036Y0385035D01*
X0234099Y0385972D01*
X0227262Y0385972D01*
X0226324Y0385035D02*
X0194682Y0385035D01*
X0194682Y0384236D02*
X0226324Y0384236D01*
X0226324Y0383438D02*
X0194682Y0383438D01*
X0194682Y0382639D02*
X0226324Y0382639D01*
X0226324Y0381841D02*
X0194682Y0381841D01*
X0194282Y0377050D02*
X0206277Y0377050D01*
X0207076Y0376251D02*
X0193694Y0376251D01*
X0193694Y0374654D02*
X0201342Y0374654D01*
X0200786Y0373856D02*
X0194090Y0373856D01*
X0194682Y0373057D02*
X0200455Y0373057D01*
X0200455Y0372259D02*
X0198225Y0372259D01*
X0199023Y0371460D02*
X0200573Y0371460D01*
X0200903Y0370662D02*
X0199822Y0370662D01*
X0200620Y0369863D02*
X0201625Y0369863D01*
X0201419Y0369065D02*
X0204462Y0369065D01*
X0205261Y0368266D02*
X0202217Y0368266D01*
X0202055Y0365600D02*
X0210555Y0365600D01*
X0213755Y0362400D01*
X0218421Y0358034D02*
X0224755Y0351700D01*
X0233555Y0351700D01*
X0253531Y0371676D01*
X0262102Y0371676D01*
X0255409Y0376400D02*
X0255409Y0380400D01*
X0255409Y0383900D01*
X0251643Y0384236D02*
X0235036Y0384236D01*
X0235036Y0383438D02*
X0251643Y0383438D01*
X0251643Y0385035D02*
X0235036Y0385035D01*
X0234238Y0385833D02*
X0251643Y0385833D01*
X0248267Y0382639D02*
X0235036Y0382639D01*
X0235036Y0381841D02*
X0247499Y0381841D01*
X0247169Y0381042D02*
X0235036Y0381042D01*
X0235036Y0380244D02*
X0247066Y0380244D01*
X0247132Y0379445D02*
X0235036Y0379445D01*
X0235036Y0378647D02*
X0247463Y0378647D01*
X0248055Y0377848D02*
X0235036Y0377848D01*
X0235036Y0377050D02*
X0248055Y0377050D01*
X0248055Y0376251D02*
X0234664Y0376251D01*
X0241890Y0369863D02*
X0215885Y0369863D01*
X0216607Y0370662D02*
X0242688Y0370662D01*
X0243487Y0371460D02*
X0216938Y0371460D01*
X0217055Y0372259D02*
X0244285Y0372259D01*
X0245084Y0373057D02*
X0217055Y0373057D01*
X0216724Y0373856D02*
X0245882Y0373856D01*
X0246681Y0374654D02*
X0216168Y0374654D01*
X0215009Y0375453D02*
X0247479Y0375453D01*
X0258275Y0387430D02*
X0263243Y0387430D01*
X0262501Y0386632D02*
X0261702Y0386632D01*
X0261702Y0385833D02*
X0262501Y0385833D01*
X0262501Y0385035D02*
X0261702Y0385035D01*
X0262502Y0384236D02*
X0270255Y0384236D01*
X0270255Y0383438D02*
X0265667Y0383438D01*
X0265667Y0382639D02*
X0270255Y0382639D01*
X0270255Y0381841D02*
X0265667Y0381841D01*
X0262501Y0381841D02*
X0261702Y0381841D01*
X0261702Y0382639D02*
X0262501Y0382639D01*
X0262501Y0383438D02*
X0261702Y0383438D01*
X0261702Y0381042D02*
X0262501Y0381042D01*
X0265667Y0385035D02*
X0270255Y0385035D01*
X0270492Y0389424D02*
X0266906Y0389424D01*
X0265867Y0390463D01*
X0265867Y0394031D01*
X0264930Y0394968D01*
X0259273Y0394968D01*
X0258755Y0394450D01*
X0258237Y0394968D01*
X0257409Y0394968D01*
X0257409Y0395331D01*
X0257588Y0395331D01*
X0258871Y0396615D01*
X0258871Y0397143D01*
X0258975Y0396754D01*
X0259237Y0396300D01*
X0259608Y0395929D01*
X0260062Y0395667D01*
X0260568Y0395531D01*
X0261808Y0395531D01*
X0261808Y0398500D01*
X0262608Y0398500D01*
X0262608Y0399300D01*
X0265576Y0399300D01*
X0265576Y0400540D01*
X0265441Y0401046D01*
X0265179Y0401500D01*
X0264808Y0401871D01*
X0264354Y0402133D01*
X0263848Y0402268D01*
X0262608Y0402268D01*
X0262608Y0399300D01*
X0261808Y0399300D01*
X0261808Y0402268D01*
X0260568Y0402268D01*
X0260062Y0402133D01*
X0259608Y0401871D01*
X0259237Y0401500D01*
X0258975Y0401046D01*
X0258871Y0400657D01*
X0258871Y0401185D01*
X0257588Y0402468D01*
X0253285Y0402468D01*
X0253285Y0407214D01*
X0253190Y0407570D01*
X0253005Y0407890D01*
X0252745Y0408150D01*
X0252425Y0408334D01*
X0252069Y0408430D01*
X0248938Y0408430D01*
X0248938Y0399162D01*
X0248139Y0399162D01*
X0248139Y0408430D01*
X0246113Y0408430D01*
X0247083Y0409400D01*
X0294028Y0409400D01*
X0294562Y0408866D01*
X0295661Y0408411D01*
X0296850Y0408411D01*
X0297948Y0408866D01*
X0298789Y0409707D01*
X0299179Y0410648D01*
X0306255Y0403572D01*
X0306255Y0394627D01*
X0305721Y0394093D01*
X0305266Y0392995D01*
X0305266Y0391805D01*
X0305721Y0390707D01*
X0306304Y0390124D01*
X0304992Y0390124D01*
X0304055Y0389186D01*
X0304055Y0379975D01*
X0302001Y0379975D01*
X0301416Y0379389D01*
X0300661Y0379389D01*
X0299562Y0378934D01*
X0298721Y0378093D01*
X0298266Y0376995D01*
X0298266Y0375805D01*
X0298721Y0374707D01*
X0299562Y0373866D01*
X0300221Y0373593D01*
X0299766Y0372495D01*
X0299766Y0371305D01*
X0300221Y0370207D01*
X0301062Y0369366D01*
X0302161Y0368911D01*
X0303350Y0368911D01*
X0304055Y0369203D01*
X0304055Y0363614D01*
X0304992Y0362676D01*
X0310255Y0362676D01*
X0310255Y0354643D01*
X0309930Y0354968D01*
X0304273Y0354968D01*
X0303755Y0354450D01*
X0303237Y0354968D01*
X0297581Y0354968D01*
X0296643Y0354031D01*
X0296643Y0349325D01*
X0291680Y0349325D01*
X0291680Y0355600D01*
X0292680Y0355600D01*
X0292680Y0359350D01*
X0292980Y0359350D01*
X0292980Y0355600D01*
X0294017Y0355600D01*
X0294217Y0355400D01*
X0304041Y0355400D01*
X0304979Y0356337D01*
X0304979Y0362663D01*
X0304041Y0363600D01*
X0294217Y0363600D01*
X0294017Y0363400D01*
X0292980Y0363400D01*
X0292980Y0359650D01*
X0292680Y0359650D01*
X0292680Y0363400D01*
X0291680Y0363400D01*
X0291680Y0374173D01*
X0292214Y0374707D01*
X0292669Y0375805D01*
X0292669Y0376995D01*
X0292214Y0378093D01*
X0291680Y0378627D01*
X0291680Y0380400D01*
X0292583Y0380400D01*
X0294830Y0382646D01*
X0294830Y0389400D01*
X0295829Y0389400D01*
X0295829Y0393150D01*
X0296129Y0393150D01*
X0296129Y0389400D01*
X0297166Y0389400D01*
X0297366Y0389200D01*
X0304041Y0389200D01*
X0304979Y0390137D01*
X0304979Y0396463D01*
X0304041Y0397400D01*
X0297366Y0397400D01*
X0297166Y0397200D01*
X0296129Y0397200D01*
X0296129Y0393450D01*
X0295829Y0393450D01*
X0295829Y0397200D01*
X0294793Y0397200D01*
X0294593Y0397400D01*
X0291067Y0397400D01*
X0290867Y0397200D01*
X0289830Y0397200D01*
X0289830Y0393450D01*
X0289530Y0393450D01*
X0289530Y0397200D01*
X0288493Y0397200D01*
X0288338Y0397355D01*
X0288479Y0397496D01*
X0288479Y0397930D01*
X0288579Y0398030D01*
X0288579Y0398500D01*
X0289118Y0398500D01*
X0290055Y0399437D01*
X0290055Y0406363D01*
X0289118Y0407300D01*
X0288579Y0407300D01*
X0288579Y0407770D01*
X0287349Y0409000D01*
X0285610Y0409000D01*
X0284379Y0407770D01*
X0284379Y0407300D01*
X0283452Y0407300D01*
X0283212Y0407540D01*
X0282838Y0407790D01*
X0282422Y0407962D01*
X0281980Y0408050D01*
X0281798Y0408050D01*
X0281798Y0402943D01*
X0281712Y0402943D01*
X0281712Y0408050D01*
X0281530Y0408050D01*
X0281088Y0407962D01*
X0280672Y0407790D01*
X0280298Y0407540D01*
X0280058Y0407300D01*
X0279131Y0407300D01*
X0279131Y0407770D01*
X0277901Y0409000D01*
X0276161Y0409000D01*
X0274931Y0407770D01*
X0274931Y0407300D01*
X0274392Y0407300D01*
X0273455Y0406363D01*
X0273455Y0399437D01*
X0274392Y0398500D01*
X0274931Y0398500D01*
X0274931Y0398030D01*
X0275031Y0397930D01*
X0275031Y0397296D01*
X0277531Y0394795D01*
X0277531Y0390137D01*
X0278469Y0389200D01*
X0284531Y0389200D01*
X0284531Y0382796D01*
X0285755Y0381572D01*
X0286927Y0380400D01*
X0287680Y0380400D01*
X0287680Y0378627D01*
X0287146Y0378093D01*
X0286691Y0376995D01*
X0286691Y0375805D01*
X0287146Y0374707D01*
X0287680Y0374173D01*
X0287680Y0368400D01*
X0285427Y0368400D01*
X0284255Y0367228D01*
X0281381Y0364354D01*
X0281381Y0363600D01*
X0278469Y0363600D01*
X0277531Y0362663D01*
X0277531Y0356337D01*
X0277948Y0355921D01*
X0274227Y0352200D01*
X0265867Y0352200D01*
X0265867Y0356531D01*
X0264930Y0357468D01*
X0264208Y0357468D01*
X0264208Y0357831D01*
X0264493Y0357831D01*
X0265776Y0359115D01*
X0265776Y0363104D01*
X0266038Y0362842D01*
X0267137Y0362387D01*
X0268326Y0362387D01*
X0269425Y0362842D01*
X0269958Y0363376D01*
X0270492Y0363376D01*
X0271192Y0362676D01*
X0277518Y0362676D01*
X0278455Y0363614D01*
X0278455Y0389186D01*
X0277518Y0390124D01*
X0271192Y0390124D01*
X0270492Y0389424D01*
X0270895Y0389826D02*
X0266504Y0389826D01*
X0265867Y0390624D02*
X0277531Y0390624D01*
X0277531Y0391423D02*
X0265867Y0391423D01*
X0265867Y0392221D02*
X0277531Y0392221D01*
X0277531Y0393020D02*
X0265867Y0393020D01*
X0265867Y0393818D02*
X0277531Y0393818D01*
X0277531Y0394617D02*
X0265281Y0394617D01*
X0264808Y0395929D02*
X0265179Y0396300D01*
X0265441Y0396754D01*
X0265576Y0397260D01*
X0265576Y0398500D01*
X0262608Y0398500D01*
X0262608Y0395531D01*
X0263848Y0395531D01*
X0264354Y0395667D01*
X0264808Y0395929D01*
X0265093Y0396214D02*
X0276113Y0396214D01*
X0276911Y0395415D02*
X0257672Y0395415D01*
X0258470Y0396214D02*
X0259323Y0396214D01*
X0258906Y0397012D02*
X0258871Y0397012D01*
X0258922Y0394617D02*
X0258588Y0394617D01*
X0261808Y0396214D02*
X0262608Y0396214D01*
X0262608Y0397012D02*
X0261808Y0397012D01*
X0261808Y0397811D02*
X0262608Y0397811D01*
X0262608Y0398609D02*
X0274283Y0398609D01*
X0275031Y0397811D02*
X0265576Y0397811D01*
X0265510Y0397012D02*
X0275314Y0397012D01*
X0277031Y0398124D02*
X0280231Y0394924D01*
X0280231Y0393300D01*
X0283381Y0393300D02*
X0283381Y0395226D01*
X0286479Y0398324D01*
X0286479Y0402900D01*
X0290055Y0402602D02*
X0306255Y0402602D01*
X0306255Y0403401D02*
X0290055Y0403401D01*
X0290055Y0404199D02*
X0305628Y0404199D01*
X0304829Y0404998D02*
X0290055Y0404998D01*
X0290055Y0405796D02*
X0304031Y0405796D01*
X0303232Y0406595D02*
X0289823Y0406595D01*
X0288579Y0407393D02*
X0302434Y0407393D01*
X0301635Y0408192D02*
X0288158Y0408192D01*
X0287359Y0408990D02*
X0294438Y0408990D01*
X0296255Y0411400D02*
X0246255Y0411400D01*
X0243255Y0408400D01*
X0243255Y0395400D01*
X0239255Y0391400D01*
X0201255Y0391400D01*
X0199405Y0393250D01*
X0199405Y0397069D01*
X0202554Y0397069D02*
X0202554Y0394601D01*
X0203755Y0393400D01*
X0239255Y0393400D01*
X0241755Y0395900D01*
X0241755Y0409400D01*
X0261255Y0428900D01*
X0261255Y0431400D01*
X0261255Y0432400D01*
X0261255Y0431400D02*
X0276255Y0416400D01*
X0296255Y0416400D01*
X0308255Y0404400D01*
X0308255Y0392400D01*
X0306245Y0394617D02*
X0304979Y0394617D01*
X0304979Y0395415D02*
X0306255Y0395415D01*
X0306255Y0396214D02*
X0304979Y0396214D01*
X0304429Y0397012D02*
X0306255Y0397012D01*
X0306255Y0397811D02*
X0288479Y0397811D01*
X0289227Y0398609D02*
X0306255Y0398609D01*
X0306255Y0399408D02*
X0290026Y0399408D01*
X0290055Y0400206D02*
X0306255Y0400206D01*
X0306255Y0401005D02*
X0290055Y0401005D01*
X0290055Y0401803D02*
X0306255Y0401803D01*
X0312330Y0405325D02*
X0306255Y0411400D01*
X0301255Y0416400D01*
X0301255Y0432400D01*
X0299240Y0410587D02*
X0299154Y0410587D01*
X0298823Y0409789D02*
X0300038Y0409789D01*
X0300837Y0408990D02*
X0298072Y0408990D01*
X0285600Y0408990D02*
X0277910Y0408990D01*
X0278709Y0408192D02*
X0284801Y0408192D01*
X0284379Y0407393D02*
X0283359Y0407393D01*
X0281798Y0407393D02*
X0281712Y0407393D01*
X0281712Y0406595D02*
X0281798Y0406595D01*
X0281798Y0405796D02*
X0281712Y0405796D01*
X0281712Y0404998D02*
X0281798Y0404998D01*
X0281798Y0404199D02*
X0281712Y0404199D01*
X0281712Y0403401D02*
X0281798Y0403401D01*
X0281798Y0402857D02*
X0281798Y0397750D01*
X0281980Y0397750D01*
X0282422Y0397838D01*
X0282838Y0398010D01*
X0283212Y0398260D01*
X0283452Y0398500D01*
X0283827Y0398500D01*
X0282727Y0397400D01*
X0280583Y0397400D01*
X0279483Y0398500D01*
X0280058Y0398500D01*
X0280298Y0398260D01*
X0280672Y0398010D01*
X0281088Y0397838D01*
X0281530Y0397750D01*
X0281712Y0397750D01*
X0281712Y0402857D01*
X0281798Y0402857D01*
X0281798Y0402602D02*
X0281712Y0402602D01*
X0281712Y0401803D02*
X0281798Y0401803D01*
X0281798Y0401005D02*
X0281712Y0401005D01*
X0281712Y0400206D02*
X0281798Y0400206D01*
X0281798Y0399408D02*
X0281712Y0399408D01*
X0281712Y0398609D02*
X0281798Y0398609D01*
X0281798Y0397811D02*
X0281712Y0397811D01*
X0281224Y0397811D02*
X0280173Y0397811D01*
X0282287Y0397811D02*
X0283138Y0397811D01*
X0286531Y0393300D02*
X0286531Y0383624D01*
X0287755Y0382400D01*
X0289755Y0382400D01*
X0289680Y0382325D01*
X0289680Y0376400D01*
X0289680Y0366400D01*
X0286255Y0366400D01*
X0283381Y0363526D01*
X0283381Y0359500D01*
X0280231Y0359500D02*
X0280231Y0355376D01*
X0275055Y0350200D01*
X0255255Y0350200D01*
X0246755Y0350200D01*
X0243955Y0347400D01*
X0226255Y0347400D01*
X0224755Y0341400D02*
X0243755Y0341400D01*
X0248755Y0346400D01*
X0255409Y0346400D01*
X0255255Y0350200D02*
X0255409Y0350354D01*
X0255409Y0353900D01*
X0251643Y0353893D02*
X0245273Y0353893D01*
X0244475Y0353094D02*
X0251643Y0353094D01*
X0251643Y0352296D02*
X0243676Y0352296D01*
X0242878Y0351497D02*
X0245224Y0351497D01*
X0244755Y0351028D02*
X0243127Y0349400D01*
X0240781Y0349400D01*
X0251934Y0360553D01*
X0251934Y0359760D01*
X0252069Y0359254D01*
X0252332Y0358800D01*
X0252702Y0358429D01*
X0253156Y0358167D01*
X0253662Y0358031D01*
X0254902Y0358031D01*
X0254902Y0361000D01*
X0255702Y0361000D01*
X0255702Y0358031D01*
X0256942Y0358031D01*
X0257449Y0358167D01*
X0257902Y0358429D01*
X0258273Y0358800D01*
X0258535Y0359254D01*
X0258639Y0359643D01*
X0258639Y0359115D01*
X0259923Y0357831D01*
X0260208Y0357831D01*
X0260208Y0357468D01*
X0259273Y0357468D01*
X0258755Y0356950D01*
X0258237Y0357468D01*
X0252581Y0357468D01*
X0251643Y0356531D01*
X0251643Y0352200D01*
X0245927Y0352200D01*
X0244755Y0351028D01*
X0244425Y0350699D02*
X0242079Y0350699D01*
X0241281Y0349900D02*
X0243627Y0349900D01*
X0246072Y0354691D02*
X0251643Y0354691D01*
X0251643Y0355490D02*
X0246870Y0355490D01*
X0247669Y0356288D02*
X0251643Y0356288D01*
X0252199Y0357087D02*
X0248467Y0357087D01*
X0249266Y0357885D02*
X0259869Y0357885D01*
X0259070Y0358684D02*
X0258157Y0358684D01*
X0258596Y0359482D02*
X0258639Y0359482D01*
X0258618Y0357087D02*
X0258892Y0357087D01*
X0255702Y0358684D02*
X0254902Y0358684D01*
X0254902Y0359482D02*
X0255702Y0359482D01*
X0255702Y0360281D02*
X0254902Y0360281D01*
X0252447Y0358684D02*
X0250064Y0358684D01*
X0250863Y0359482D02*
X0252008Y0359482D01*
X0251934Y0360281D02*
X0251661Y0360281D01*
X0262208Y0361400D02*
X0262208Y0354006D01*
X0262102Y0353900D01*
X0265867Y0353893D02*
X0275919Y0353893D01*
X0275121Y0353094D02*
X0265867Y0353094D01*
X0265867Y0352296D02*
X0274322Y0352296D01*
X0276718Y0354691D02*
X0265867Y0354691D01*
X0265867Y0355490D02*
X0277516Y0355490D01*
X0277580Y0356288D02*
X0265867Y0356288D01*
X0265311Y0357087D02*
X0277531Y0357087D01*
X0277531Y0357885D02*
X0264547Y0357885D01*
X0265346Y0358684D02*
X0277531Y0358684D01*
X0277531Y0359482D02*
X0265776Y0359482D01*
X0265776Y0360281D02*
X0277531Y0360281D01*
X0277531Y0361079D02*
X0265776Y0361079D01*
X0265776Y0361878D02*
X0277531Y0361878D01*
X0277518Y0362676D02*
X0277545Y0362676D01*
X0278316Y0363475D02*
X0278344Y0363475D01*
X0278455Y0364273D02*
X0281381Y0364273D01*
X0282099Y0365072D02*
X0278455Y0365072D01*
X0278455Y0365870D02*
X0282897Y0365870D01*
X0283696Y0366669D02*
X0278455Y0366669D01*
X0278455Y0367468D02*
X0284494Y0367468D01*
X0285293Y0368266D02*
X0278455Y0368266D01*
X0278455Y0369065D02*
X0287680Y0369065D01*
X0287680Y0369863D02*
X0278455Y0369863D01*
X0278455Y0370662D02*
X0287680Y0370662D01*
X0287680Y0371460D02*
X0278455Y0371460D01*
X0278455Y0372259D02*
X0287680Y0372259D01*
X0287680Y0373057D02*
X0278455Y0373057D01*
X0278455Y0373856D02*
X0287680Y0373856D01*
X0287199Y0374654D02*
X0278455Y0374654D01*
X0278455Y0375453D02*
X0286837Y0375453D01*
X0286691Y0376251D02*
X0278455Y0376251D01*
X0278455Y0377050D02*
X0286714Y0377050D01*
X0287045Y0377848D02*
X0278455Y0377848D01*
X0278455Y0378647D02*
X0287680Y0378647D01*
X0287680Y0379445D02*
X0278455Y0379445D01*
X0278455Y0380244D02*
X0287680Y0380244D01*
X0286284Y0381042D02*
X0278455Y0381042D01*
X0278455Y0381841D02*
X0285486Y0381841D01*
X0284687Y0382639D02*
X0278455Y0382639D01*
X0278455Y0383438D02*
X0284531Y0383438D01*
X0284531Y0384236D02*
X0278455Y0384236D01*
X0278455Y0385035D02*
X0284531Y0385035D01*
X0284531Y0385833D02*
X0278455Y0385833D01*
X0278455Y0386632D02*
X0284531Y0386632D01*
X0284531Y0387430D02*
X0278455Y0387430D01*
X0278455Y0388229D02*
X0284531Y0388229D01*
X0284531Y0389027D02*
X0278455Y0389027D01*
X0277843Y0389826D02*
X0277816Y0389826D01*
X0274355Y0387424D02*
X0266078Y0387424D01*
X0262102Y0391400D01*
X0258876Y0388229D02*
X0258634Y0388229D01*
X0255409Y0391400D02*
X0255409Y0398794D01*
X0255302Y0398900D01*
X0258253Y0401803D02*
X0259540Y0401803D01*
X0258964Y0401005D02*
X0258871Y0401005D01*
X0261808Y0401005D02*
X0262608Y0401005D01*
X0262608Y0401803D02*
X0261808Y0401803D01*
X0261808Y0400206D02*
X0262608Y0400206D01*
X0262608Y0399408D02*
X0261808Y0399408D01*
X0265576Y0399408D02*
X0273484Y0399408D01*
X0273455Y0400206D02*
X0265576Y0400206D01*
X0265452Y0401005D02*
X0273455Y0401005D01*
X0273455Y0401803D02*
X0264875Y0401803D01*
X0273455Y0402602D02*
X0253285Y0402602D01*
X0253285Y0403401D02*
X0273455Y0403401D01*
X0273455Y0404199D02*
X0253285Y0404199D01*
X0253285Y0404998D02*
X0273455Y0404998D01*
X0273455Y0405796D02*
X0253285Y0405796D01*
X0253285Y0406595D02*
X0273687Y0406595D01*
X0274931Y0407393D02*
X0253237Y0407393D01*
X0252673Y0408192D02*
X0275352Y0408192D01*
X0276151Y0408990D02*
X0246674Y0408990D01*
X0248139Y0408192D02*
X0248938Y0408192D01*
X0248938Y0407393D02*
X0248139Y0407393D01*
X0248139Y0406595D02*
X0248938Y0406595D01*
X0248938Y0405796D02*
X0248139Y0405796D01*
X0248139Y0404998D02*
X0248938Y0404998D01*
X0248938Y0404199D02*
X0248139Y0404199D01*
X0248139Y0403401D02*
X0248938Y0403401D01*
X0248938Y0402602D02*
X0248139Y0402602D01*
X0248139Y0401803D02*
X0248938Y0401803D01*
X0248938Y0401005D02*
X0248139Y0401005D01*
X0248139Y0400206D02*
X0248938Y0400206D01*
X0248938Y0399408D02*
X0248139Y0399408D01*
X0248139Y0397811D02*
X0248938Y0397811D01*
X0248938Y0397012D02*
X0248139Y0397012D01*
X0248139Y0396214D02*
X0248938Y0396214D01*
X0248938Y0395415D02*
X0248139Y0395415D01*
X0248139Y0394617D02*
X0248938Y0394617D01*
X0248938Y0393818D02*
X0248139Y0393818D01*
X0248139Y0393020D02*
X0248938Y0393020D01*
X0248938Y0392221D02*
X0248139Y0392221D01*
X0248139Y0391423D02*
X0248938Y0391423D01*
X0248938Y0390624D02*
X0248139Y0390624D01*
X0248139Y0389826D02*
X0248938Y0389826D01*
X0243962Y0389826D02*
X0240509Y0389826D01*
X0241308Y0390624D02*
X0243792Y0390624D01*
X0243792Y0391423D02*
X0242106Y0391423D01*
X0242905Y0392221D02*
X0243792Y0392221D01*
X0243792Y0393020D02*
X0243703Y0393020D01*
X0239241Y0396214D02*
X0231817Y0396214D01*
X0232616Y0397012D02*
X0239755Y0397012D01*
X0239755Y0397811D02*
X0233414Y0397811D01*
X0234213Y0398609D02*
X0239755Y0398609D01*
X0239755Y0399408D02*
X0235011Y0399408D01*
X0235810Y0400206D02*
X0239755Y0400206D01*
X0239755Y0401005D02*
X0236608Y0401005D01*
X0237407Y0401803D02*
X0239755Y0401803D01*
X0239755Y0402602D02*
X0238205Y0402602D01*
X0239004Y0403401D02*
X0239755Y0403401D01*
X0234755Y0405861D02*
X0234755Y0408400D01*
X0236255Y0409900D01*
X0236255Y0413054D01*
X0239824Y0412983D02*
X0242509Y0412983D01*
X0243308Y0413781D02*
X0239824Y0413781D01*
X0239824Y0414580D02*
X0244106Y0414580D01*
X0244905Y0415378D02*
X0239824Y0415378D01*
X0239528Y0416177D02*
X0245703Y0416177D01*
X0246502Y0416975D02*
X0239824Y0416975D01*
X0239824Y0417774D02*
X0247300Y0417774D01*
X0248099Y0418572D02*
X0239824Y0418572D01*
X0239824Y0419371D02*
X0248897Y0419371D01*
X0249696Y0420169D02*
X0239824Y0420169D01*
X0239824Y0420968D02*
X0250494Y0420968D01*
X0251293Y0421766D02*
X0239824Y0421766D01*
X0239824Y0422565D02*
X0251180Y0422565D01*
X0250395Y0423363D02*
X0239035Y0423363D01*
X0236255Y0419746D02*
X0232255Y0415746D01*
X0232255Y0413400D01*
X0231255Y0412400D01*
X0229208Y0414580D02*
X0220904Y0414580D01*
X0220105Y0415378D02*
X0230255Y0415378D01*
X0230255Y0416177D02*
X0168255Y0416177D01*
X0168255Y0416975D02*
X0230655Y0416975D01*
X0231454Y0417774D02*
X0168255Y0417774D01*
X0168255Y0418572D02*
X0179839Y0418572D01*
X0180855Y0418572D02*
X0181655Y0418572D01*
X0181655Y0419371D02*
X0180855Y0419371D01*
X0180855Y0420169D02*
X0181655Y0420169D01*
X0181655Y0420968D02*
X0180855Y0420968D01*
X0180855Y0421766D02*
X0181655Y0421766D01*
X0181655Y0422565D02*
X0180855Y0422565D01*
X0180855Y0423363D02*
X0181655Y0423363D01*
X0181655Y0424162D02*
X0180855Y0424162D01*
X0180855Y0424960D02*
X0181655Y0424960D01*
X0181655Y0425759D02*
X0180855Y0425759D01*
X0180855Y0426557D02*
X0181655Y0426557D01*
X0181655Y0427356D02*
X0180855Y0427356D01*
X0180855Y0428154D02*
X0181655Y0428154D01*
X0181655Y0428953D02*
X0180855Y0428953D01*
X0180855Y0429751D02*
X0181655Y0429751D01*
X0181655Y0430550D02*
X0180855Y0430550D01*
X0180855Y0431348D02*
X0181655Y0431348D01*
X0181655Y0432147D02*
X0207155Y0432147D01*
X0207111Y0432945D02*
X0195155Y0432945D01*
X0195155Y0433744D02*
X0207155Y0433744D01*
X0207155Y0434542D02*
X0195155Y0434542D01*
X0195155Y0435341D02*
X0207155Y0435341D01*
X0207155Y0436139D02*
X0195155Y0436139D01*
X0195155Y0436938D02*
X0207155Y0436938D01*
X0207155Y0437737D02*
X0195155Y0437737D01*
X0195155Y0438535D02*
X0207155Y0438535D01*
X0207155Y0439334D02*
X0195155Y0439334D01*
X0195155Y0440132D02*
X0207155Y0440132D01*
X0207155Y0440931D02*
X0195155Y0440931D01*
X0195155Y0441729D02*
X0207155Y0441729D01*
X0207155Y0442528D02*
X0195155Y0442528D01*
X0195155Y0443326D02*
X0207155Y0443326D01*
X0207155Y0444125D02*
X0195155Y0444125D01*
X0195121Y0431348D02*
X0207225Y0431348D01*
X0207259Y0430550D02*
X0195037Y0430550D01*
X0195003Y0430223D02*
X0195003Y0430223D01*
X0194903Y0429751D02*
X0207339Y0429751D01*
X0207525Y0428953D02*
X0194733Y0428953D01*
X0194491Y0428154D02*
X0207780Y0428154D01*
X0208120Y0427356D02*
X0194225Y0427356D01*
X0194250Y0427412D02*
X0194250Y0427412D01*
X0193869Y0426557D02*
X0208415Y0426557D01*
X0208851Y0425759D02*
X0193471Y0425759D01*
X0193657Y0426081D02*
X0193657Y0426081D01*
X0193010Y0424960D02*
X0209249Y0424960D01*
X0209723Y0424162D02*
X0192451Y0424162D01*
X0192072Y0423640D02*
X0192072Y0423640D01*
X0191823Y0423363D02*
X0210395Y0423363D01*
X0211180Y0422565D02*
X0191104Y0422565D01*
X0190218Y0421766D02*
X0211983Y0421766D01*
X0212971Y0420968D02*
X0189168Y0420968D01*
X0187871Y0420169D02*
X0214116Y0420169D01*
X0215759Y0419371D02*
X0186137Y0419371D01*
X0182671Y0418572D02*
X0218458Y0418572D01*
X0218555Y0414100D02*
X0223755Y0408900D01*
X0223755Y0404746D01*
X0223755Y0401400D02*
X0216255Y0401400D01*
X0190157Y0401400D01*
X0189956Y0401199D02*
X0189956Y0397069D01*
X0193105Y0397069D02*
X0193105Y0399250D01*
X0193755Y0399900D01*
X0206909Y0399900D01*
X0208755Y0398054D01*
X0208355Y0404346D02*
X0205387Y0404346D01*
X0205387Y0403400D01*
X0204719Y0403400D01*
X0204843Y0403616D01*
X0204939Y0403972D01*
X0204939Y0405639D01*
X0202646Y0405639D01*
X0202646Y0405638D02*
X0202646Y0403400D01*
X0202462Y0403400D01*
X0202462Y0405638D01*
X0202646Y0405638D01*
X0202646Y0405639D02*
X0202646Y0405823D01*
X0204939Y0405823D01*
X0204939Y0407490D01*
X0204843Y0407846D01*
X0204659Y0408165D01*
X0204398Y0408426D01*
X0204079Y0408610D01*
X0203723Y0408705D01*
X0203496Y0408705D01*
X0203744Y0409305D01*
X0203744Y0410495D01*
X0203700Y0410600D01*
X0211727Y0410600D01*
X0213815Y0408512D01*
X0213624Y0408512D01*
X0212687Y0407575D01*
X0212687Y0403400D01*
X0212124Y0403400D01*
X0212124Y0404346D01*
X0209155Y0404346D01*
X0209155Y0405146D01*
X0212124Y0405146D01*
X0212124Y0407096D01*
X0212028Y0407452D01*
X0211844Y0407771D01*
X0211583Y0408032D01*
X0211264Y0408216D01*
X0210908Y0408312D01*
X0209155Y0408312D01*
X0209155Y0405146D01*
X0208355Y0405146D01*
X0208355Y0404346D01*
X0208355Y0404998D02*
X0204939Y0404998D01*
X0205387Y0405146D02*
X0208355Y0405146D01*
X0208355Y0408312D01*
X0206602Y0408312D01*
X0206246Y0408216D01*
X0205927Y0408032D01*
X0205666Y0407771D01*
X0205482Y0407452D01*
X0205387Y0407096D01*
X0205387Y0405146D01*
X0205387Y0405796D02*
X0202646Y0405796D01*
X0202554Y0405731D02*
X0202554Y0404748D01*
X0200962Y0403156D01*
X0194498Y0403156D01*
X0193105Y0404548D01*
X0193105Y0405731D01*
X0193013Y0405823D02*
X0193013Y0408705D01*
X0191956Y0408705D01*
X0191956Y0410272D01*
X0193783Y0412100D01*
X0195627Y0412100D01*
X0194255Y0410728D01*
X0194255Y0409072D01*
X0194255Y0408705D01*
X0193198Y0408705D01*
X0193198Y0405823D01*
X0193013Y0405823D01*
X0193013Y0405638D02*
X0193013Y0403400D01*
X0193198Y0403400D01*
X0193198Y0405638D01*
X0193013Y0405638D01*
X0193013Y0404998D02*
X0193198Y0404998D01*
X0193198Y0404199D02*
X0193013Y0404199D01*
X0193013Y0403401D02*
X0193198Y0403401D01*
X0193198Y0406595D02*
X0193013Y0406595D01*
X0193013Y0407393D02*
X0193198Y0407393D01*
X0193198Y0408192D02*
X0193013Y0408192D01*
X0191956Y0408990D02*
X0194255Y0408990D01*
X0194255Y0409789D02*
X0191956Y0409789D01*
X0192271Y0410587D02*
X0194255Y0410587D01*
X0194912Y0411386D02*
X0193069Y0411386D01*
X0192955Y0414100D02*
X0218555Y0414100D01*
X0221702Y0413781D02*
X0228592Y0413781D01*
X0228266Y0412983D02*
X0222501Y0412983D01*
X0223299Y0412184D02*
X0228266Y0412184D01*
X0228440Y0411386D02*
X0224098Y0411386D01*
X0224896Y0410587D02*
X0228841Y0410587D01*
X0229749Y0409789D02*
X0225695Y0409789D01*
X0225755Y0408990D02*
X0232755Y0408990D01*
X0232761Y0409789D02*
X0233123Y0409789D01*
X0229542Y0408192D02*
X0226707Y0408192D01*
X0227324Y0407393D02*
X0229005Y0407393D01*
X0229005Y0406595D02*
X0227324Y0406595D01*
X0227324Y0405796D02*
X0229005Y0405796D01*
X0229005Y0404998D02*
X0227324Y0404998D01*
X0227324Y0404199D02*
X0229005Y0404199D01*
X0229005Y0403401D02*
X0227324Y0403401D01*
X0227324Y0402602D02*
X0229005Y0402602D01*
X0229005Y0401803D02*
X0227209Y0401803D01*
X0227200Y0401005D02*
X0229005Y0401005D01*
X0229005Y0400206D02*
X0227324Y0400206D01*
X0227324Y0399408D02*
X0229005Y0399408D01*
X0229005Y0398609D02*
X0227324Y0398609D01*
X0227324Y0397811D02*
X0229005Y0397811D01*
X0229005Y0397012D02*
X0227324Y0397012D01*
X0227324Y0396214D02*
X0229590Y0396214D01*
X0227324Y0395415D02*
X0238442Y0395415D01*
X0233255Y0404361D02*
X0234755Y0405861D01*
X0239824Y0410587D02*
X0240114Y0410587D01*
X0239824Y0411386D02*
X0240912Y0411386D01*
X0241711Y0412184D02*
X0239824Y0412184D01*
X0232252Y0418572D02*
X0224052Y0418572D01*
X0226751Y0419371D02*
X0232687Y0419371D01*
X0232687Y0420169D02*
X0228394Y0420169D01*
X0229539Y0420968D02*
X0232687Y0420968D01*
X0232687Y0421766D02*
X0230527Y0421766D01*
X0231331Y0422565D02*
X0232687Y0422565D01*
X0232116Y0423363D02*
X0233475Y0423363D01*
X0232787Y0424162D02*
X0249723Y0424162D01*
X0249249Y0424960D02*
X0233261Y0424960D01*
X0233659Y0425759D02*
X0248851Y0425759D01*
X0248415Y0426557D02*
X0234095Y0426557D01*
X0234390Y0427356D02*
X0248120Y0427356D01*
X0247780Y0428154D02*
X0234730Y0428154D01*
X0234986Y0428953D02*
X0247525Y0428953D01*
X0247339Y0429751D02*
X0235171Y0429751D01*
X0235251Y0430550D02*
X0247259Y0430550D01*
X0247225Y0431348D02*
X0235285Y0431348D01*
X0235355Y0432147D02*
X0247155Y0432147D01*
X0247111Y0432945D02*
X0235399Y0432945D01*
X0235355Y0433744D02*
X0247155Y0433744D01*
X0247155Y0434542D02*
X0235355Y0434542D01*
X0235355Y0435341D02*
X0247155Y0435341D01*
X0247155Y0436139D02*
X0235355Y0436139D01*
X0235355Y0436938D02*
X0247155Y0436938D01*
X0247155Y0437737D02*
X0235355Y0437737D01*
X0235355Y0438535D02*
X0247155Y0438535D01*
X0247155Y0439334D02*
X0235355Y0439334D01*
X0235355Y0440132D02*
X0247155Y0440132D01*
X0247155Y0440931D02*
X0235355Y0440931D01*
X0235355Y0441729D02*
X0247155Y0441729D01*
X0247155Y0442528D02*
X0235355Y0442528D01*
X0235355Y0443326D02*
X0247155Y0443326D01*
X0247155Y0444125D02*
X0235355Y0444125D01*
X0212555Y0412600D02*
X0198955Y0412600D01*
X0196255Y0409900D01*
X0196255Y0405731D01*
X0199405Y0405731D02*
X0199405Y0408550D01*
X0200755Y0409900D01*
X0203744Y0409789D02*
X0212538Y0409789D01*
X0211740Y0410587D02*
X0203706Y0410587D01*
X0203613Y0408990D02*
X0213337Y0408990D01*
X0213304Y0408192D02*
X0211307Y0408192D01*
X0212044Y0407393D02*
X0212687Y0407393D01*
X0212687Y0406595D02*
X0212124Y0406595D01*
X0212124Y0405796D02*
X0212687Y0405796D01*
X0212687Y0404998D02*
X0209155Y0404998D01*
X0209155Y0405796D02*
X0208355Y0405796D01*
X0208355Y0406595D02*
X0209155Y0406595D01*
X0209155Y0407393D02*
X0208355Y0407393D01*
X0208355Y0408192D02*
X0209155Y0408192D01*
X0206203Y0408192D02*
X0204632Y0408192D01*
X0204939Y0407393D02*
X0205466Y0407393D01*
X0205387Y0406595D02*
X0204939Y0406595D01*
X0204939Y0404199D02*
X0205387Y0404199D01*
X0205387Y0403401D02*
X0204719Y0403401D01*
X0202646Y0403401D02*
X0202462Y0403401D01*
X0202462Y0404199D02*
X0202646Y0404199D01*
X0202646Y0404998D02*
X0202462Y0404998D01*
X0212124Y0404199D02*
X0212687Y0404199D01*
X0212687Y0403401D02*
X0212124Y0403401D01*
X0216255Y0404746D02*
X0216255Y0408900D01*
X0212555Y0412600D01*
X0216255Y0401400D02*
X0216255Y0398054D01*
X0223755Y0398054D02*
X0223755Y0401400D01*
X0226324Y0381042D02*
X0207941Y0381042D01*
X0208740Y0380244D02*
X0226324Y0380244D01*
X0226324Y0379445D02*
X0209538Y0379445D01*
X0210337Y0378647D02*
X0226324Y0378647D01*
X0226324Y0377848D02*
X0211135Y0377848D01*
X0211934Y0377050D02*
X0226324Y0377050D01*
X0226696Y0376251D02*
X0212732Y0376251D01*
X0213755Y0372400D02*
X0206468Y0379687D01*
X0190129Y0379687D01*
X0184989Y0374654D02*
X0180829Y0374654D01*
X0181628Y0373856D02*
X0184989Y0373856D01*
X0185191Y0373057D02*
X0182426Y0373057D01*
X0183225Y0372259D02*
X0185576Y0372259D01*
X0185576Y0371460D02*
X0184023Y0371460D01*
X0184822Y0370662D02*
X0185576Y0370662D01*
X0186255Y0366400D02*
X0183755Y0366400D01*
X0181755Y0366669D02*
X0179244Y0366669D01*
X0179244Y0365870D02*
X0181755Y0365870D01*
X0181755Y0365072D02*
X0178940Y0365072D01*
X0178356Y0364273D02*
X0181755Y0364273D01*
X0181755Y0363475D02*
X0178255Y0363475D01*
X0178255Y0362676D02*
X0181755Y0362676D01*
X0181755Y0361878D02*
X0178255Y0361878D01*
X0178255Y0361079D02*
X0181755Y0361079D01*
X0181755Y0360281D02*
X0178255Y0360281D01*
X0178255Y0359482D02*
X0181755Y0359482D01*
X0181755Y0358684D02*
X0178255Y0358684D01*
X0178255Y0357885D02*
X0181755Y0357885D01*
X0181755Y0357087D02*
X0178255Y0357087D01*
X0178255Y0356288D02*
X0181755Y0356288D01*
X0181755Y0355490D02*
X0178255Y0355490D01*
X0178255Y0354691D02*
X0181755Y0354691D01*
X0181755Y0353893D02*
X0178255Y0353893D01*
X0178889Y0353094D02*
X0181755Y0353094D01*
X0181755Y0352296D02*
X0179688Y0352296D01*
X0180486Y0351497D02*
X0181755Y0351497D01*
X0181755Y0350699D02*
X0181285Y0350699D01*
X0178822Y0347505D02*
X0168255Y0347505D01*
X0168255Y0348303D02*
X0178023Y0348303D01*
X0177225Y0349102D02*
X0168255Y0349102D01*
X0168255Y0349900D02*
X0176426Y0349900D01*
X0175628Y0350699D02*
X0168255Y0350699D01*
X0168255Y0351497D02*
X0174829Y0351497D01*
X0174255Y0352296D02*
X0168255Y0352296D01*
X0168255Y0353094D02*
X0174255Y0353094D01*
X0174255Y0353893D02*
X0168255Y0353893D01*
X0168255Y0354691D02*
X0174255Y0354691D01*
X0174255Y0355490D02*
X0168255Y0355490D01*
X0168255Y0356288D02*
X0174255Y0356288D01*
X0174255Y0357087D02*
X0168255Y0357087D01*
X0168255Y0357885D02*
X0174255Y0357885D01*
X0174255Y0358684D02*
X0168255Y0358684D01*
X0168255Y0359482D02*
X0174255Y0359482D01*
X0174255Y0360281D02*
X0168255Y0360281D01*
X0168255Y0361079D02*
X0174255Y0361079D01*
X0174255Y0361878D02*
X0168255Y0361878D01*
X0168255Y0362676D02*
X0174255Y0362676D01*
X0179048Y0367468D02*
X0181755Y0367468D01*
X0181561Y0368266D02*
X0178616Y0368266D01*
X0186255Y0366400D02*
X0189637Y0366400D01*
X0197755Y0366400D01*
X0202055Y0365600D02*
X0196629Y0371026D01*
X0190129Y0371026D01*
X0189342Y0366695D02*
X0189637Y0366400D01*
X0190129Y0362365D02*
X0203720Y0362365D01*
X0203755Y0362400D01*
X0203655Y0355500D02*
X0203450Y0355500D01*
X0202851Y0355381D01*
X0202287Y0355147D01*
X0201779Y0354808D01*
X0201347Y0354376D01*
X0201008Y0353868D01*
X0200774Y0353304D01*
X0200655Y0352705D01*
X0200655Y0352500D01*
X0203655Y0352500D01*
X0203655Y0355500D01*
X0203655Y0355490D02*
X0203855Y0355490D01*
X0204111Y0355490D02*
X0205766Y0355490D01*
X0203855Y0354691D02*
X0203655Y0354691D01*
X0203655Y0353893D02*
X0203855Y0353893D01*
X0203855Y0353094D02*
X0203655Y0353094D01*
X0203655Y0352296D02*
X0203855Y0352296D01*
X0203855Y0351497D02*
X0203655Y0351497D01*
X0203655Y0350699D02*
X0203855Y0350699D01*
X0203855Y0349900D02*
X0203655Y0349900D01*
X0201916Y0349900D02*
X0186083Y0349900D01*
X0186343Y0350699D02*
X0185755Y0350699D01*
X0180419Y0345908D02*
X0168255Y0345908D01*
X0168255Y0346706D02*
X0179620Y0346706D01*
X0181217Y0345109D02*
X0168255Y0345109D01*
X0168255Y0344311D02*
X0182016Y0344311D01*
X0182814Y0343512D02*
X0168255Y0343512D01*
X0168255Y0342714D02*
X0183613Y0342714D01*
X0184411Y0341915D02*
X0168255Y0341915D01*
X0168255Y0341117D02*
X0185210Y0341117D01*
X0186009Y0340318D02*
X0168255Y0340318D01*
X0168255Y0339520D02*
X0170376Y0339520D01*
X0170569Y0339713D02*
X0169631Y0338775D01*
X0169631Y0331938D01*
X0170569Y0331001D01*
X0179374Y0331001D01*
X0180312Y0331938D01*
X0180312Y0338775D01*
X0179374Y0339713D01*
X0170569Y0339713D01*
X0169631Y0338721D02*
X0168255Y0338721D01*
X0168255Y0337923D02*
X0169631Y0337923D01*
X0169631Y0337124D02*
X0168255Y0337124D01*
X0168255Y0336326D02*
X0169631Y0336326D01*
X0169631Y0335527D02*
X0168255Y0335527D01*
X0168255Y0334729D02*
X0169631Y0334729D01*
X0169631Y0333930D02*
X0168255Y0333930D01*
X0168255Y0333132D02*
X0169631Y0333132D01*
X0169631Y0332333D02*
X0168255Y0332333D01*
X0168255Y0331534D02*
X0170035Y0331534D01*
X0168255Y0330736D02*
X0195255Y0330736D01*
X0195255Y0329937D02*
X0168255Y0329937D01*
X0168255Y0329139D02*
X0195255Y0329139D01*
X0195255Y0328340D02*
X0168255Y0328340D01*
X0168255Y0327542D02*
X0195255Y0327542D01*
X0195255Y0326743D02*
X0195190Y0326743D01*
X0197255Y0323900D02*
X0208755Y0323900D01*
X0221255Y0311400D01*
X0221255Y0310400D01*
X0207216Y0311331D02*
X0207155Y0311270D01*
X0207155Y0310475D01*
X0207098Y0309682D01*
X0207155Y0309617D01*
X0207155Y0298400D01*
X0195155Y0298400D01*
X0195155Y0310000D01*
X0181655Y0310000D01*
X0181655Y0298400D01*
X0180855Y0298400D01*
X0180855Y0310000D01*
X0181655Y0310000D01*
X0181655Y0310800D01*
X0195155Y0310800D01*
X0195155Y0311128D01*
X0195003Y0312577D01*
X0195003Y0312577D01*
X0194700Y0314002D01*
X0194700Y0314003D01*
X0194250Y0315388D01*
X0194250Y0315388D01*
X0193657Y0316719D01*
X0193657Y0316719D01*
X0192929Y0317981D01*
X0192072Y0319160D01*
X0191097Y0320242D01*
X0190729Y0320574D01*
X0190561Y0320725D01*
X0194859Y0320725D01*
X0195796Y0321662D01*
X0195796Y0321900D01*
X0197320Y0321900D01*
X0197320Y0317922D01*
X0197687Y0317556D01*
X0197687Y0311918D01*
X0198346Y0311259D01*
X0198166Y0311079D01*
X0197982Y0310759D01*
X0197887Y0310403D01*
X0197887Y0308454D01*
X0200855Y0308454D01*
X0200855Y0307654D01*
X0197887Y0307654D01*
X0197887Y0305704D01*
X0197982Y0305348D01*
X0198166Y0305029D01*
X0198427Y0304768D01*
X0198746Y0304584D01*
X0199102Y0304488D01*
X0200855Y0304488D01*
X0200855Y0307653D01*
X0201655Y0307653D01*
X0201655Y0304488D01*
X0203408Y0304488D01*
X0203764Y0304584D01*
X0204083Y0304768D01*
X0204344Y0305029D01*
X0204528Y0305348D01*
X0204624Y0305704D01*
X0204624Y0307654D01*
X0201655Y0307654D01*
X0201655Y0308454D01*
X0204624Y0308454D01*
X0204624Y0310403D01*
X0204528Y0310759D01*
X0204344Y0311079D01*
X0204164Y0311259D01*
X0204824Y0311918D01*
X0204824Y0315487D01*
X0205255Y0315918D01*
X0205255Y0316532D01*
X0208526Y0316532D01*
X0208424Y0316260D01*
X0208079Y0315628D01*
X0208128Y0315464D01*
X0208018Y0315170D01*
X0207874Y0315077D01*
X0207721Y0314374D01*
X0207470Y0313700D01*
X0207541Y0313544D01*
X0207474Y0313237D01*
X0207345Y0313125D01*
X0207293Y0312407D01*
X0207140Y0311704D01*
X0207233Y0311560D01*
X0207216Y0311331D01*
X0207225Y0311572D02*
X0204477Y0311572D01*
X0204520Y0310773D02*
X0207155Y0310773D01*
X0207119Y0309975D02*
X0204624Y0309975D01*
X0204624Y0309176D02*
X0207155Y0309176D01*
X0207155Y0308378D02*
X0201655Y0308378D01*
X0201655Y0307579D02*
X0200855Y0307579D01*
X0200855Y0306781D02*
X0201655Y0306781D01*
X0201655Y0305982D02*
X0200855Y0305982D01*
X0200855Y0305184D02*
X0201655Y0305184D01*
X0204433Y0305184D02*
X0207155Y0305184D01*
X0207155Y0305982D02*
X0204624Y0305982D01*
X0204624Y0306781D02*
X0207155Y0306781D01*
X0207155Y0307579D02*
X0204624Y0307579D01*
X0200855Y0308378D02*
X0195155Y0308378D01*
X0195155Y0309176D02*
X0197887Y0309176D01*
X0197887Y0309975D02*
X0195155Y0309975D01*
X0195108Y0311572D02*
X0198033Y0311572D01*
X0197990Y0310773D02*
X0181655Y0310773D01*
X0181655Y0309975D02*
X0180855Y0309975D01*
X0180855Y0310773D02*
X0168255Y0310773D01*
X0168255Y0315564D02*
X0168339Y0315564D01*
X0168255Y0316363D02*
X0168694Y0316363D01*
X0169108Y0317161D02*
X0168255Y0317161D01*
X0168255Y0317960D02*
X0169569Y0317960D01*
X0170146Y0318758D02*
X0168255Y0318758D01*
X0168255Y0319557D02*
X0170796Y0319557D01*
X0171538Y0320355D02*
X0168255Y0320355D01*
X0168255Y0321154D02*
X0169437Y0321154D01*
X0171073Y0321154D02*
X0172425Y0321154D01*
X0172338Y0321952D02*
X0173507Y0321952D01*
X0172864Y0322751D02*
X0174847Y0322751D01*
X0173105Y0323549D02*
X0176743Y0323549D01*
X0173105Y0324348D02*
X0189053Y0324348D01*
X0189053Y0325146D02*
X0172824Y0325146D01*
X0172241Y0325945D02*
X0189053Y0325945D01*
X0189659Y0326743D02*
X0170838Y0326743D01*
X0169672Y0326743D02*
X0168255Y0326743D01*
X0168255Y0325945D02*
X0168270Y0325945D01*
X0180855Y0323549D02*
X0181655Y0323549D01*
X0181655Y0322751D02*
X0180855Y0322751D01*
X0180855Y0321952D02*
X0181655Y0321952D01*
X0181655Y0321154D02*
X0180855Y0321154D01*
X0180855Y0320355D02*
X0181655Y0320355D01*
X0181655Y0319557D02*
X0180855Y0319557D01*
X0180855Y0318758D02*
X0181655Y0318758D01*
X0181655Y0317960D02*
X0180855Y0317960D01*
X0180855Y0317161D02*
X0181655Y0317161D01*
X0181655Y0316363D02*
X0180855Y0316363D01*
X0180855Y0315564D02*
X0181655Y0315564D01*
X0181655Y0314766D02*
X0180855Y0314766D01*
X0180855Y0313967D02*
X0181655Y0313967D01*
X0181655Y0313169D02*
X0180855Y0313169D01*
X0180855Y0312370D02*
X0181655Y0312370D01*
X0181655Y0311572D02*
X0180855Y0311572D01*
X0180855Y0309176D02*
X0181655Y0309176D01*
X0181655Y0308378D02*
X0180855Y0308378D01*
X0180855Y0307579D02*
X0181655Y0307579D01*
X0181655Y0306781D02*
X0180855Y0306781D01*
X0180855Y0305982D02*
X0181655Y0305982D01*
X0181655Y0305184D02*
X0180855Y0305184D01*
X0180855Y0304385D02*
X0181655Y0304385D01*
X0181655Y0303587D02*
X0180855Y0303587D01*
X0180855Y0302788D02*
X0181655Y0302788D01*
X0181655Y0301990D02*
X0180855Y0301990D01*
X0180855Y0301191D02*
X0181655Y0301191D01*
X0181655Y0300393D02*
X0180855Y0300393D01*
X0180855Y0299594D02*
X0181655Y0299594D01*
X0181655Y0298796D02*
X0180855Y0298796D01*
X0195155Y0298796D02*
X0207155Y0298796D01*
X0207155Y0299594D02*
X0195155Y0299594D01*
X0195155Y0300393D02*
X0207155Y0300393D01*
X0207155Y0301191D02*
X0195155Y0301191D01*
X0195155Y0301990D02*
X0207155Y0301990D01*
X0207155Y0302788D02*
X0195155Y0302788D01*
X0195155Y0303587D02*
X0207155Y0303587D01*
X0207155Y0304385D02*
X0195155Y0304385D01*
X0195155Y0305184D02*
X0198077Y0305184D01*
X0197887Y0305982D02*
X0195155Y0305982D01*
X0195155Y0306781D02*
X0197887Y0306781D01*
X0197887Y0307579D02*
X0195155Y0307579D01*
X0195025Y0312370D02*
X0197687Y0312370D01*
X0197687Y0313169D02*
X0194877Y0313169D01*
X0194707Y0313967D02*
X0197687Y0313967D01*
X0197687Y0314766D02*
X0194452Y0314766D01*
X0194171Y0315564D02*
X0197687Y0315564D01*
X0197687Y0316363D02*
X0193816Y0316363D01*
X0193402Y0317161D02*
X0197687Y0317161D01*
X0197320Y0317960D02*
X0192941Y0317960D01*
X0192929Y0317981D02*
X0192929Y0317981D01*
X0192364Y0318758D02*
X0197320Y0318758D01*
X0197320Y0319557D02*
X0191714Y0319557D01*
X0192072Y0319160D02*
X0192072Y0319160D01*
X0191097Y0320242D02*
X0191097Y0320242D01*
X0191097Y0320242D01*
X0190972Y0320355D02*
X0197320Y0320355D01*
X0197320Y0321154D02*
X0195287Y0321154D01*
X0200692Y0320160D02*
X0201479Y0319372D01*
X0203255Y0319372D01*
X0203255Y0316746D01*
X0201255Y0314746D01*
X0204824Y0314766D02*
X0207806Y0314766D01*
X0207569Y0313967D02*
X0204824Y0313967D01*
X0204824Y0313169D02*
X0207395Y0313169D01*
X0207285Y0312370D02*
X0204824Y0312370D01*
X0204901Y0315564D02*
X0208098Y0315564D01*
X0208463Y0316363D02*
X0205255Y0316363D01*
X0206755Y0319372D02*
X0203255Y0319372D01*
X0211136Y0324348D02*
X0219054Y0324348D01*
X0216250Y0323549D02*
X0216116Y0323549D01*
X0215979Y0323549D02*
X0211934Y0323549D01*
X0212733Y0322751D02*
X0214517Y0322751D01*
X0202053Y0333930D02*
X0293457Y0333930D01*
X0294255Y0334729D02*
X0201255Y0334729D01*
X0194792Y0331534D02*
X0179908Y0331534D01*
X0180312Y0332333D02*
X0193994Y0332333D01*
X0193195Y0333132D02*
X0180312Y0333132D01*
X0180312Y0333930D02*
X0192397Y0333930D01*
X0191598Y0334729D02*
X0180312Y0334729D01*
X0180312Y0335527D02*
X0190800Y0335527D01*
X0190001Y0336326D02*
X0180312Y0336326D01*
X0180312Y0337124D02*
X0189203Y0337124D01*
X0188404Y0337923D02*
X0180312Y0337923D01*
X0180312Y0338721D02*
X0187606Y0338721D01*
X0186807Y0339520D02*
X0179567Y0339520D01*
X0185767Y0323549D02*
X0189053Y0323549D01*
X0189053Y0322751D02*
X0187663Y0322751D01*
X0189003Y0321952D02*
X0189053Y0321952D01*
X0193915Y0350699D02*
X0201163Y0350699D01*
X0200774Y0351497D02*
X0194682Y0351497D01*
X0194682Y0352296D02*
X0200655Y0352296D01*
X0200732Y0353094D02*
X0194682Y0353094D01*
X0194682Y0353893D02*
X0201024Y0353893D01*
X0201662Y0354691D02*
X0194682Y0354691D01*
X0195950Y0355490D02*
X0203399Y0355490D01*
X0210279Y0352296D02*
X0210455Y0352296D01*
X0213755Y0352400D02*
X0224755Y0341400D01*
X0218421Y0358034D02*
X0191704Y0358034D01*
X0207723Y0371460D02*
X0210573Y0371460D01*
X0210455Y0372259D02*
X0207055Y0372259D01*
X0207055Y0373057D02*
X0210270Y0373057D01*
X0209471Y0373856D02*
X0206724Y0373856D01*
X0206168Y0374654D02*
X0208673Y0374654D01*
X0207874Y0375453D02*
X0205009Y0375453D01*
X0208522Y0370662D02*
X0210903Y0370662D01*
X0211625Y0369863D02*
X0209320Y0369863D01*
X0200001Y0389826D02*
X0184249Y0389826D01*
X0184171Y0390624D02*
X0199202Y0390624D01*
X0198404Y0391423D02*
X0196106Y0391423D01*
X0196905Y0392221D02*
X0197605Y0392221D01*
X0196255Y0394400D02*
X0196255Y0397069D01*
X0196255Y0394400D02*
X0195255Y0393400D01*
X0177255Y0393400D01*
X0176255Y0394400D01*
X0176255Y0398054D01*
X0172687Y0397811D02*
X0172255Y0397811D01*
X0172255Y0398609D02*
X0172687Y0398609D01*
X0172687Y0399408D02*
X0172255Y0399408D01*
X0172255Y0400206D02*
X0172687Y0400206D01*
X0172810Y0401005D02*
X0172255Y0401005D01*
X0172255Y0397012D02*
X0172687Y0397012D01*
X0172687Y0396214D02*
X0172255Y0396214D01*
X0172255Y0395415D02*
X0172687Y0395415D01*
X0172255Y0394617D02*
X0173295Y0394617D01*
X0174255Y0393818D02*
X0172255Y0393818D01*
X0172255Y0393020D02*
X0174807Y0393020D01*
X0175605Y0392221D02*
X0172255Y0392221D01*
X0172255Y0391423D02*
X0174444Y0391423D01*
X0173646Y0390624D02*
X0172255Y0390624D01*
X0172255Y0389826D02*
X0173568Y0389826D01*
X0173568Y0389027D02*
X0172255Y0389027D01*
X0172255Y0388229D02*
X0173568Y0388229D01*
X0173568Y0387430D02*
X0172255Y0387430D01*
X0172255Y0386632D02*
X0173568Y0386632D01*
X0173568Y0385833D02*
X0172255Y0385833D01*
X0172255Y0385035D02*
X0173568Y0385035D01*
X0173568Y0384236D02*
X0172255Y0384236D01*
X0172255Y0383438D02*
X0173840Y0383438D01*
X0179824Y0404199D02*
X0180387Y0404199D01*
X0179824Y0404998D02*
X0183355Y0404998D01*
X0180387Y0405796D02*
X0179824Y0405796D01*
X0179824Y0406595D02*
X0180387Y0406595D01*
X0180466Y0407393D02*
X0179824Y0407393D01*
X0179207Y0408192D02*
X0181203Y0408192D01*
X0176374Y0419371D02*
X0168255Y0419371D01*
X0168255Y0420169D02*
X0174639Y0420169D01*
X0173342Y0420968D02*
X0168255Y0420968D01*
X0168255Y0421766D02*
X0172292Y0421766D01*
X0171406Y0422565D02*
X0168255Y0422565D01*
X0168255Y0423363D02*
X0170687Y0423363D01*
X0170059Y0424162D02*
X0168255Y0424162D01*
X0168255Y0424960D02*
X0169500Y0424960D01*
X0169039Y0425759D02*
X0168255Y0425759D01*
X0168255Y0426557D02*
X0168641Y0426557D01*
X0168285Y0427356D02*
X0168255Y0427356D01*
X0168255Y0432147D02*
X0180855Y0432147D01*
X0180855Y0432945D02*
X0181655Y0432945D01*
X0181655Y0433744D02*
X0180855Y0433744D01*
X0180855Y0434542D02*
X0181655Y0434542D01*
X0181655Y0435341D02*
X0180855Y0435341D01*
X0180855Y0436139D02*
X0181655Y0436139D01*
X0181655Y0436938D02*
X0180855Y0436938D01*
X0180855Y0437737D02*
X0181655Y0437737D01*
X0181655Y0438535D02*
X0180855Y0438535D01*
X0180855Y0439334D02*
X0181655Y0439334D01*
X0181655Y0440132D02*
X0180855Y0440132D01*
X0180855Y0440931D02*
X0181655Y0440931D01*
X0181655Y0441729D02*
X0180855Y0441729D01*
X0180855Y0442528D02*
X0181655Y0442528D01*
X0181655Y0443326D02*
X0180855Y0443326D01*
X0180855Y0444125D02*
X0181655Y0444125D01*
X0192929Y0424819D02*
X0192929Y0424819D01*
X0267731Y0365376D02*
X0274355Y0365376D01*
X0271192Y0362676D02*
X0269024Y0362676D01*
X0266439Y0362676D02*
X0265776Y0362676D01*
X0268755Y0346400D02*
X0262102Y0346400D01*
X0265867Y0344311D02*
X0266755Y0344311D01*
X0266755Y0343512D02*
X0265610Y0343512D01*
X0266755Y0342714D02*
X0247897Y0342714D01*
X0249594Y0343512D02*
X0251900Y0343512D01*
X0251643Y0344311D02*
X0250893Y0344311D01*
X0255009Y0337923D02*
X0255809Y0337923D01*
X0255809Y0337124D02*
X0255009Y0337124D01*
X0255009Y0336326D02*
X0255809Y0336326D01*
X0255809Y0335527D02*
X0255009Y0335527D01*
X0262102Y0338400D02*
X0265755Y0338400D01*
X0268755Y0341400D01*
X0268755Y0346400D01*
X0288755Y0346400D01*
X0289680Y0347325D01*
X0300334Y0347325D01*
X0300409Y0347400D01*
X0300409Y0343900D01*
X0300409Y0347400D02*
X0300409Y0349900D01*
X0300409Y0351400D01*
X0296643Y0351497D02*
X0291680Y0351497D01*
X0291680Y0350699D02*
X0296643Y0350699D01*
X0296643Y0349900D02*
X0291680Y0349900D01*
X0291680Y0352296D02*
X0296643Y0352296D01*
X0296643Y0353094D02*
X0291680Y0353094D01*
X0291680Y0353893D02*
X0296643Y0353893D01*
X0297303Y0354691D02*
X0291680Y0354691D01*
X0291680Y0355490D02*
X0294127Y0355490D01*
X0292980Y0356288D02*
X0292680Y0356288D01*
X0292680Y0357087D02*
X0292980Y0357087D01*
X0292980Y0357885D02*
X0292680Y0357885D01*
X0292680Y0358684D02*
X0292980Y0358684D01*
X0292980Y0360281D02*
X0292680Y0360281D01*
X0292680Y0361079D02*
X0292980Y0361079D01*
X0292980Y0361878D02*
X0292680Y0361878D01*
X0292680Y0362676D02*
X0292980Y0362676D01*
X0294092Y0363475D02*
X0291680Y0363475D01*
X0291680Y0364273D02*
X0304055Y0364273D01*
X0304055Y0365072D02*
X0291680Y0365072D01*
X0291680Y0365870D02*
X0304055Y0365870D01*
X0304055Y0366669D02*
X0291680Y0366669D01*
X0291680Y0367468D02*
X0304055Y0367468D01*
X0304055Y0368266D02*
X0291680Y0368266D01*
X0291680Y0369065D02*
X0301790Y0369065D01*
X0300565Y0369863D02*
X0291680Y0369863D01*
X0291680Y0370662D02*
X0300033Y0370662D01*
X0299766Y0371460D02*
X0291680Y0371460D01*
X0291680Y0372259D02*
X0299766Y0372259D01*
X0299999Y0373057D02*
X0291680Y0373057D01*
X0291680Y0373856D02*
X0299587Y0373856D01*
X0298774Y0374654D02*
X0292161Y0374654D01*
X0292523Y0375453D02*
X0298412Y0375453D01*
X0298266Y0376251D02*
X0292669Y0376251D01*
X0292646Y0377050D02*
X0298289Y0377050D01*
X0298620Y0377848D02*
X0292316Y0377848D01*
X0291680Y0378647D02*
X0299275Y0378647D01*
X0301472Y0379445D02*
X0291680Y0379445D01*
X0291680Y0380244D02*
X0304055Y0380244D01*
X0304055Y0381042D02*
X0293226Y0381042D01*
X0294024Y0381841D02*
X0304055Y0381841D01*
X0304055Y0382639D02*
X0294823Y0382639D01*
X0294830Y0383438D02*
X0304055Y0383438D01*
X0304055Y0384236D02*
X0294830Y0384236D01*
X0294830Y0385035D02*
X0304055Y0385035D01*
X0304055Y0385833D02*
X0294830Y0385833D01*
X0294830Y0386632D02*
X0304055Y0386632D01*
X0304055Y0387430D02*
X0294830Y0387430D01*
X0294830Y0388229D02*
X0304055Y0388229D01*
X0304055Y0389027D02*
X0294830Y0389027D01*
X0295829Y0389826D02*
X0296129Y0389826D01*
X0296129Y0390624D02*
X0295829Y0390624D01*
X0295829Y0391423D02*
X0296129Y0391423D01*
X0296129Y0392221D02*
X0295829Y0392221D01*
X0295829Y0393020D02*
X0296129Y0393020D01*
X0296129Y0393818D02*
X0295829Y0393818D01*
X0295829Y0394617D02*
X0296129Y0394617D01*
X0296129Y0395415D02*
X0295829Y0395415D01*
X0295829Y0396214D02*
X0296129Y0396214D01*
X0296129Y0397012D02*
X0295829Y0397012D01*
X0292830Y0393300D02*
X0292830Y0383475D01*
X0291755Y0382400D01*
X0289755Y0382400D01*
X0288927Y0384400D02*
X0288583Y0384400D01*
X0288531Y0384453D01*
X0288531Y0389400D01*
X0289530Y0389400D01*
X0289530Y0393150D01*
X0289830Y0393150D01*
X0289830Y0389400D01*
X0290830Y0389400D01*
X0290830Y0384400D01*
X0288927Y0384400D01*
X0288531Y0385035D02*
X0290830Y0385035D01*
X0290830Y0385833D02*
X0288531Y0385833D01*
X0288531Y0386632D02*
X0290830Y0386632D01*
X0290830Y0387430D02*
X0288531Y0387430D01*
X0288531Y0388229D02*
X0290830Y0388229D01*
X0290830Y0389027D02*
X0288531Y0389027D01*
X0289530Y0389826D02*
X0289830Y0389826D01*
X0289830Y0390624D02*
X0289530Y0390624D01*
X0289530Y0391423D02*
X0289830Y0391423D01*
X0289830Y0392221D02*
X0289530Y0392221D01*
X0289530Y0393020D02*
X0289830Y0393020D01*
X0289830Y0393818D02*
X0289530Y0393818D01*
X0289530Y0394617D02*
X0289830Y0394617D01*
X0289830Y0395415D02*
X0289530Y0395415D01*
X0289530Y0396214D02*
X0289830Y0396214D01*
X0289830Y0397012D02*
X0289530Y0397012D01*
X0277031Y0398124D02*
X0277031Y0402900D01*
X0279131Y0407393D02*
X0280151Y0407393D01*
X0304979Y0393818D02*
X0305607Y0393818D01*
X0305277Y0393020D02*
X0304979Y0393020D01*
X0304979Y0392221D02*
X0305266Y0392221D01*
X0305425Y0391423D02*
X0304979Y0391423D01*
X0304979Y0390624D02*
X0305804Y0390624D01*
X0304695Y0389826D02*
X0304667Y0389826D01*
X0302830Y0377975D02*
X0301255Y0376400D01*
X0302830Y0377975D02*
X0308155Y0377975D01*
X0308155Y0374825D02*
X0312330Y0374825D01*
X0312330Y0405325D01*
X0312330Y0374825D02*
X0313755Y0373400D01*
X0313755Y0343900D01*
X0307102Y0343900D01*
X0305502Y0340318D02*
X0311755Y0340318D01*
X0311755Y0339520D02*
X0304703Y0339520D01*
X0303905Y0338721D02*
X0311755Y0338721D01*
X0311755Y0337923D02*
X0303106Y0337923D01*
X0302308Y0337124D02*
X0311755Y0337124D01*
X0311755Y0336326D02*
X0301509Y0336326D01*
X0300711Y0335527D02*
X0311755Y0335527D01*
X0311755Y0334729D02*
X0299912Y0334729D01*
X0299114Y0333930D02*
X0310957Y0333930D01*
X0310158Y0333132D02*
X0298315Y0333132D01*
X0297516Y0332333D02*
X0309360Y0332333D01*
X0308561Y0331534D02*
X0296718Y0331534D01*
X0295919Y0330736D02*
X0307763Y0330736D01*
X0306964Y0329937D02*
X0295121Y0329937D01*
X0295755Y0330572D02*
X0295755Y0330572D01*
X0293755Y0331400D02*
X0303755Y0341400D01*
X0303755Y0346260D01*
X0304895Y0347400D01*
X0309755Y0347400D01*
X0312255Y0349900D01*
X0312255Y0351400D01*
X0307102Y0351400D01*
X0310207Y0354691D02*
X0310255Y0354691D01*
X0310255Y0355490D02*
X0304131Y0355490D01*
X0303996Y0354691D02*
X0303514Y0354691D01*
X0304930Y0356288D02*
X0310255Y0356288D01*
X0310255Y0357087D02*
X0304979Y0357087D01*
X0304979Y0357885D02*
X0310255Y0357885D01*
X0310255Y0358684D02*
X0304979Y0358684D01*
X0304979Y0359482D02*
X0310255Y0359482D01*
X0310255Y0360281D02*
X0304979Y0360281D01*
X0304979Y0361079D02*
X0310255Y0361079D01*
X0310255Y0361878D02*
X0304979Y0361878D01*
X0304965Y0362676D02*
X0304992Y0362676D01*
X0304194Y0363475D02*
X0304166Y0363475D01*
X0304055Y0369065D02*
X0303720Y0369065D01*
X0302979Y0371676D02*
X0302755Y0371900D01*
X0302979Y0371676D02*
X0308155Y0371676D01*
X0311479Y0371676D01*
X0312255Y0370900D01*
X0312255Y0351400D01*
X0313755Y0343900D02*
X0313755Y0333900D01*
X0306255Y0326400D01*
X0301255Y0326400D01*
X0306166Y0329139D02*
X0263255Y0329139D01*
X0266260Y0323549D02*
X0266394Y0323549D01*
X0256250Y0323549D02*
X0256116Y0323549D01*
X0265625Y0335527D02*
X0295054Y0335527D01*
X0295852Y0336326D02*
X0265867Y0336326D01*
X0267308Y0337124D02*
X0296651Y0337124D01*
X0297449Y0337923D02*
X0268106Y0337923D01*
X0268905Y0338721D02*
X0298248Y0338721D01*
X0299046Y0339520D02*
X0269703Y0339520D01*
X0270502Y0340318D02*
X0299845Y0340318D01*
X0296795Y0341117D02*
X0270755Y0341117D01*
X0270755Y0341915D02*
X0296643Y0341915D01*
X0296643Y0342714D02*
X0270755Y0342714D01*
X0270755Y0343512D02*
X0296643Y0343512D01*
X0296643Y0344311D02*
X0270755Y0344311D01*
X0266442Y0341915D02*
X0264983Y0341915D01*
X0289680Y0347325D02*
X0289680Y0359500D01*
X0289680Y0366400D01*
X0290293Y0345109D02*
X0296643Y0345109D01*
X0310715Y0341117D02*
X0311755Y0341117D01*
D31*
X0230255Y0417600D03*
D32*
X0231255Y0412400D03*
X0200755Y0409900D03*
X0193255Y0409900D03*
X0183755Y0409900D03*
X0181255Y0381400D03*
X0176255Y0366400D03*
X0197755Y0366400D03*
X0196255Y0376400D03*
X0208755Y0354900D03*
X0226255Y0347400D03*
X0234255Y0334400D03*
X0248755Y0346400D03*
X0250755Y0357900D03*
X0267731Y0365376D03*
X0281255Y0366400D03*
X0289680Y0376400D03*
X0281255Y0386400D03*
X0290755Y0398400D03*
X0296255Y0411400D03*
X0306255Y0411400D03*
X0308255Y0392400D03*
X0301255Y0386400D03*
X0301255Y0376400D03*
X0302755Y0371900D03*
X0301255Y0366400D03*
X0268755Y0396400D03*
X0250055Y0380200D03*
X0243755Y0376400D03*
X0221255Y0381400D03*
X0281255Y0301400D03*
M02*
