G75*
%MOIN*%
%OFA0B0*%
%FSLAX25Y25*%
%IPPOS*%
%LPD*%
%AMOC8*
5,1,8,0,0,1.08239X$1,22.5*
%
%ADD10R,0.04331X0.03937*%
%ADD11C,0.01181*%
%ADD12C,0.01772*%
%ADD13R,0.02200X0.05000*%
%ADD14R,0.05000X0.02200*%
%ADD15R,0.05512X0.07087*%
%ADD16R,0.07480X0.05512*%
%ADD17R,0.05906X0.03150*%
%ADD18R,0.03937X0.04331*%
%ADD19R,0.01476X0.02362*%
%ADD20C,0.00197*%
%ADD21R,0.06693X0.16535*%
%ADD22R,0.03268X0.02480*%
%ADD23R,0.03543X0.03150*%
D10*
X0255409Y0338400D03*
X0262102Y0338400D03*
X0262102Y0346400D03*
X0255409Y0346400D03*
X0255409Y0353900D03*
X0262102Y0353900D03*
X0262102Y0376400D03*
X0255409Y0376400D03*
X0255409Y0383900D03*
X0262102Y0383900D03*
X0262102Y0391400D03*
X0255409Y0391400D03*
X0300409Y0351400D03*
X0307102Y0351400D03*
X0307102Y0343900D03*
X0300409Y0343900D03*
D11*
X0263586Y0360022D02*
X0263586Y0362778D01*
X0263586Y0360022D02*
X0260830Y0360022D01*
X0260830Y0362778D01*
X0263586Y0362778D01*
X0263586Y0361144D02*
X0260830Y0361144D01*
X0260830Y0362266D02*
X0263586Y0362266D01*
X0256680Y0362778D02*
X0256680Y0360022D01*
X0253924Y0360022D01*
X0253924Y0362778D01*
X0256680Y0362778D01*
X0256680Y0361144D02*
X0253924Y0361144D01*
X0253924Y0362266D02*
X0256680Y0362266D01*
X0253924Y0397522D02*
X0253924Y0400278D01*
X0256680Y0400278D01*
X0256680Y0397522D01*
X0253924Y0397522D01*
X0253924Y0398644D02*
X0256680Y0398644D01*
X0256680Y0399766D02*
X0253924Y0399766D01*
X0260830Y0400278D02*
X0260830Y0397522D01*
X0260830Y0400278D02*
X0263586Y0400278D01*
X0263586Y0397522D01*
X0260830Y0397522D01*
X0260830Y0398644D02*
X0263586Y0398644D01*
X0263586Y0399766D02*
X0260830Y0399766D01*
D12*
X0277031Y0400036D02*
X0277031Y0405764D01*
X0281755Y0405764D02*
X0281755Y0400036D01*
X0286479Y0400036D02*
X0286479Y0405764D01*
D13*
X0286531Y0393300D03*
X0289680Y0393300D03*
X0292830Y0393300D03*
X0295979Y0393300D03*
X0299129Y0393300D03*
X0302279Y0393300D03*
X0283381Y0393300D03*
X0280231Y0393300D03*
X0280231Y0359500D03*
X0283381Y0359500D03*
X0286531Y0359500D03*
X0289680Y0359500D03*
X0292830Y0359500D03*
X0295979Y0359500D03*
X0299129Y0359500D03*
X0302279Y0359500D03*
D14*
X0308155Y0365376D03*
X0308155Y0368526D03*
X0308155Y0371676D03*
X0308155Y0374825D03*
X0308155Y0377975D03*
X0308155Y0381124D03*
X0308155Y0384274D03*
X0308155Y0387424D03*
X0274355Y0387424D03*
X0274355Y0384274D03*
X0274355Y0381124D03*
X0274355Y0377975D03*
X0274355Y0374825D03*
X0274355Y0371676D03*
X0274355Y0368526D03*
X0274355Y0365376D03*
D15*
X0230680Y0358388D03*
X0230680Y0380829D03*
D16*
X0178909Y0387128D03*
X0174972Y0335357D03*
D17*
X0190129Y0353703D03*
X0191704Y0358034D03*
X0190129Y0362365D03*
X0189342Y0366695D03*
X0190129Y0371026D03*
X0189342Y0375357D03*
X0190129Y0379687D03*
X0190129Y0384018D03*
D18*
X0201255Y0308054D03*
X0201255Y0314746D03*
X0208755Y0398054D03*
X0208755Y0404746D03*
X0216255Y0404746D03*
X0216255Y0398054D03*
X0223755Y0398054D03*
X0223755Y0404746D03*
X0236255Y0413054D03*
X0236255Y0419746D03*
X0183755Y0404746D03*
X0183755Y0398054D03*
X0176255Y0398054D03*
X0176255Y0404746D03*
D19*
X0189956Y0405731D03*
X0193105Y0405731D03*
X0196255Y0405731D03*
X0199405Y0405731D03*
X0202554Y0405731D03*
X0202554Y0397069D03*
X0199405Y0397069D03*
X0196255Y0397069D03*
X0193105Y0397069D03*
X0189956Y0397069D03*
D20*
X0230704Y0397502D02*
X0240153Y0406951D01*
X0230704Y0406951D01*
X0230704Y0397502D01*
X0230704Y0397597D02*
X0230799Y0397597D01*
X0230704Y0397793D02*
X0230994Y0397793D01*
X0231190Y0397988D02*
X0230704Y0397988D01*
X0230704Y0398183D02*
X0231385Y0398183D01*
X0231580Y0398379D02*
X0230704Y0398379D01*
X0230704Y0398574D02*
X0231776Y0398574D01*
X0231971Y0398770D02*
X0230704Y0398770D01*
X0230704Y0398965D02*
X0232166Y0398965D01*
X0232362Y0399160D02*
X0230704Y0399160D01*
X0230704Y0399356D02*
X0232557Y0399356D01*
X0232753Y0399551D02*
X0230704Y0399551D01*
X0230704Y0399746D02*
X0232948Y0399746D01*
X0233143Y0399942D02*
X0230704Y0399942D01*
X0230704Y0400137D02*
X0233339Y0400137D01*
X0233534Y0400332D02*
X0230704Y0400332D01*
X0230704Y0400528D02*
X0233729Y0400528D01*
X0233925Y0400723D02*
X0230704Y0400723D01*
X0230704Y0400919D02*
X0234120Y0400919D01*
X0234315Y0401114D02*
X0230704Y0401114D01*
X0230704Y0401309D02*
X0234511Y0401309D01*
X0234706Y0401505D02*
X0230704Y0401505D01*
X0230704Y0401700D02*
X0234901Y0401700D01*
X0235097Y0401895D02*
X0230704Y0401895D01*
X0230704Y0402091D02*
X0235292Y0402091D01*
X0235488Y0402286D02*
X0230704Y0402286D01*
X0230704Y0402481D02*
X0235683Y0402481D01*
X0235878Y0402677D02*
X0230704Y0402677D01*
X0230704Y0402872D02*
X0236074Y0402872D01*
X0236269Y0403067D02*
X0230704Y0403067D01*
X0230704Y0403263D02*
X0236464Y0403263D01*
X0236660Y0403458D02*
X0230704Y0403458D01*
X0230704Y0403654D02*
X0236855Y0403654D01*
X0237050Y0403849D02*
X0230704Y0403849D01*
X0230704Y0404044D02*
X0237246Y0404044D01*
X0237441Y0404240D02*
X0230704Y0404240D01*
X0230704Y0404435D02*
X0237637Y0404435D01*
X0237832Y0404630D02*
X0230704Y0404630D01*
X0230704Y0404826D02*
X0238027Y0404826D01*
X0238223Y0405021D02*
X0230704Y0405021D01*
X0230704Y0405216D02*
X0238418Y0405216D01*
X0238613Y0405412D02*
X0230704Y0405412D01*
X0230704Y0405607D02*
X0238809Y0405607D01*
X0239004Y0405803D02*
X0230704Y0405803D01*
X0230704Y0405998D02*
X0239199Y0405998D01*
X0239395Y0406193D02*
X0230704Y0406193D01*
X0230704Y0406389D02*
X0239590Y0406389D01*
X0239786Y0406584D02*
X0230704Y0406584D01*
X0230704Y0406779D02*
X0239981Y0406779D01*
D21*
X0248539Y0398762D03*
D22*
X0206755Y0328428D03*
X0206755Y0319372D03*
X0241255Y0315928D03*
X0241255Y0306872D03*
X0281255Y0306872D03*
X0281255Y0315928D03*
D23*
X0200692Y0320160D03*
X0200692Y0327640D03*
X0192424Y0323900D03*
M02*
