G75*
%MOIN*%
%OFA0B0*%
%FSLAX25Y25*%
%IPPOS*%
%LPD*%
%AMOC8*
5,1,8,0,0,1.08239X$1,22.5*
%
%ADD10C,0.00800*%
%ADD11R,0.10748X0.00118*%
%ADD12R,0.11457X0.00118*%
%ADD13R,0.11929X0.00079*%
%ADD14R,0.12402X0.00157*%
%ADD15R,0.12638X0.00118*%
%ADD16R,0.12874X0.00118*%
%ADD17R,0.13110X0.00079*%
%ADD18R,0.04961X0.00118*%
%ADD19R,0.03071X0.00118*%
%ADD20R,0.05079X0.00118*%
%ADD21R,0.02244X0.00157*%
%ADD22R,0.00945X0.00157*%
%ADD23R,0.01181X0.00157*%
%ADD24R,0.00472X0.00157*%
%ADD25R,0.02835X0.00157*%
%ADD26R,0.02244X0.00118*%
%ADD27R,0.00591X0.00118*%
%ADD28R,0.00945X0.00118*%
%ADD29R,0.00354X0.00118*%
%ADD30R,0.02598X0.00118*%
%ADD31R,0.02362X0.00118*%
%ADD32R,0.00472X0.00118*%
%ADD33R,0.00827X0.00118*%
%ADD34R,0.02480X0.00118*%
%ADD35R,0.02480X0.00157*%
%ADD36R,0.00236X0.00157*%
%ADD37R,0.00709X0.00157*%
%ADD38R,0.00354X0.00157*%
%ADD39R,0.00709X0.00118*%
%ADD40R,0.00236X0.00118*%
%ADD41R,0.02598X0.00157*%
%ADD42R,0.00591X0.00157*%
%ADD43R,0.00118X0.00157*%
%ADD44R,0.02717X0.00118*%
%ADD45R,0.02835X0.00118*%
%ADD46R,0.00827X0.00157*%
%ADD47R,0.01299X0.00118*%
%ADD48R,0.01654X0.00118*%
%ADD49R,0.01063X0.00118*%
%ADD50R,0.01063X0.00157*%
%ADD51R,0.01181X0.00118*%
%ADD52R,0.02126X0.00118*%
%ADD53R,0.02126X0.00157*%
%ADD54R,0.01417X0.00118*%
%ADD55R,0.13110X0.00118*%
%ADD56R,0.12402X0.00118*%
%ADD57R,0.11929X0.00118*%
%ADD58R,0.12165X0.00118*%
%ADD59R,0.12638X0.00079*%
%ADD60R,0.13110X0.00157*%
%ADD61R,0.13346X0.00118*%
%ADD62R,0.13583X0.00118*%
%ADD63R,0.13819X0.00079*%
%ADD64R,0.10630X0.00118*%
%ADD65R,0.02008X0.00118*%
%ADD66R,0.02362X0.00157*%
%ADD67R,0.03425X0.00118*%
%ADD68R,0.01535X0.00118*%
%ADD69R,0.03543X0.00118*%
%ADD70R,0.01535X0.00157*%
%ADD71R,0.01299X0.00157*%
%ADD72R,0.03543X0.00157*%
%ADD73R,0.01772X0.00118*%
%ADD74R,0.02717X0.00157*%
%ADD75R,0.02953X0.00118*%
%ADD76R,0.03189X0.00118*%
%ADD77R,0.03661X0.00118*%
%ADD78R,0.03898X0.00157*%
%ADD79R,0.03425X0.00157*%
%ADD80R,0.03307X0.00118*%
%ADD81R,0.01417X0.00157*%
%ADD82R,0.01654X0.00157*%
%ADD83R,0.03189X0.00157*%
%ADD84R,0.13819X0.00118*%
%ADD85C,0.00300*%
%ADD86C,0.01114*%
%ADD87R,0.12756X0.00157*%
%ADD88R,0.13701X0.00157*%
%ADD89R,0.14331X0.00157*%
%ADD90R,0.14961X0.00157*%
%ADD91R,0.15276X0.00157*%
%ADD92R,0.15591X0.00157*%
%ADD93R,0.15906X0.00157*%
%ADD94R,0.03780X0.00157*%
%ADD95R,0.07087X0.00157*%
%ADD96R,0.03465X0.00157*%
%ADD97R,0.01102X0.00157*%
%ADD98R,0.03307X0.00157*%
%ADD99R,0.00787X0.00157*%
%ADD100R,0.00630X0.00157*%
%ADD101R,0.02047X0.00157*%
%ADD102R,0.03150X0.00157*%
%ADD103R,0.01890X0.00157*%
%ADD104R,0.00315X0.00157*%
%ADD105R,0.01732X0.00157*%
%ADD106R,0.01575X0.00157*%
%ADD107R,0.01260X0.00157*%
%ADD108R,0.04409X0.00157*%
%ADD109R,0.03622X0.00157*%
%ADD110R,0.02205X0.00157*%
%ADD111R,0.05039X0.00157*%
%ADD112R,0.00157X0.00157*%
%ADD113R,0.02992X0.00157*%
%ADD114R,0.02520X0.00157*%
%ADD115R,0.14646X0.00157*%
%ADD116R,0.16220X0.00157*%
%ADD117R,0.16535X0.00157*%
%ADD118R,0.16850X0.00157*%
%ADD119R,0.04252X0.00157*%
%ADD120R,0.11969X0.00157*%
%ADD121R,0.04094X0.00157*%
%ADD122R,0.03937X0.00157*%
%ADD123R,0.13071X0.00157*%
%ADD124R,0.14016X0.00157*%
%ADD125R,0.04567X0.00157*%
%ADD126R,0.02677X0.00157*%
%ADD127R,0.04882X0.00157*%
%ADD128R,0.05354X0.00157*%
%ADD129R,0.12126X0.00157*%
%ADD130R,0.05197X0.00157*%
%ADD131R,0.00197X0.00079*%
%ADD132R,0.00315X0.00079*%
%ADD133R,0.00984X0.00079*%
%ADD134R,0.01102X0.00118*%
%ADD135R,0.01181X0.00079*%
%ADD136R,0.01142X0.00118*%
%ADD137R,0.01929X0.00118*%
%ADD138R,0.02047X0.00079*%
%ADD139R,0.02047X0.00118*%
%ADD140R,0.02992X0.00079*%
%ADD141R,0.00394X0.00118*%
%ADD142R,0.02992X0.00118*%
%ADD143R,0.04094X0.00079*%
%ADD144R,0.04055X0.00118*%
%ADD145R,0.00591X0.00079*%
%ADD146R,0.03976X0.00079*%
%ADD147R,0.05236X0.00079*%
%ADD148R,0.05276X0.00118*%
%ADD149R,0.00472X0.00079*%
%ADD150R,0.05276X0.00079*%
%ADD151R,0.06142X0.00118*%
%ADD152R,0.05906X0.00079*%
%ADD153R,0.05827X0.00118*%
%ADD154R,0.06811X0.00079*%
%ADD155R,0.06732X0.00118*%
%ADD156R,0.06614X0.00079*%
%ADD157R,0.06693X0.00118*%
%ADD158R,0.06299X0.00079*%
%ADD159R,0.06417X0.00118*%
%ADD160R,0.06732X0.00079*%
%ADD161R,0.06299X0.00118*%
%ADD162R,0.06417X0.00079*%
%ADD163R,0.06220X0.00118*%
%ADD164R,0.05866X0.00079*%
%ADD165R,0.05630X0.00118*%
%ADD166R,0.05433X0.00079*%
%ADD167R,0.05354X0.00118*%
%ADD168R,0.05039X0.00079*%
%ADD169R,0.04843X0.00118*%
%ADD170R,0.04764X0.00079*%
%ADD171R,0.04449X0.00118*%
%ADD172R,0.00787X0.00118*%
%ADD173R,0.04173X0.00079*%
%ADD174R,0.01260X0.00079*%
%ADD175R,0.04173X0.00118*%
%ADD176R,0.01732X0.00118*%
%ADD177R,0.03819X0.00079*%
%ADD178R,0.01929X0.00079*%
%ADD179R,0.03701X0.00118*%
%ADD180R,0.02323X0.00118*%
%ADD181R,0.03583X0.00079*%
%ADD182R,0.02520X0.00079*%
%ADD183R,0.03425X0.00079*%
%ADD184R,0.02913X0.00079*%
%ADD185R,0.03228X0.00079*%
%ADD186R,0.03110X0.00079*%
%ADD187R,0.00276X0.00118*%
%ADD188R,0.03110X0.00118*%
%ADD189R,0.00276X0.00079*%
%ADD190R,0.03031X0.00079*%
%ADD191R,0.03504X0.00079*%
%ADD192R,0.02913X0.00118*%
%ADD193R,0.03583X0.00118*%
%ADD194R,0.00394X0.00079*%
%ADD195R,0.02835X0.00079*%
%ADD196R,0.03701X0.00079*%
%ADD197R,0.03465X0.00118*%
%ADD198R,0.04094X0.00118*%
%ADD199R,0.02638X0.00079*%
%ADD200R,0.04291X0.00079*%
%ADD201R,0.02520X0.00118*%
%ADD202R,0.04370X0.00118*%
%ADD203R,0.05354X0.00079*%
%ADD204R,0.04961X0.00079*%
%ADD205R,0.02362X0.00079*%
%ADD206R,0.05945X0.00079*%
%ADD207R,0.05118X0.00079*%
%ADD208R,0.00669X0.00118*%
%ADD209R,0.06614X0.00118*%
%ADD210R,0.05433X0.00118*%
%ADD211R,0.00669X0.00079*%
%ADD212R,0.09331X0.00079*%
%ADD213R,0.05551X0.00079*%
%ADD214R,0.00748X0.00118*%
%ADD215R,0.09528X0.00118*%
%ADD216R,0.05669X0.00118*%
%ADD217R,0.00748X0.00079*%
%ADD218R,0.09724X0.00079*%
%ADD219R,0.06024X0.00079*%
%ADD220R,0.00866X0.00118*%
%ADD221R,0.09724X0.00118*%
%ADD222R,0.10000X0.00079*%
%ADD223R,0.01142X0.00079*%
%ADD224R,0.10039X0.00079*%
%ADD225R,0.10000X0.00118*%
%ADD226R,0.05157X0.00118*%
%ADD227R,0.10276X0.00079*%
%ADD228R,0.01260X0.00118*%
%ADD229R,0.10394X0.00118*%
%ADD230R,0.05236X0.00118*%
%ADD231R,0.05157X0.00079*%
%ADD232R,0.01339X0.00118*%
%ADD233R,0.05551X0.00118*%
%ADD234R,0.01457X0.00079*%
%ADD235R,0.05827X0.00079*%
%ADD236R,0.01575X0.00118*%
%ADD237R,0.02441X0.00118*%
%ADD238R,0.03504X0.00118*%
%ADD239R,0.05866X0.00118*%
%ADD240R,0.01772X0.00079*%
%ADD241R,0.02717X0.00079*%
%ADD242R,0.02323X0.00079*%
%ADD243R,0.03780X0.00079*%
%ADD244R,0.01850X0.00118*%
%ADD245R,0.02638X0.00118*%
%ADD246R,0.00315X0.00118*%
%ADD247R,0.06496X0.00118*%
%ADD248R,0.01969X0.00079*%
%ADD249R,0.02441X0.00079*%
%ADD250R,0.01850X0.00079*%
%ADD251R,0.03858X0.00079*%
%ADD252R,0.06693X0.00079*%
%ADD253R,0.02165X0.00118*%
%ADD254R,0.07205X0.00118*%
%ADD255R,0.04921X0.00079*%
%ADD256R,0.04409X0.00079*%
%ADD257R,0.00984X0.00118*%
%ADD258R,0.04488X0.00118*%
%ADD259R,0.02795X0.00079*%
%ADD260R,0.01378X0.00079*%
%ADD261R,0.00866X0.00079*%
%ADD262R,0.04685X0.00079*%
%ADD263R,0.00906X0.00118*%
%ADD264R,0.04567X0.00118*%
%ADD265R,0.00945X0.00079*%
%ADD266R,0.00787X0.00079*%
%ADD267R,0.04449X0.00079*%
%ADD268R,0.01811X0.00079*%
%ADD269R,0.04882X0.00079*%
%ADD270R,0.00906X0.00079*%
%ADD271R,0.04370X0.00079*%
%ADD272R,0.05039X0.00118*%
%ADD273R,0.01535X0.00079*%
%ADD274R,0.04055X0.00079*%
%ADD275R,0.03228X0.00118*%
%ADD276R,0.03780X0.00118*%
%ADD277R,0.03386X0.00079*%
%ADD278R,0.01969X0.00118*%
%ADD279R,0.03622X0.00079*%
%ADD280R,0.01457X0.00118*%
%ADD281R,0.08937X0.00079*%
%ADD282R,0.09134X0.00118*%
%ADD283R,0.09252X0.00079*%
%ADD284R,0.02126X0.00079*%
%ADD285R,0.01654X0.00079*%
%ADD286R,0.09843X0.00118*%
%ADD287R,0.09921X0.00079*%
%ADD288R,0.00079X0.00079*%
%ADD289R,0.10512X0.00118*%
%ADD290R,0.03031X0.00118*%
%ADD291R,0.04685X0.00118*%
%ADD292R,0.14488X0.00079*%
%ADD293R,0.06142X0.00079*%
%ADD294R,0.00709X0.00079*%
%ADD295R,0.01496X0.00079*%
%ADD296R,0.14685X0.00079*%
%ADD297R,0.01496X0.00118*%
%ADD298R,0.16811X0.00118*%
%ADD299R,0.04646X0.00079*%
%ADD300R,0.16890X0.00079*%
%ADD301R,0.00512X0.00118*%
%ADD302R,0.17008X0.00118*%
%ADD303R,0.01299X0.00079*%
%ADD304R,0.17205X0.00079*%
%ADD305R,0.17323X0.00118*%
%ADD306R,0.17402X0.00079*%
%ADD307R,0.03622X0.00118*%
%ADD308R,0.17402X0.00118*%
%ADD309R,0.01378X0.00118*%
%ADD310R,0.03386X0.00118*%
%ADD311R,0.02008X0.00079*%
%ADD312R,0.03150X0.00079*%
%ADD313R,0.02205X0.00079*%
%ADD314R,0.03150X0.00118*%
%ADD315R,0.02756X0.00079*%
%ADD316R,0.02559X0.00079*%
%ADD317R,0.00197X0.00118*%
D10*
X0238794Y0307857D02*
X0238794Y0314943D01*
X0238794Y0318369D02*
X0243716Y0318369D01*
X0243716Y0314943D02*
X0243716Y0307857D01*
X0232255Y0333782D02*
X0232255Y0353073D01*
X0232255Y0363703D02*
X0232255Y0375514D01*
X0232255Y0386144D02*
X0232255Y0388900D01*
X0184617Y0388900D01*
X0187987Y0394313D02*
X0187987Y0397463D01*
X0187987Y0394313D02*
X0190428Y0394313D01*
X0187987Y0405337D02*
X0187987Y0408487D01*
X0190428Y0408487D01*
X0202082Y0408487D02*
X0204523Y0408487D01*
X0204523Y0405337D01*
X0204523Y0397463D02*
X0204523Y0394313D01*
X0202082Y0394313D01*
X0178712Y0382601D02*
X0178712Y0349530D01*
X0178707Y0349404D01*
X0178698Y0349279D01*
X0178685Y0349154D01*
X0178668Y0349030D01*
X0178648Y0348906D01*
X0178624Y0348783D01*
X0178596Y0348661D01*
X0178564Y0348540D01*
X0178528Y0348420D01*
X0178489Y0348301D01*
X0178446Y0348183D01*
X0178399Y0348067D01*
X0178349Y0347952D01*
X0178295Y0347838D01*
X0178237Y0347727D01*
X0178177Y0347617D01*
X0178112Y0347510D01*
X0178045Y0347404D01*
X0177974Y0347300D01*
X0177900Y0347199D01*
X0177823Y0347100D01*
X0177743Y0347003D01*
X0177660Y0346909D01*
X0177575Y0346818D01*
X0177486Y0346729D01*
X0177395Y0346644D01*
X0177301Y0346561D01*
X0177204Y0346481D01*
X0177105Y0346404D01*
X0177004Y0346330D01*
X0176900Y0346259D01*
X0176794Y0346192D01*
X0176687Y0346127D01*
X0176577Y0346067D01*
X0176466Y0346009D01*
X0176352Y0345955D01*
X0176237Y0345905D01*
X0176121Y0345858D01*
X0176003Y0345815D01*
X0175884Y0345776D01*
X0175764Y0345740D01*
X0175643Y0345708D01*
X0175521Y0345680D01*
X0175398Y0345656D01*
X0175274Y0345636D01*
X0175150Y0345619D01*
X0175025Y0345606D01*
X0174900Y0345597D01*
X0174774Y0345592D01*
X0174775Y0345593D02*
X0174674Y0345599D01*
X0174574Y0345601D01*
X0174473Y0345599D01*
X0174373Y0345593D01*
X0174273Y0345583D01*
X0174173Y0345569D01*
X0174074Y0345551D01*
X0173976Y0345529D01*
X0173879Y0345504D01*
X0173782Y0345475D01*
X0173687Y0345442D01*
X0173594Y0345405D01*
X0173502Y0345364D01*
X0173411Y0345320D01*
X0173322Y0345273D01*
X0173236Y0345222D01*
X0173151Y0345168D01*
X0173068Y0345110D01*
X0172988Y0345050D01*
X0172911Y0344986D01*
X0172835Y0344919D01*
X0172763Y0344849D01*
X0172693Y0344777D01*
X0172626Y0344701D01*
X0172562Y0344624D01*
X0172502Y0344544D01*
X0172444Y0344461D01*
X0172390Y0344376D01*
X0172339Y0344290D01*
X0172292Y0344201D01*
X0172248Y0344110D01*
X0172207Y0344018D01*
X0172170Y0343925D01*
X0172137Y0343830D01*
X0172108Y0343733D01*
X0172083Y0343636D01*
X0172061Y0343538D01*
X0172043Y0343439D01*
X0172029Y0343339D01*
X0172019Y0343239D01*
X0172013Y0343139D01*
X0172011Y0343038D01*
X0172013Y0342938D01*
X0172019Y0342837D01*
X0172019Y0339687D01*
X0180287Y0333782D02*
X0232255Y0333782D01*
X0209216Y0330869D02*
X0204294Y0330869D01*
X0204294Y0327443D02*
X0204294Y0320357D01*
X0209216Y0320357D02*
X0209216Y0327443D01*
X0197149Y0329412D02*
X0193999Y0329412D01*
X0193999Y0327050D01*
X0193999Y0320750D02*
X0193999Y0318388D01*
X0197149Y0318388D01*
X0252505Y0359525D02*
X0252505Y0363275D01*
X0277456Y0362601D02*
X0277456Y0390199D01*
X0303657Y0390199D01*
X0305054Y0388802D01*
X0305054Y0362601D01*
X0277456Y0362601D01*
X0305155Y0390800D02*
X0305157Y0390849D01*
X0305163Y0390897D01*
X0305173Y0390945D01*
X0305187Y0390992D01*
X0305204Y0391038D01*
X0305225Y0391082D01*
X0305250Y0391124D01*
X0305278Y0391164D01*
X0305310Y0391202D01*
X0305344Y0391237D01*
X0305381Y0391269D01*
X0305420Y0391298D01*
X0305462Y0391324D01*
X0305506Y0391346D01*
X0305551Y0391364D01*
X0305598Y0391379D01*
X0305645Y0391390D01*
X0305694Y0391397D01*
X0305743Y0391400D01*
X0305792Y0391399D01*
X0305840Y0391394D01*
X0305889Y0391385D01*
X0305936Y0391372D01*
X0305982Y0391355D01*
X0306026Y0391335D01*
X0306069Y0391311D01*
X0306110Y0391284D01*
X0306148Y0391253D01*
X0306184Y0391220D01*
X0306216Y0391184D01*
X0306246Y0391145D01*
X0306273Y0391104D01*
X0306296Y0391060D01*
X0306315Y0391015D01*
X0306331Y0390969D01*
X0306343Y0390922D01*
X0306351Y0390873D01*
X0306355Y0390824D01*
X0306355Y0390776D01*
X0306351Y0390727D01*
X0306343Y0390678D01*
X0306331Y0390631D01*
X0306315Y0390585D01*
X0306296Y0390540D01*
X0306273Y0390496D01*
X0306246Y0390455D01*
X0306216Y0390416D01*
X0306184Y0390380D01*
X0306148Y0390347D01*
X0306110Y0390316D01*
X0306069Y0390289D01*
X0306026Y0390265D01*
X0305982Y0390245D01*
X0305936Y0390228D01*
X0305889Y0390215D01*
X0305840Y0390206D01*
X0305792Y0390201D01*
X0305743Y0390200D01*
X0305694Y0390203D01*
X0305645Y0390210D01*
X0305598Y0390221D01*
X0305551Y0390236D01*
X0305506Y0390254D01*
X0305462Y0390276D01*
X0305420Y0390302D01*
X0305381Y0390331D01*
X0305344Y0390363D01*
X0305310Y0390398D01*
X0305278Y0390436D01*
X0305250Y0390476D01*
X0305225Y0390518D01*
X0305204Y0390562D01*
X0305187Y0390608D01*
X0305173Y0390655D01*
X0305163Y0390703D01*
X0305157Y0390751D01*
X0305155Y0390800D01*
X0289122Y0400381D02*
X0289122Y0405499D01*
X0274358Y0405499D02*
X0274358Y0400381D01*
X0265005Y0400775D02*
X0265005Y0397025D01*
X0278794Y0318369D02*
X0283716Y0318369D01*
X0283716Y0314943D02*
X0283716Y0307857D01*
X0278794Y0307857D02*
X0278794Y0314943D01*
D11*
X0258737Y0402257D03*
X0258737Y0406943D03*
D12*
X0258737Y0406824D03*
X0258737Y0402376D03*
X0259109Y0369743D03*
X0259109Y0365057D03*
D13*
X0258737Y0406726D03*
D14*
X0258737Y0406608D03*
D15*
X0258737Y0406470D03*
X0258737Y0402691D03*
X0259109Y0365294D03*
D16*
X0258737Y0402809D03*
X0258737Y0406352D03*
D17*
X0258737Y0406254D03*
D18*
X0254544Y0406155D03*
X0284212Y0342128D03*
X0282755Y0340081D03*
D19*
X0258678Y0406155D03*
D20*
X0262871Y0406155D03*
D21*
X0253068Y0406017D03*
X0253068Y0403183D03*
D22*
X0255371Y0405072D03*
X0256316Y0406017D03*
X0256670Y0404128D03*
X0262221Y0405072D03*
X0262221Y0403183D03*
X0261751Y0414455D03*
X0263641Y0414455D03*
X0265058Y0414455D03*
X0265058Y0416502D03*
X0263641Y0417290D03*
X0260019Y0417132D03*
X0259074Y0415085D03*
X0259074Y0414928D03*
X0223368Y0414928D03*
X0185816Y0415243D03*
X0185816Y0415400D03*
X0185816Y0415557D03*
X0185816Y0415715D03*
X0183453Y0417290D03*
X0181564Y0416502D03*
X0180934Y0414613D03*
X0180934Y0414455D03*
X0177469Y0414455D03*
X0259641Y0368817D03*
X0271294Y0352187D03*
X0270507Y0350928D03*
X0270507Y0350770D03*
X0270507Y0350613D03*
X0273814Y0350613D03*
X0273814Y0350928D03*
X0277594Y0353132D03*
X0278224Y0349353D03*
X0284365Y0352187D03*
X0288932Y0350928D03*
X0288932Y0350613D03*
X0294287Y0349353D03*
X0297952Y0328345D03*
X0299527Y0328502D03*
X0297952Y0326298D03*
X0303306Y0325510D03*
X0263436Y0327715D03*
X0263436Y0327872D03*
X0262491Y0325668D03*
X0260759Y0328345D03*
X0258869Y0328345D03*
X0257452Y0328345D03*
X0257452Y0326298D03*
X0258869Y0325510D03*
X0219142Y0327872D03*
X0185041Y0328345D03*
X0181576Y0328345D03*
X0181576Y0328187D03*
X0180946Y0326298D03*
X0179057Y0325510D03*
X0176694Y0327085D03*
X0176694Y0327243D03*
X0176694Y0327400D03*
X0176694Y0327557D03*
X0299204Y0416790D03*
X0302983Y0413798D03*
X0304558Y0413955D03*
X0304558Y0416002D03*
D23*
X0260450Y0403183D03*
X0259505Y0406017D03*
X0257851Y0406017D03*
X0260350Y0366455D03*
D24*
X0262121Y0365983D03*
X0261058Y0368345D03*
X0256098Y0368817D03*
X0270743Y0349038D03*
X0285704Y0351085D03*
X0299448Y0327400D03*
X0299448Y0327243D03*
X0299605Y0326928D03*
X0299605Y0326770D03*
X0299605Y0326613D03*
X0303385Y0326298D03*
X0303385Y0326140D03*
X0303385Y0325668D03*
X0303385Y0328502D03*
X0303385Y0328975D03*
X0264932Y0327243D03*
X0263200Y0326928D03*
X0263042Y0326613D03*
X0263042Y0326455D03*
X0262885Y0326298D03*
X0259105Y0326298D03*
X0259105Y0326455D03*
X0259105Y0326140D03*
X0259105Y0325983D03*
X0259105Y0326770D03*
X0259105Y0326928D03*
X0259105Y0327085D03*
X0259105Y0327243D03*
X0223630Y0328817D03*
X0221268Y0327243D03*
X0221268Y0327085D03*
X0219063Y0328502D03*
X0218905Y0328817D03*
X0183230Y0328817D03*
X0183230Y0328660D03*
X0183230Y0328502D03*
X0183230Y0328345D03*
X0183230Y0328187D03*
X0183230Y0328030D03*
X0183230Y0327872D03*
X0183230Y0327715D03*
X0183230Y0327557D03*
X0183230Y0327400D03*
X0183230Y0327243D03*
X0183230Y0327085D03*
X0183230Y0326928D03*
X0183230Y0326770D03*
X0183230Y0326613D03*
X0183230Y0326455D03*
X0183230Y0326298D03*
X0183230Y0326140D03*
X0183230Y0325983D03*
X0183230Y0325825D03*
X0183230Y0325668D03*
X0181813Y0327557D03*
X0181813Y0327715D03*
X0180710Y0326928D03*
X0179135Y0326928D03*
X0179135Y0327085D03*
X0179135Y0327243D03*
X0179135Y0327400D03*
X0179135Y0327557D03*
X0179135Y0326770D03*
X0179135Y0326613D03*
X0179135Y0326455D03*
X0179135Y0326298D03*
X0179135Y0326140D03*
X0179135Y0325983D03*
X0179135Y0325825D03*
X0183230Y0328975D03*
X0183230Y0329132D03*
X0256788Y0404600D03*
X0257851Y0405072D03*
X0258678Y0404128D03*
X0259505Y0405072D03*
X0260804Y0406017D03*
X0263405Y0415557D03*
X0263405Y0415715D03*
X0263405Y0415872D03*
X0263405Y0416030D03*
X0263405Y0416345D03*
X0263405Y0416502D03*
X0263405Y0416660D03*
X0263405Y0416817D03*
X0259625Y0416502D03*
X0259468Y0416345D03*
X0259468Y0416187D03*
X0259310Y0415872D03*
X0257578Y0415557D03*
X0223605Y0413983D03*
X0223447Y0414298D03*
X0221242Y0415557D03*
X0221242Y0415715D03*
X0218880Y0413983D03*
X0183375Y0415243D03*
X0183375Y0415400D03*
X0183375Y0415557D03*
X0183375Y0415715D03*
X0183375Y0415872D03*
X0183375Y0416030D03*
X0183375Y0416187D03*
X0183375Y0416345D03*
X0183375Y0416502D03*
X0183375Y0416660D03*
X0183375Y0416817D03*
X0183375Y0416975D03*
X0181800Y0415872D03*
X0180698Y0415243D03*
X0180698Y0415085D03*
X0179280Y0415085D03*
X0179280Y0414928D03*
X0179280Y0414770D03*
X0179280Y0414613D03*
X0179280Y0414455D03*
X0179280Y0414298D03*
X0179280Y0414140D03*
X0179280Y0413983D03*
X0179280Y0413825D03*
X0179280Y0413668D03*
X0179280Y0415243D03*
X0179280Y0415400D03*
X0179280Y0415557D03*
X0179280Y0415715D03*
X0179280Y0415872D03*
X0179280Y0416030D03*
X0179280Y0416187D03*
X0179280Y0416345D03*
X0179280Y0416502D03*
X0179280Y0416660D03*
X0179280Y0416817D03*
X0179280Y0416975D03*
X0179280Y0417132D03*
X0299125Y0416632D03*
X0299125Y0416160D03*
X0299125Y0416002D03*
X0299125Y0413798D03*
X0299125Y0413325D03*
X0303062Y0414900D03*
X0303062Y0415057D03*
X0302905Y0415372D03*
X0302905Y0415530D03*
X0302905Y0415687D03*
D25*
X0300306Y0415530D03*
X0300306Y0415372D03*
X0300306Y0415215D03*
X0300306Y0415057D03*
X0300306Y0414900D03*
X0300306Y0414743D03*
X0300306Y0414585D03*
X0300306Y0414428D03*
X0294637Y0416947D03*
X0294479Y0416790D03*
X0294479Y0416632D03*
X0264111Y0406017D03*
X0264465Y0404128D03*
X0254035Y0417132D03*
X0254035Y0417290D03*
X0271609Y0351557D03*
X0271609Y0350140D03*
X0271609Y0349983D03*
X0274916Y0349983D03*
X0274916Y0351557D03*
X0280743Y0351557D03*
X0280743Y0351400D03*
X0280743Y0350140D03*
X0280743Y0349983D03*
X0293342Y0350140D03*
X0293342Y0350298D03*
X0293342Y0351400D03*
X0293342Y0351557D03*
X0302204Y0327872D03*
X0302204Y0327715D03*
X0302204Y0327557D03*
X0302204Y0327400D03*
X0302204Y0327243D03*
X0302204Y0327085D03*
X0302204Y0326928D03*
X0302204Y0326770D03*
X0307873Y0325353D03*
X0308031Y0325510D03*
X0308031Y0325668D03*
X0268476Y0325668D03*
X0268476Y0325510D03*
X0177954Y0328187D03*
X0184556Y0414613D03*
D26*
X0253068Y0405880D03*
X0253068Y0403320D03*
X0253186Y0403045D03*
X0264288Y0403045D03*
X0264524Y0403439D03*
X0264524Y0403517D03*
X0265251Y0368483D03*
X0256275Y0367735D03*
X0252968Y0366317D03*
X0277696Y0339215D03*
X0285964Y0338624D03*
D27*
X0287578Y0339884D03*
X0283877Y0338821D03*
X0279507Y0339884D03*
X0270846Y0342128D03*
X0270846Y0342325D03*
X0279979Y0346695D03*
X0262062Y0366317D03*
X0259582Y0368483D03*
X0259582Y0368601D03*
X0255212Y0366593D03*
X0256729Y0404462D03*
X0257792Y0405328D03*
X0256375Y0405880D03*
X0260745Y0404935D03*
X0260745Y0404817D03*
D28*
X0260568Y0403990D03*
X0260568Y0403872D03*
X0262221Y0403320D03*
X0262221Y0404935D03*
X0259505Y0405801D03*
X0259505Y0405880D03*
X0257851Y0405880D03*
X0257851Y0405801D03*
X0258678Y0403439D03*
X0258678Y0403320D03*
X0255371Y0404817D03*
X0255371Y0404935D03*
X0255371Y0405210D03*
X0255153Y0366790D03*
X0258578Y0366790D03*
X0258578Y0366672D03*
X0258460Y0365845D03*
X0261885Y0367065D03*
X0261885Y0367183D03*
D29*
X0260291Y0367262D03*
X0256157Y0368680D03*
X0255212Y0368207D03*
X0277263Y0346302D03*
X0260863Y0405683D03*
X0260863Y0405801D03*
X0260863Y0405880D03*
X0257792Y0404935D03*
X0256729Y0404935D03*
X0256729Y0404817D03*
X0256611Y0405407D03*
X0256493Y0405683D03*
D30*
X0256198Y0403439D03*
X0256198Y0403320D03*
X0252891Y0403990D03*
X0252891Y0404265D03*
X0252891Y0404383D03*
X0252891Y0404462D03*
X0252891Y0404738D03*
X0252891Y0404817D03*
X0252891Y0404935D03*
X0252891Y0405210D03*
X0264229Y0405880D03*
X0264347Y0405801D03*
X0264583Y0404462D03*
X0264465Y0403872D03*
X0252909Y0367735D03*
X0252909Y0367617D03*
X0253381Y0365845D03*
X0287519Y0339609D03*
D31*
X0274251Y0340278D03*
X0272794Y0341931D03*
X0272794Y0342128D03*
X0271141Y0338821D03*
X0253145Y0366120D03*
X0253027Y0366239D03*
X0252909Y0366593D03*
X0252909Y0368128D03*
X0253027Y0368483D03*
X0253009Y0403439D03*
X0253009Y0403517D03*
X0253009Y0405683D03*
X0253009Y0405801D03*
X0256079Y0403793D03*
D32*
X0256788Y0404738D03*
X0256434Y0405801D03*
X0257851Y0405210D03*
X0258678Y0403990D03*
X0258678Y0403872D03*
X0259505Y0404935D03*
X0259505Y0405210D03*
X0260804Y0405210D03*
X0260804Y0405328D03*
X0260804Y0405407D03*
X0260940Y0368680D03*
X0260940Y0368601D03*
X0261058Y0368483D03*
X0260350Y0367183D03*
X0262121Y0366239D03*
X0262121Y0366120D03*
X0278385Y0339884D03*
X0278385Y0335042D03*
X0293149Y0338428D03*
D33*
X0262062Y0365845D03*
X0261944Y0366790D03*
X0258519Y0366593D03*
X0255212Y0366672D03*
X0262162Y0403439D03*
X0262162Y0403517D03*
X0262162Y0404738D03*
X0262162Y0404817D03*
X0262162Y0405210D03*
X0260627Y0404383D03*
X0260627Y0404265D03*
X0259446Y0405683D03*
X0257792Y0405683D03*
X0256729Y0404265D03*
X0255312Y0404738D03*
D34*
X0256139Y0403517D03*
X0252950Y0403793D03*
X0252950Y0403872D03*
X0252950Y0405328D03*
X0252950Y0405407D03*
X0264406Y0405683D03*
X0264524Y0405407D03*
X0264524Y0405328D03*
X0264642Y0405210D03*
X0264642Y0404935D03*
X0264642Y0404817D03*
X0264642Y0404738D03*
X0264524Y0403793D03*
X0256157Y0368010D03*
X0253204Y0368680D03*
X0253086Y0368601D03*
X0252968Y0368207D03*
X0252850Y0368010D03*
X0252968Y0366672D03*
D35*
X0253204Y0365983D03*
X0252968Y0368345D03*
X0256157Y0367872D03*
X0256139Y0403655D03*
X0252950Y0403655D03*
X0252950Y0405545D03*
X0264524Y0405545D03*
X0264642Y0405072D03*
X0264524Y0403655D03*
D36*
X0259505Y0404600D03*
X0256552Y0405545D03*
X0260350Y0367400D03*
D37*
X0260940Y0368817D03*
X0258460Y0365983D03*
X0258678Y0403655D03*
X0259505Y0405545D03*
X0260686Y0404600D03*
X0262103Y0403655D03*
X0257851Y0405545D03*
D38*
X0256729Y0405072D03*
X0260863Y0405545D03*
X0256275Y0368345D03*
D39*
X0255271Y0368128D03*
X0258460Y0366317D03*
X0258460Y0366239D03*
X0258460Y0366120D03*
X0259641Y0368680D03*
X0262003Y0366672D03*
X0262003Y0366593D03*
X0282952Y0347483D03*
X0270511Y0338152D03*
X0262103Y0403793D03*
X0262103Y0405328D03*
X0260686Y0404738D03*
X0260686Y0404462D03*
X0259505Y0405328D03*
X0259505Y0405407D03*
X0257851Y0405407D03*
X0256788Y0404383D03*
X0255253Y0405328D03*
X0258678Y0403793D03*
X0258678Y0403517D03*
D40*
X0258678Y0404265D03*
X0258678Y0404383D03*
X0258678Y0404462D03*
X0259505Y0404738D03*
X0259505Y0404817D03*
X0257851Y0404817D03*
X0257851Y0404738D03*
X0256670Y0405210D03*
X0256670Y0405328D03*
X0256216Y0368601D03*
X0256216Y0368483D03*
X0260350Y0367538D03*
D41*
X0253263Y0368817D03*
X0252909Y0367872D03*
X0256198Y0403183D03*
X0252891Y0404128D03*
X0252891Y0404600D03*
X0252891Y0405072D03*
X0264583Y0404600D03*
D42*
X0260745Y0405072D03*
X0259464Y0368345D03*
X0262062Y0366455D03*
D43*
X0257792Y0404600D03*
D44*
X0264524Y0404383D03*
X0264524Y0403990D03*
X0252968Y0367538D03*
X0252968Y0366790D03*
X0272972Y0342522D03*
X0273759Y0340672D03*
X0278523Y0337168D03*
X0278523Y0336774D03*
X0282893Y0343191D03*
D45*
X0278976Y0335908D03*
X0293936Y0339018D03*
X0253499Y0368955D03*
X0256198Y0403045D03*
X0264465Y0404265D03*
D46*
X0260627Y0404128D03*
X0261944Y0366928D03*
X0258519Y0366455D03*
D47*
X0258755Y0367538D03*
X0260291Y0366317D03*
X0261708Y0367735D03*
X0256747Y0366120D03*
X0271672Y0337955D03*
X0271672Y0337758D03*
X0271672Y0337561D03*
X0258619Y0403045D03*
X0256611Y0403990D03*
D48*
X0256434Y0403872D03*
X0258932Y0368207D03*
X0258932Y0368128D03*
X0277794Y0340278D03*
X0277401Y0339412D03*
X0274684Y0340081D03*
D49*
X0278090Y0340081D03*
X0261826Y0367262D03*
X0258637Y0367065D03*
X0256865Y0367065D03*
X0256865Y0366790D03*
X0256865Y0366672D03*
X0256865Y0366593D03*
X0260509Y0403517D03*
X0260509Y0403793D03*
D50*
X0260509Y0403655D03*
X0258619Y0403183D03*
X0261826Y0367400D03*
X0258637Y0366928D03*
X0256865Y0366928D03*
X0256865Y0366455D03*
D51*
X0256806Y0366317D03*
X0256806Y0366239D03*
X0256806Y0367183D03*
X0256806Y0367262D03*
X0258696Y0367262D03*
X0258696Y0367183D03*
X0261767Y0367538D03*
X0261767Y0367617D03*
X0262221Y0403045D03*
X0260450Y0403320D03*
X0260450Y0403439D03*
D52*
X0264465Y0403320D03*
X0265310Y0368601D03*
X0271928Y0337168D03*
X0272007Y0335908D03*
D53*
X0265192Y0368817D03*
X0264465Y0403183D03*
D54*
X0260450Y0403045D03*
X0261649Y0368207D03*
X0261649Y0368128D03*
X0261649Y0368010D03*
X0260350Y0366239D03*
X0258814Y0367617D03*
X0258814Y0367735D03*
X0256688Y0367538D03*
X0256688Y0368128D03*
X0256688Y0368207D03*
D55*
X0259109Y0365412D03*
X0258737Y0402927D03*
D56*
X0258737Y0402612D03*
D57*
X0258737Y0402494D03*
D58*
X0259109Y0369624D03*
X0259109Y0365176D03*
D59*
X0259109Y0369526D03*
D60*
X0259109Y0369408D03*
D61*
X0259109Y0369270D03*
X0259109Y0365491D03*
D62*
X0259109Y0365609D03*
X0259109Y0369152D03*
D63*
X0259109Y0369054D03*
D64*
X0260822Y0368955D03*
D65*
X0265251Y0368680D03*
X0289074Y0338624D03*
D66*
X0293263Y0348565D03*
X0293578Y0349668D03*
X0293578Y0352030D03*
X0289956Y0351872D03*
X0283814Y0351872D03*
X0283814Y0351715D03*
X0283814Y0351557D03*
X0283814Y0352030D03*
X0277830Y0352030D03*
X0277830Y0351872D03*
X0277830Y0351715D03*
X0277830Y0351557D03*
X0277830Y0351400D03*
X0275153Y0352030D03*
X0275153Y0349510D03*
X0271846Y0349510D03*
X0265310Y0368345D03*
X0252909Y0366455D03*
X0258161Y0328187D03*
X0264932Y0325353D03*
X0298661Y0328187D03*
X0299920Y0329290D03*
X0223630Y0327085D03*
X0221268Y0329132D03*
X0221268Y0329290D03*
X0221242Y0413510D03*
X0221242Y0413668D03*
X0218880Y0415715D03*
X0257578Y0417447D03*
X0264350Y0414613D03*
X0302590Y0413010D03*
X0303850Y0414113D03*
D67*
X0264779Y0368207D03*
X0264779Y0368128D03*
X0264779Y0366672D03*
X0264779Y0366593D03*
X0273326Y0343191D03*
D68*
X0288838Y0338821D03*
X0260291Y0366120D03*
X0258873Y0368010D03*
D69*
X0264838Y0368010D03*
X0264838Y0367735D03*
X0264838Y0367617D03*
X0264838Y0367538D03*
X0264838Y0367262D03*
X0264838Y0367183D03*
X0264838Y0367065D03*
X0264838Y0366790D03*
D70*
X0258873Y0367872D03*
D71*
X0258755Y0367400D03*
X0256747Y0367400D03*
X0261708Y0367872D03*
D72*
X0264838Y0367872D03*
X0264838Y0367400D03*
X0264838Y0366928D03*
D73*
X0260291Y0365845D03*
X0256629Y0365845D03*
X0256511Y0367617D03*
D74*
X0252968Y0367400D03*
D75*
X0253086Y0367262D03*
X0278916Y0336105D03*
D76*
X0283523Y0339215D03*
X0264542Y0365845D03*
X0264661Y0366120D03*
X0253204Y0367183D03*
D77*
X0253440Y0367065D03*
D78*
X0253558Y0366928D03*
D79*
X0264779Y0366455D03*
D80*
X0264720Y0366317D03*
X0264720Y0366239D03*
X0283109Y0342916D03*
X0275117Y0337365D03*
D81*
X0278145Y0349510D03*
X0280822Y0352187D03*
X0287436Y0349825D03*
X0287436Y0349668D03*
X0289956Y0349353D03*
X0289956Y0352187D03*
X0272318Y0351243D03*
X0256688Y0365983D03*
X0260995Y0328030D03*
X0260995Y0326613D03*
X0258791Y0325353D03*
X0223000Y0326613D03*
X0221268Y0328187D03*
X0219378Y0327085D03*
X0219535Y0326770D03*
X0219535Y0326613D03*
X0185277Y0326770D03*
X0185277Y0326928D03*
X0185277Y0327872D03*
X0181340Y0328817D03*
X0181340Y0328975D03*
X0181183Y0325668D03*
X0177246Y0326613D03*
X0181170Y0413825D03*
X0181170Y0413983D03*
X0181328Y0417132D03*
X0185265Y0416187D03*
X0177233Y0416030D03*
X0177233Y0415872D03*
X0177233Y0414928D03*
X0219510Y0416187D03*
X0221242Y0414613D03*
X0223132Y0415715D03*
X0222975Y0416030D03*
X0222975Y0416187D03*
X0261515Y0416187D03*
X0261515Y0414770D03*
X0263720Y0417447D03*
X0300700Y0415845D03*
X0301810Y0326455D03*
D82*
X0260350Y0365983D03*
D83*
X0264661Y0365983D03*
D84*
X0259109Y0365727D03*
D85*
X0242818Y0335924D02*
X0242267Y0336199D01*
X0241913Y0336278D01*
X0241519Y0336278D01*
X0241086Y0336199D01*
X0240653Y0335963D01*
X0240298Y0335687D01*
X0240102Y0335372D01*
X0239983Y0335018D01*
X0239983Y0334703D01*
X0240062Y0334349D01*
X0240259Y0333994D01*
X0240535Y0333680D01*
X0240850Y0333325D01*
X0241125Y0333050D01*
X0241243Y0332735D01*
X0241243Y0332459D01*
X0241165Y0332223D01*
X0241007Y0332026D01*
X0240771Y0331869D01*
X0240456Y0331790D01*
X0240141Y0331790D01*
X0239944Y0331829D01*
X0239747Y0331908D01*
X0239511Y0332144D01*
X0239432Y0332262D01*
X0239393Y0332380D01*
X0239393Y0332538D01*
X0239432Y0332656D01*
X0239668Y0332892D01*
X0239787Y0332931D01*
X0239944Y0333010D01*
X0239983Y0333050D01*
X0239826Y0333128D01*
X0239353Y0333128D01*
X0239117Y0333089D01*
X0238920Y0333050D01*
X0238724Y0332971D01*
X0238566Y0332853D01*
X0238369Y0332695D01*
X0238133Y0332302D01*
X0238054Y0332026D01*
X0238015Y0331711D01*
X0238015Y0326317D01*
X0238212Y0326514D01*
X0238330Y0326711D01*
X0238527Y0326908D01*
X0238724Y0327144D01*
X0239196Y0327617D01*
X0239668Y0328168D01*
X0240062Y0328561D01*
X0240456Y0328798D01*
X0240692Y0328837D01*
X0241440Y0328837D01*
X0241913Y0328916D01*
X0242346Y0329034D01*
X0242739Y0329191D01*
X0243133Y0329428D01*
X0243448Y0329703D01*
X0243763Y0330018D01*
X0244039Y0330372D01*
X0244432Y0331081D01*
X0244629Y0331829D01*
X0244668Y0332498D01*
X0244550Y0333128D01*
X0244353Y0333719D01*
X0244078Y0334152D01*
X0243763Y0334506D01*
X0243448Y0334703D01*
X0243448Y0334349D01*
X0243409Y0334231D01*
X0243369Y0334152D01*
X0243251Y0334034D01*
X0243133Y0333994D01*
X0243015Y0333994D01*
X0242700Y0334073D01*
X0242542Y0334152D01*
X0242424Y0334231D01*
X0242267Y0334349D01*
X0242031Y0334585D01*
X0241873Y0334821D01*
X0241834Y0334979D01*
X0241834Y0335215D01*
X0241873Y0335333D01*
X0241913Y0335412D01*
X0241991Y0335530D01*
X0242149Y0335648D01*
X0242306Y0335727D01*
X0242503Y0335766D01*
X0242661Y0335806D01*
X0242897Y0335806D01*
X0242976Y0335766D01*
X0243015Y0335766D01*
X0242976Y0335806D01*
X0242818Y0335924D01*
X0242901Y0335803D02*
X0242978Y0335803D01*
X0242653Y0335803D02*
X0240448Y0335803D01*
X0240184Y0335505D02*
X0241975Y0335505D01*
X0241834Y0335206D02*
X0240046Y0335206D01*
X0239983Y0334908D02*
X0241852Y0334908D01*
X0242014Y0334609D02*
X0240004Y0334609D01*
X0240083Y0334311D02*
X0242317Y0334311D01*
X0242943Y0334012D02*
X0240249Y0334012D01*
X0240505Y0333714D02*
X0244355Y0333714D01*
X0244455Y0333415D02*
X0240769Y0333415D01*
X0241058Y0333117D02*
X0244552Y0333117D01*
X0244608Y0332818D02*
X0241212Y0332818D01*
X0241243Y0332520D02*
X0244664Y0332520D01*
X0244652Y0332221D02*
X0241163Y0332221D01*
X0240852Y0331923D02*
X0244635Y0331923D01*
X0244575Y0331624D02*
X0238015Y0331624D01*
X0238015Y0331326D02*
X0244497Y0331326D01*
X0244402Y0331027D02*
X0238015Y0331027D01*
X0238015Y0330729D02*
X0244237Y0330729D01*
X0244071Y0330430D02*
X0238015Y0330430D01*
X0238015Y0330132D02*
X0243851Y0330132D01*
X0243578Y0329833D02*
X0238015Y0329833D01*
X0238015Y0329535D02*
X0243256Y0329535D01*
X0242814Y0329236D02*
X0238015Y0329236D01*
X0238015Y0328938D02*
X0241993Y0328938D01*
X0240192Y0328639D02*
X0238015Y0328639D01*
X0238015Y0328341D02*
X0239841Y0328341D01*
X0239561Y0328042D02*
X0238015Y0328042D01*
X0238015Y0327744D02*
X0239305Y0327744D01*
X0239025Y0327445D02*
X0238015Y0327445D01*
X0238015Y0327147D02*
X0238726Y0327147D01*
X0238467Y0326848D02*
X0238015Y0326848D01*
X0238015Y0326550D02*
X0238233Y0326550D01*
X0238041Y0331923D02*
X0239732Y0331923D01*
X0239459Y0332221D02*
X0238110Y0332221D01*
X0238264Y0332520D02*
X0239393Y0332520D01*
X0239595Y0332818D02*
X0238523Y0332818D01*
X0239285Y0333117D02*
X0239849Y0333117D01*
X0240908Y0336102D02*
X0242461Y0336102D01*
X0243448Y0334609D02*
X0243598Y0334609D01*
X0243435Y0334311D02*
X0243937Y0334311D01*
X0244167Y0334012D02*
X0243187Y0334012D01*
D86*
X0186609Y0394510D03*
D87*
X0221242Y0412250D03*
X0221242Y0418550D03*
X0221268Y0330550D03*
X0221268Y0324250D03*
D88*
X0221268Y0324408D03*
X0221268Y0330392D03*
X0181183Y0330550D03*
X0181183Y0324250D03*
X0181328Y0412250D03*
X0181328Y0418550D03*
X0221242Y0418392D03*
X0221242Y0412408D03*
X0301015Y0412065D03*
X0301015Y0417735D03*
X0301495Y0330235D03*
X0301495Y0324565D03*
D89*
X0301495Y0324723D03*
X0301495Y0330077D03*
X0221268Y0330235D03*
X0221268Y0324565D03*
X0221242Y0412565D03*
X0221242Y0418235D03*
X0301015Y0417577D03*
X0301015Y0412223D03*
D90*
X0301015Y0412538D03*
X0301015Y0417262D03*
X0221242Y0418077D03*
X0221242Y0412723D03*
X0221268Y0330077D03*
X0221268Y0324723D03*
X0301495Y0325038D03*
X0301495Y0329762D03*
D91*
X0301495Y0329605D03*
X0301495Y0325195D03*
X0261468Y0324723D03*
X0261468Y0330077D03*
X0221268Y0329920D03*
X0221268Y0324880D03*
X0181183Y0324565D03*
X0181183Y0330235D03*
X0181328Y0412565D03*
X0181328Y0418235D03*
X0221242Y0417920D03*
X0221242Y0412880D03*
X0261042Y0412723D03*
X0261042Y0418077D03*
X0301015Y0417105D03*
X0301015Y0412695D03*
D92*
X0261042Y0412880D03*
X0261042Y0417920D03*
X0221242Y0417762D03*
X0221242Y0413038D03*
X0221268Y0329762D03*
X0221268Y0325038D03*
X0261468Y0324880D03*
X0261468Y0329920D03*
D93*
X0261468Y0329762D03*
X0261468Y0325038D03*
X0221268Y0325195D03*
X0221268Y0329605D03*
X0181183Y0330077D03*
X0181183Y0324723D03*
X0181328Y0412723D03*
X0181328Y0418077D03*
X0221242Y0417605D03*
X0221242Y0413195D03*
X0261042Y0413038D03*
X0261042Y0417762D03*
D94*
X0254035Y0416187D03*
X0254035Y0416030D03*
X0267420Y0413353D03*
X0268050Y0415400D03*
X0228093Y0414770D03*
X0227463Y0413353D03*
X0215022Y0413353D03*
X0214392Y0415400D03*
X0188335Y0413825D03*
X0188178Y0413668D03*
X0174477Y0413668D03*
X0174320Y0413825D03*
X0174332Y0329132D03*
X0174175Y0328975D03*
X0188033Y0329132D03*
X0188191Y0328975D03*
X0214417Y0328030D03*
X0215047Y0329447D03*
X0227488Y0329447D03*
X0228118Y0327400D03*
X0254460Y0327400D03*
X0255090Y0329447D03*
X0268476Y0326770D03*
X0268476Y0326613D03*
X0294960Y0327400D03*
X0295590Y0329447D03*
X0306920Y0412853D03*
X0307550Y0414900D03*
D95*
X0296763Y0412853D03*
X0221242Y0413353D03*
X0221268Y0329447D03*
X0305747Y0329447D03*
D96*
X0295275Y0329290D03*
X0294802Y0328187D03*
X0294802Y0328030D03*
X0294802Y0327872D03*
X0294802Y0327715D03*
X0295275Y0325510D03*
X0295432Y0325353D03*
X0268476Y0326298D03*
X0268476Y0326455D03*
X0254775Y0325510D03*
X0254302Y0327872D03*
X0254302Y0328030D03*
X0254302Y0328187D03*
X0228276Y0327872D03*
X0228276Y0327715D03*
X0228276Y0327243D03*
X0228276Y0327085D03*
X0227646Y0325353D03*
X0227803Y0329290D03*
X0214732Y0329290D03*
X0214260Y0328187D03*
X0214260Y0326770D03*
X0214890Y0325353D03*
X0188663Y0326613D03*
X0188505Y0326298D03*
X0188505Y0326140D03*
X0188348Y0325983D03*
X0188663Y0328187D03*
X0188505Y0328502D03*
X0174017Y0328817D03*
X0173860Y0328502D03*
X0173702Y0328187D03*
X0173702Y0328030D03*
X0173702Y0326770D03*
X0173702Y0326613D03*
X0173860Y0326298D03*
X0173860Y0326140D03*
X0174017Y0325983D03*
X0174005Y0414298D03*
X0173847Y0414613D03*
X0173847Y0416187D03*
X0174005Y0416502D03*
X0174005Y0416660D03*
X0174162Y0416817D03*
X0188493Y0416817D03*
X0188650Y0416660D03*
X0188650Y0416502D03*
X0188808Y0416187D03*
X0188808Y0416030D03*
X0188808Y0414770D03*
X0188808Y0414613D03*
X0188650Y0414298D03*
X0188493Y0413983D03*
X0214235Y0414928D03*
X0214235Y0415085D03*
X0214235Y0415557D03*
X0214235Y0415715D03*
X0214865Y0417447D03*
X0214707Y0413510D03*
X0227778Y0413510D03*
X0228250Y0414613D03*
X0228250Y0416030D03*
X0227620Y0417447D03*
X0254035Y0416502D03*
X0254035Y0416345D03*
X0267735Y0417290D03*
X0268208Y0414928D03*
X0268208Y0414770D03*
X0268208Y0414613D03*
X0307078Y0416947D03*
X0307235Y0416790D03*
X0307708Y0414585D03*
X0307708Y0414428D03*
X0307708Y0414270D03*
X0307708Y0414113D03*
X0307235Y0413010D03*
D97*
X0304637Y0415845D03*
X0303377Y0414585D03*
X0303062Y0413955D03*
X0302905Y0413640D03*
X0302747Y0413483D03*
X0300700Y0413955D03*
X0299283Y0413010D03*
X0302747Y0416475D03*
X0265137Y0416345D03*
X0263720Y0413510D03*
X0260098Y0417290D03*
X0225337Y0414770D03*
X0225179Y0414613D03*
X0225179Y0416187D03*
X0225179Y0416345D03*
X0223290Y0415085D03*
X0223762Y0413510D03*
X0221242Y0414928D03*
X0221242Y0415085D03*
X0218723Y0413510D03*
X0217463Y0414770D03*
X0217305Y0414613D03*
X0217305Y0416187D03*
X0217305Y0416345D03*
X0185737Y0415085D03*
X0185107Y0414455D03*
X0181013Y0414298D03*
X0181485Y0416660D03*
X0177391Y0416345D03*
X0177391Y0414613D03*
X0181498Y0328502D03*
X0181025Y0326140D03*
X0185120Y0326455D03*
X0185120Y0328187D03*
X0177403Y0328345D03*
X0176773Y0327715D03*
X0217173Y0328030D03*
X0217331Y0328187D03*
X0217331Y0326613D03*
X0217331Y0326455D03*
X0219220Y0327715D03*
X0218748Y0329290D03*
X0221268Y0327872D03*
X0221268Y0327715D03*
X0223787Y0329290D03*
X0225047Y0328030D03*
X0225205Y0328187D03*
X0225205Y0326613D03*
X0225205Y0326455D03*
X0257373Y0326455D03*
X0258791Y0329290D03*
X0262413Y0325510D03*
X0272318Y0349038D03*
X0272476Y0349195D03*
X0272476Y0349353D03*
X0272476Y0350613D03*
X0272476Y0350770D03*
X0272476Y0350928D03*
X0273735Y0350770D03*
X0273893Y0350455D03*
X0273893Y0351085D03*
X0275783Y0350928D03*
X0275783Y0350770D03*
X0275783Y0350613D03*
X0277672Y0350613D03*
X0277672Y0350770D03*
X0277672Y0350928D03*
X0277672Y0351085D03*
X0277672Y0350455D03*
X0277672Y0350298D03*
X0277672Y0352345D03*
X0277672Y0352502D03*
X0277672Y0352660D03*
X0277672Y0352817D03*
X0277672Y0352975D03*
X0279720Y0351085D03*
X0279720Y0350928D03*
X0279720Y0350770D03*
X0279720Y0350613D03*
X0279720Y0350455D03*
X0281767Y0350455D03*
X0281767Y0350613D03*
X0281767Y0350770D03*
X0281767Y0350928D03*
X0281767Y0351085D03*
X0283184Y0351085D03*
X0283184Y0350928D03*
X0283184Y0350770D03*
X0283184Y0350613D03*
X0283184Y0350455D03*
X0283184Y0350298D03*
X0283184Y0350140D03*
X0283184Y0349983D03*
X0283184Y0349825D03*
X0283184Y0349668D03*
X0283184Y0349510D03*
X0285704Y0349510D03*
X0285704Y0349668D03*
X0285704Y0349825D03*
X0285704Y0349983D03*
X0285704Y0350140D03*
X0285704Y0351243D03*
X0285704Y0351400D03*
X0285704Y0351557D03*
X0285704Y0351715D03*
X0285704Y0351872D03*
X0287121Y0351872D03*
X0287121Y0351715D03*
X0287121Y0351557D03*
X0287121Y0351400D03*
X0287121Y0351243D03*
X0287121Y0351085D03*
X0287121Y0350928D03*
X0287121Y0350770D03*
X0287121Y0350613D03*
X0287121Y0350455D03*
X0287121Y0350298D03*
X0287594Y0349353D03*
X0289011Y0350455D03*
X0288853Y0350770D03*
X0289011Y0351085D03*
X0291058Y0350928D03*
X0291058Y0350770D03*
X0291058Y0350613D03*
X0292318Y0350613D03*
X0292318Y0350770D03*
X0292318Y0350928D03*
X0292318Y0351085D03*
X0294208Y0351085D03*
X0294208Y0350928D03*
X0294208Y0350770D03*
X0294208Y0350613D03*
X0294208Y0349195D03*
X0294208Y0349038D03*
X0287121Y0352030D03*
X0287121Y0352187D03*
X0287121Y0352345D03*
X0287121Y0352502D03*
X0287121Y0352660D03*
X0287121Y0352817D03*
X0287121Y0352975D03*
X0287121Y0353132D03*
X0287121Y0353290D03*
X0287121Y0353447D03*
X0270586Y0351085D03*
X0270586Y0350455D03*
X0299605Y0328660D03*
X0299763Y0328817D03*
X0299448Y0328345D03*
X0299133Y0327715D03*
X0297873Y0326455D03*
X0299763Y0325825D03*
X0301810Y0328345D03*
X0303228Y0329290D03*
D98*
X0299920Y0329447D03*
X0295196Y0329132D03*
X0295039Y0328975D03*
X0295039Y0328817D03*
X0294881Y0328660D03*
X0294881Y0328502D03*
X0294881Y0328345D03*
X0294881Y0326455D03*
X0294881Y0326298D03*
X0268554Y0326140D03*
X0254539Y0325825D03*
X0254381Y0326140D03*
X0254381Y0326298D03*
X0254381Y0326455D03*
X0254381Y0328345D03*
X0254381Y0328502D03*
X0254381Y0328660D03*
X0254539Y0328817D03*
X0254539Y0328975D03*
X0254696Y0329132D03*
X0228354Y0328187D03*
X0228354Y0328030D03*
X0228197Y0328660D03*
X0228039Y0328975D03*
X0227882Y0329132D03*
X0228354Y0326928D03*
X0228354Y0326770D03*
X0228354Y0326613D03*
X0227882Y0325510D03*
X0214653Y0325510D03*
X0214181Y0326613D03*
X0214339Y0328345D03*
X0214339Y0328502D03*
X0214339Y0328660D03*
X0214496Y0328975D03*
X0214653Y0329132D03*
X0188742Y0328030D03*
X0188742Y0327872D03*
X0188742Y0327715D03*
X0188742Y0327557D03*
X0188742Y0327400D03*
X0188742Y0327243D03*
X0188742Y0327085D03*
X0188742Y0326928D03*
X0188742Y0326770D03*
X0188584Y0326455D03*
X0188584Y0328345D03*
X0173781Y0328345D03*
X0173624Y0327872D03*
X0173624Y0327715D03*
X0173624Y0327557D03*
X0173624Y0327400D03*
X0173624Y0327243D03*
X0173624Y0327085D03*
X0173624Y0326928D03*
X0173781Y0326455D03*
X0173926Y0414455D03*
X0173768Y0414770D03*
X0173768Y0414928D03*
X0173768Y0415085D03*
X0173768Y0415243D03*
X0173768Y0415400D03*
X0173768Y0415557D03*
X0173768Y0415715D03*
X0173768Y0415872D03*
X0173768Y0416030D03*
X0173926Y0416345D03*
X0188729Y0416345D03*
X0188887Y0415872D03*
X0188887Y0415715D03*
X0188887Y0415557D03*
X0188887Y0415400D03*
X0188887Y0415243D03*
X0188887Y0415085D03*
X0188887Y0414928D03*
X0188729Y0414455D03*
X0214156Y0414613D03*
X0214156Y0414770D03*
X0214313Y0414140D03*
X0214471Y0413825D03*
X0214628Y0413668D03*
X0214156Y0415872D03*
X0214156Y0416030D03*
X0214156Y0416187D03*
X0214628Y0417290D03*
X0227857Y0417290D03*
X0228329Y0416187D03*
X0228172Y0414455D03*
X0228172Y0414298D03*
X0228172Y0414140D03*
X0228014Y0413825D03*
X0227857Y0413668D03*
X0253956Y0416660D03*
X0267972Y0416975D03*
X0268129Y0416660D03*
X0268129Y0416502D03*
X0268129Y0416345D03*
X0268129Y0414455D03*
X0268129Y0414298D03*
X0268129Y0414140D03*
X0267972Y0413983D03*
X0267972Y0413825D03*
X0267814Y0413668D03*
X0302590Y0412853D03*
X0307314Y0413168D03*
X0307472Y0413325D03*
X0307472Y0413483D03*
X0307629Y0413640D03*
X0307629Y0413798D03*
X0307629Y0413955D03*
X0307629Y0415845D03*
X0307629Y0416002D03*
D99*
X0303220Y0414743D03*
X0302747Y0416160D03*
X0302747Y0416317D03*
X0300700Y0416002D03*
X0299283Y0414113D03*
X0263562Y0414298D03*
X0263562Y0413668D03*
X0263562Y0415243D03*
X0263562Y0417132D03*
X0259153Y0415400D03*
X0259153Y0415243D03*
X0225179Y0414455D03*
X0223762Y0413668D03*
X0223290Y0414770D03*
X0221242Y0415243D03*
X0221242Y0415400D03*
X0219038Y0414613D03*
X0219038Y0414455D03*
X0218723Y0413668D03*
X0217305Y0414455D03*
X0217305Y0416502D03*
X0225179Y0416502D03*
X0185107Y0416502D03*
X0183532Y0414455D03*
X0183532Y0413668D03*
X0180855Y0414770D03*
X0181642Y0416187D03*
X0181642Y0416345D03*
X0179280Y0417447D03*
X0272476Y0352187D03*
X0274680Y0352187D03*
X0275783Y0352187D03*
X0275783Y0349353D03*
X0274680Y0349353D03*
X0283184Y0349353D03*
X0285704Y0349353D03*
X0285704Y0352030D03*
X0287121Y0353605D03*
X0283184Y0352187D03*
X0293105Y0352187D03*
X0294208Y0352187D03*
X0299291Y0327557D03*
X0299763Y0326140D03*
X0299763Y0325983D03*
X0301810Y0326298D03*
X0303228Y0328187D03*
X0263357Y0327557D03*
X0263357Y0327400D03*
X0258948Y0327557D03*
X0258948Y0328502D03*
X0258948Y0329132D03*
X0258948Y0325668D03*
X0225205Y0326298D03*
X0225205Y0328345D03*
X0223787Y0329132D03*
X0223472Y0328345D03*
X0223472Y0328187D03*
X0221268Y0327557D03*
X0221268Y0327400D03*
X0219220Y0328030D03*
X0218748Y0329132D03*
X0217331Y0328345D03*
X0217331Y0326298D03*
X0183230Y0325353D03*
X0180868Y0326455D03*
X0180868Y0326613D03*
X0181655Y0328030D03*
X0178978Y0328345D03*
X0178978Y0329132D03*
X0177403Y0326298D03*
D100*
X0179057Y0325668D03*
X0179057Y0327715D03*
X0179057Y0328502D03*
X0179057Y0328660D03*
X0179057Y0328817D03*
X0179057Y0328975D03*
X0180789Y0326770D03*
X0181734Y0327872D03*
X0183309Y0329290D03*
X0184883Y0326298D03*
X0183309Y0325510D03*
X0218827Y0328975D03*
X0218984Y0328660D03*
X0219142Y0328345D03*
X0219142Y0328187D03*
X0223551Y0328502D03*
X0223551Y0328660D03*
X0223709Y0328975D03*
X0257452Y0328502D03*
X0259027Y0328660D03*
X0259027Y0328817D03*
X0259027Y0328975D03*
X0259027Y0327400D03*
X0259027Y0325825D03*
X0260759Y0326298D03*
X0262649Y0325983D03*
X0262649Y0325825D03*
X0262806Y0326140D03*
X0263121Y0326770D03*
X0263279Y0327085D03*
X0263279Y0327243D03*
X0265011Y0327085D03*
X0285783Y0350298D03*
X0292554Y0349038D03*
X0297952Y0328502D03*
X0299684Y0326455D03*
X0299684Y0326298D03*
X0303306Y0326455D03*
X0303306Y0328345D03*
X0303306Y0329132D03*
X0299204Y0413168D03*
X0299204Y0413955D03*
X0299204Y0415845D03*
X0302826Y0415845D03*
X0302826Y0416002D03*
X0304558Y0413798D03*
X0265058Y0414298D03*
X0263483Y0414140D03*
X0263483Y0413983D03*
X0263483Y0413825D03*
X0263483Y0415400D03*
X0263483Y0416975D03*
X0261751Y0416502D03*
X0259861Y0416817D03*
X0259861Y0416975D03*
X0259704Y0416660D03*
X0259389Y0416030D03*
X0259231Y0415715D03*
X0259231Y0415557D03*
X0257499Y0415715D03*
X0223683Y0413825D03*
X0223526Y0414140D03*
X0223368Y0414455D03*
X0223368Y0414613D03*
X0218959Y0414298D03*
X0218959Y0414140D03*
X0218802Y0413825D03*
X0183453Y0413825D03*
X0183453Y0413983D03*
X0183453Y0414140D03*
X0183453Y0414298D03*
X0183453Y0415085D03*
X0181721Y0416030D03*
X0180776Y0414928D03*
X0179202Y0413510D03*
X0177627Y0416502D03*
X0179202Y0417290D03*
X0183453Y0417132D03*
D101*
X0218723Y0415243D03*
X0218723Y0415085D03*
X0219668Y0416975D03*
X0222817Y0416975D03*
X0221242Y0413983D03*
X0221242Y0413825D03*
X0257578Y0417132D03*
X0259153Y0413983D03*
X0277830Y0352187D03*
X0263357Y0328817D03*
X0264932Y0325668D03*
X0223787Y0327557D03*
X0223787Y0327715D03*
X0222842Y0325825D03*
X0219693Y0325825D03*
X0221268Y0328817D03*
X0221268Y0328975D03*
D102*
X0214417Y0328817D03*
X0214260Y0326455D03*
X0214260Y0326298D03*
X0214260Y0326140D03*
X0214417Y0325825D03*
X0214575Y0325668D03*
X0227961Y0325668D03*
X0228118Y0325825D03*
X0228276Y0326140D03*
X0228276Y0326298D03*
X0228276Y0326455D03*
X0228276Y0328345D03*
X0228276Y0328502D03*
X0228118Y0328817D03*
X0254460Y0325983D03*
X0254617Y0325668D03*
X0263121Y0329290D03*
X0268476Y0325983D03*
X0294802Y0326140D03*
X0294960Y0325983D03*
X0294960Y0325825D03*
X0295117Y0325668D03*
X0307708Y0416160D03*
X0307550Y0416317D03*
X0307550Y0416475D03*
X0307393Y0416632D03*
X0268050Y0416817D03*
X0267893Y0417132D03*
X0259389Y0413510D03*
X0254035Y0416817D03*
X0228250Y0416660D03*
X0228250Y0416502D03*
X0228250Y0416345D03*
X0228093Y0416975D03*
X0227935Y0417132D03*
X0228093Y0413983D03*
X0214392Y0413983D03*
X0214235Y0414298D03*
X0214235Y0414455D03*
X0214235Y0416345D03*
X0214235Y0416502D03*
X0214235Y0416660D03*
X0214392Y0416975D03*
X0214550Y0417132D03*
D103*
X0218644Y0414928D03*
X0221164Y0414140D03*
X0257499Y0416975D03*
X0264113Y0414928D03*
X0302668Y0416790D03*
X0303613Y0414428D03*
X0290035Y0352030D03*
X0290035Y0349510D03*
X0280743Y0349510D03*
X0280743Y0352030D03*
X0271452Y0348250D03*
X0265011Y0325825D03*
X0258397Y0327872D03*
X0223866Y0327872D03*
X0221346Y0328660D03*
X0181261Y0329290D03*
X0181261Y0325353D03*
X0181249Y0413510D03*
X0181249Y0417447D03*
X0298897Y0327872D03*
X0299842Y0325510D03*
D104*
X0299527Y0327085D03*
X0303464Y0325983D03*
X0303464Y0325825D03*
X0303464Y0328660D03*
X0303464Y0328817D03*
X0290035Y0352345D03*
X0284523Y0351243D03*
X0280743Y0352345D03*
X0278539Y0351243D03*
X0277594Y0353290D03*
X0271294Y0349353D03*
X0265011Y0327557D03*
X0265011Y0327400D03*
X0259184Y0326613D03*
X0225283Y0328502D03*
X0217409Y0328502D03*
X0181891Y0327400D03*
X0180631Y0327243D03*
X0180631Y0327085D03*
X0180619Y0415400D03*
X0181879Y0415557D03*
X0181879Y0415715D03*
X0217227Y0414298D03*
X0225101Y0414298D03*
X0257499Y0415243D03*
X0257499Y0415400D03*
X0263326Y0416187D03*
X0299046Y0416317D03*
X0299046Y0416475D03*
X0299046Y0413640D03*
X0299046Y0413483D03*
X0302983Y0415215D03*
D105*
X0302590Y0413168D03*
X0261357Y0415243D03*
X0261357Y0415400D03*
X0261357Y0415557D03*
X0260255Y0417447D03*
X0257578Y0416817D03*
X0259153Y0414140D03*
X0222817Y0416660D03*
X0222817Y0416817D03*
X0221242Y0414298D03*
X0219668Y0416660D03*
X0219668Y0416817D03*
X0181328Y0417290D03*
X0277987Y0349983D03*
X0293263Y0348250D03*
X0299920Y0329132D03*
X0264932Y0325983D03*
X0262255Y0325353D03*
X0261153Y0327243D03*
X0261153Y0327400D03*
X0261153Y0327557D03*
X0263357Y0328660D03*
X0222842Y0326140D03*
X0222842Y0325983D03*
X0221268Y0328502D03*
X0219693Y0326140D03*
X0219693Y0325983D03*
X0181183Y0325510D03*
D106*
X0181261Y0329132D03*
X0185356Y0327715D03*
X0185356Y0327557D03*
X0185356Y0327400D03*
X0185356Y0327243D03*
X0185356Y0327085D03*
X0177167Y0326928D03*
X0177167Y0326770D03*
X0219142Y0327400D03*
X0219614Y0326455D03*
X0219614Y0326298D03*
X0221346Y0328345D03*
X0223079Y0326770D03*
X0222921Y0326455D03*
X0222921Y0326298D03*
X0261074Y0326770D03*
X0261074Y0326928D03*
X0261074Y0327085D03*
X0261074Y0327715D03*
X0261074Y0327872D03*
X0263436Y0328345D03*
X0263436Y0328502D03*
X0265011Y0326140D03*
X0278066Y0349668D03*
X0278066Y0349825D03*
X0277909Y0350140D03*
X0287357Y0350140D03*
X0287357Y0349983D03*
X0301889Y0328187D03*
X0299842Y0325668D03*
X0300621Y0414113D03*
X0302668Y0416632D03*
X0261436Y0416030D03*
X0261436Y0415872D03*
X0261436Y0415715D03*
X0261436Y0415085D03*
X0261436Y0414928D03*
X0259074Y0414455D03*
X0259074Y0414298D03*
X0257499Y0416660D03*
X0223368Y0415400D03*
X0222896Y0416345D03*
X0222896Y0416502D03*
X0221164Y0414455D03*
X0219431Y0416030D03*
X0219589Y0416345D03*
X0219589Y0416502D03*
X0185343Y0416030D03*
X0185343Y0415872D03*
X0181249Y0413668D03*
X0177154Y0415085D03*
X0177154Y0415243D03*
X0177154Y0415400D03*
X0177154Y0415557D03*
X0177154Y0415715D03*
D107*
X0177312Y0416187D03*
X0177312Y0414770D03*
X0181091Y0414140D03*
X0183611Y0413510D03*
X0185186Y0416345D03*
X0183611Y0417447D03*
X0181406Y0416975D03*
X0181406Y0416817D03*
X0217384Y0416030D03*
X0218959Y0414770D03*
X0221164Y0414770D03*
X0223053Y0415872D03*
X0223211Y0415557D03*
X0223368Y0415243D03*
X0225258Y0416030D03*
X0259074Y0414770D03*
X0259074Y0414613D03*
X0261594Y0414613D03*
X0261594Y0416345D03*
X0263798Y0415085D03*
X0265216Y0416187D03*
X0299361Y0416947D03*
X0302668Y0413325D03*
X0304716Y0415687D03*
X0294129Y0351243D03*
X0294129Y0350455D03*
X0292397Y0350455D03*
X0292397Y0351243D03*
X0290979Y0351085D03*
X0290822Y0351243D03*
X0290979Y0350455D03*
X0290822Y0350298D03*
X0289090Y0350298D03*
X0289090Y0351243D03*
X0287515Y0349510D03*
X0283263Y0351243D03*
X0281688Y0351243D03*
X0281688Y0350298D03*
X0280743Y0349353D03*
X0279956Y0350298D03*
X0279798Y0351243D03*
X0277594Y0351243D03*
X0275704Y0351085D03*
X0275704Y0350455D03*
X0272397Y0350455D03*
X0272397Y0351085D03*
X0270665Y0351243D03*
X0263436Y0328187D03*
X0263436Y0328030D03*
X0260916Y0328187D03*
X0260916Y0326455D03*
X0258712Y0327715D03*
X0257294Y0326613D03*
X0225126Y0326770D03*
X0223551Y0328030D03*
X0221346Y0328030D03*
X0219457Y0326928D03*
X0219299Y0327243D03*
X0219142Y0327557D03*
X0217252Y0326770D03*
X0185198Y0326613D03*
X0185198Y0328030D03*
X0181419Y0328660D03*
X0178899Y0329290D03*
X0177324Y0326455D03*
X0178899Y0325353D03*
X0181104Y0325825D03*
X0181104Y0325983D03*
X0297794Y0326613D03*
X0299842Y0328975D03*
X0303149Y0325353D03*
D108*
X0268161Y0327872D03*
X0268161Y0328030D03*
X0268003Y0328345D03*
X0268003Y0328502D03*
X0267846Y0328817D03*
X0267688Y0329132D03*
X0254775Y0327085D03*
X0214732Y0327085D03*
X0214732Y0327243D03*
X0214732Y0327400D03*
X0214732Y0327557D03*
X0214732Y0327715D03*
X0214732Y0327872D03*
X0227778Y0414928D03*
X0227778Y0415085D03*
X0227778Y0415243D03*
X0227778Y0415400D03*
X0227778Y0415557D03*
X0227778Y0415715D03*
X0254350Y0414928D03*
X0254350Y0414770D03*
X0254507Y0414455D03*
X0254507Y0414298D03*
X0254665Y0413983D03*
X0254822Y0413668D03*
X0267735Y0415715D03*
D109*
X0268129Y0416187D03*
X0268129Y0415243D03*
X0268129Y0415085D03*
X0267657Y0413510D03*
X0267499Y0417447D03*
X0307629Y0415687D03*
X0307629Y0414743D03*
X0294881Y0327557D03*
X0294881Y0326613D03*
X0255011Y0325353D03*
X0254381Y0326613D03*
X0254381Y0327557D03*
X0254381Y0327715D03*
X0254853Y0329290D03*
X0228197Y0327557D03*
X0188427Y0328660D03*
X0188269Y0328817D03*
X0188269Y0325825D03*
X0188112Y0325668D03*
X0174253Y0325668D03*
X0174096Y0325825D03*
X0173939Y0328660D03*
X0174241Y0413983D03*
X0174083Y0414140D03*
X0174241Y0416975D03*
X0174398Y0417132D03*
X0188257Y0417132D03*
X0188414Y0416975D03*
X0188572Y0414140D03*
X0214313Y0415243D03*
D110*
X0218802Y0415400D03*
X0218802Y0415557D03*
X0219589Y0417132D03*
X0222896Y0417132D03*
X0257499Y0417290D03*
X0259231Y0413825D03*
X0264271Y0414770D03*
X0303771Y0414270D03*
X0283735Y0351400D03*
X0280743Y0351872D03*
X0280743Y0349668D03*
X0290035Y0349668D03*
X0293184Y0348408D03*
X0293657Y0349510D03*
X0271767Y0352030D03*
X0271452Y0348408D03*
X0263279Y0328975D03*
X0265011Y0325510D03*
X0258239Y0328030D03*
X0223709Y0327400D03*
X0223709Y0327243D03*
X0222921Y0325668D03*
X0219614Y0325668D03*
X0298739Y0328030D03*
D111*
X0307243Y0328345D03*
X0307243Y0328502D03*
X0307243Y0328660D03*
X0307243Y0326455D03*
X0307243Y0326298D03*
X0307243Y0326140D03*
X0295267Y0413640D03*
X0295267Y0413798D03*
X0295267Y0413955D03*
X0295267Y0415845D03*
X0295267Y0416002D03*
X0295267Y0416160D03*
X0227463Y0415872D03*
X0215047Y0326928D03*
D112*
X0221268Y0326928D03*
X0221268Y0326770D03*
X0181970Y0327243D03*
X0180553Y0327400D03*
X0181957Y0415400D03*
X0180540Y0415557D03*
X0221242Y0415872D03*
X0221242Y0416030D03*
X0280822Y0349195D03*
X0289956Y0349195D03*
X0293105Y0349353D03*
D113*
X0289956Y0350140D03*
X0289956Y0351400D03*
X0274838Y0351400D03*
X0274838Y0351243D03*
X0274838Y0350298D03*
X0274838Y0350140D03*
X0271531Y0350298D03*
X0271531Y0351400D03*
X0268554Y0325825D03*
X0268239Y0325353D03*
X0228197Y0325983D03*
X0223945Y0326928D03*
X0223000Y0325353D03*
X0219535Y0325353D03*
X0214339Y0325983D03*
X0177876Y0327872D03*
X0177876Y0328030D03*
X0184635Y0414770D03*
X0184635Y0414928D03*
X0214313Y0416817D03*
X0218565Y0415872D03*
X0219510Y0417447D03*
X0222975Y0417447D03*
X0228172Y0416817D03*
X0253956Y0416975D03*
X0254271Y0417447D03*
X0294401Y0416475D03*
X0294401Y0416317D03*
X0308109Y0325983D03*
X0308109Y0325825D03*
D114*
X0299842Y0325353D03*
X0293342Y0348723D03*
X0293342Y0348880D03*
X0293499Y0351872D03*
X0290035Y0351715D03*
X0290035Y0349825D03*
X0280743Y0349825D03*
X0280743Y0351715D03*
X0275074Y0351872D03*
X0275074Y0349668D03*
X0271767Y0349668D03*
X0271609Y0348880D03*
X0271452Y0348565D03*
X0222921Y0325510D03*
X0219614Y0325510D03*
X0219589Y0417290D03*
X0222896Y0417290D03*
X0302668Y0416947D03*
D115*
X0301015Y0417420D03*
X0301015Y0412380D03*
X0261042Y0412565D03*
X0261042Y0418235D03*
X0181328Y0418392D03*
X0181328Y0412408D03*
X0181183Y0330392D03*
X0181183Y0324408D03*
X0261468Y0324565D03*
X0261468Y0330235D03*
X0301495Y0329920D03*
X0301495Y0324880D03*
D116*
X0261468Y0325195D03*
X0261468Y0329605D03*
X0181183Y0329920D03*
X0181183Y0324880D03*
X0181328Y0412880D03*
X0181328Y0417920D03*
X0261042Y0417605D03*
X0261042Y0413195D03*
D117*
X0181328Y0413038D03*
X0181328Y0417762D03*
X0181183Y0329762D03*
X0181183Y0325038D03*
D118*
X0181183Y0325195D03*
X0181183Y0329605D03*
X0181328Y0413195D03*
X0181328Y0417605D03*
D119*
X0174871Y0417447D03*
X0187784Y0413353D03*
X0254271Y0415085D03*
X0254271Y0415243D03*
X0307314Y0415215D03*
X0295196Y0327085D03*
X0268239Y0327557D03*
X0268239Y0327715D03*
X0187639Y0325353D03*
X0174726Y0329447D03*
D120*
X0183781Y0329447D03*
X0263751Y0329447D03*
X0258759Y0413353D03*
X0178729Y0413353D03*
D121*
X0174635Y0413510D03*
X0188020Y0413510D03*
X0187863Y0417447D03*
X0254192Y0415557D03*
X0254192Y0415400D03*
X0268318Y0327400D03*
X0268318Y0327243D03*
X0187876Y0329290D03*
X0174490Y0329290D03*
X0174647Y0325353D03*
D122*
X0174411Y0325510D03*
X0187954Y0325510D03*
X0254539Y0327243D03*
X0268397Y0327085D03*
X0268397Y0326928D03*
X0295039Y0327243D03*
X0307472Y0415057D03*
X0267972Y0415557D03*
X0254113Y0415715D03*
X0254113Y0415872D03*
X0188099Y0417290D03*
X0174556Y0417290D03*
D123*
X0261042Y0418550D03*
X0261042Y0412250D03*
X0301015Y0411908D03*
X0301015Y0417892D03*
X0261468Y0330550D03*
X0261468Y0324250D03*
X0301495Y0324408D03*
X0301495Y0330392D03*
D124*
X0261468Y0330392D03*
X0261468Y0324408D03*
X0261042Y0412408D03*
X0261042Y0418392D03*
D125*
X0254428Y0414613D03*
X0254586Y0414140D03*
X0254743Y0413825D03*
X0254901Y0413510D03*
X0267609Y0329290D03*
X0267767Y0328975D03*
X0267924Y0328660D03*
X0268082Y0328187D03*
D126*
X0263200Y0329132D03*
X0271531Y0348723D03*
X0271688Y0349825D03*
X0271688Y0351715D03*
X0271688Y0351872D03*
X0274995Y0351715D03*
X0274995Y0349825D03*
X0289956Y0349983D03*
X0289956Y0351557D03*
X0293420Y0351715D03*
X0293420Y0349983D03*
X0293420Y0349825D03*
X0302283Y0328030D03*
X0302283Y0326613D03*
X0300228Y0414270D03*
X0300228Y0415687D03*
X0259310Y0413668D03*
D127*
X0267499Y0415872D03*
X0295346Y0413483D03*
X0295346Y0413325D03*
X0295503Y0413168D03*
X0295503Y0413010D03*
X0306999Y0415372D03*
X0307007Y0329290D03*
X0307007Y0329132D03*
X0307165Y0328975D03*
X0307165Y0328817D03*
X0295511Y0326928D03*
X0255011Y0326928D03*
D128*
X0255247Y0326770D03*
X0267263Y0416030D03*
D129*
X0301015Y0418050D03*
X0301015Y0411750D03*
X0301495Y0330550D03*
X0301495Y0324250D03*
D130*
X0307322Y0326613D03*
X0307322Y0326770D03*
X0307322Y0326928D03*
X0307322Y0327085D03*
X0307322Y0327243D03*
X0307322Y0327400D03*
X0307322Y0327557D03*
X0307322Y0327715D03*
X0307322Y0327872D03*
X0307322Y0328030D03*
X0307322Y0328187D03*
X0295668Y0326770D03*
X0295188Y0414113D03*
X0295188Y0414270D03*
X0295188Y0414428D03*
X0295188Y0414585D03*
X0295188Y0414743D03*
X0295188Y0414900D03*
X0295188Y0415057D03*
X0295188Y0415215D03*
X0295188Y0415372D03*
X0295188Y0415530D03*
X0295188Y0415687D03*
X0306842Y0415530D03*
D131*
X0283208Y0347660D03*
X0289901Y0339313D03*
X0272105Y0335416D03*
X0271515Y0335416D03*
X0270452Y0337660D03*
D132*
X0279448Y0339983D03*
X0283149Y0347581D03*
D133*
X0282696Y0347384D03*
X0270846Y0341439D03*
D134*
X0282558Y0347286D03*
D135*
X0282519Y0347187D03*
X0282322Y0346991D03*
X0286102Y0340180D03*
X0290196Y0339510D03*
X0278031Y0340180D03*
X0276968Y0339707D03*
D136*
X0277263Y0342719D03*
X0270846Y0341262D03*
X0282420Y0347089D03*
D137*
X0281830Y0346892D03*
D138*
X0281771Y0346794D03*
X0277322Y0342620D03*
X0270983Y0339117D03*
X0272046Y0335809D03*
X0294330Y0338920D03*
D139*
X0280432Y0339018D03*
X0277598Y0340475D03*
X0272046Y0335711D03*
X0281692Y0346695D03*
D140*
X0281102Y0346597D03*
X0287519Y0339510D03*
X0273818Y0339313D03*
D141*
X0272125Y0335514D03*
X0270944Y0342522D03*
X0278621Y0346498D03*
X0292046Y0339018D03*
X0294566Y0338624D03*
X0295039Y0338624D03*
D142*
X0280905Y0346498D03*
X0273621Y0340869D03*
X0271574Y0339884D03*
D143*
X0272007Y0339707D03*
X0277361Y0342424D03*
X0280275Y0346400D03*
D144*
X0280176Y0346302D03*
X0283287Y0339609D03*
D145*
X0275216Y0339786D03*
X0270846Y0342030D03*
X0270846Y0342227D03*
X0270452Y0338054D03*
X0277263Y0346203D03*
D146*
X0280019Y0346203D03*
X0283326Y0339510D03*
D147*
X0287263Y0341164D03*
X0279389Y0346124D03*
D148*
X0279212Y0346026D03*
D149*
X0275944Y0345928D03*
X0270905Y0342424D03*
D150*
X0279015Y0345928D03*
D151*
X0278582Y0345829D03*
D152*
X0278385Y0345731D03*
X0275472Y0344471D03*
X0286259Y0341361D03*
D153*
X0285629Y0341538D03*
X0278228Y0345632D03*
D154*
X0277657Y0345534D03*
D155*
X0277499Y0345435D03*
D156*
X0277361Y0345337D03*
D157*
X0277204Y0345239D03*
D158*
X0276928Y0345140D03*
X0288582Y0340573D03*
D159*
X0276791Y0345042D03*
D160*
X0276436Y0344943D03*
D161*
X0276141Y0344845D03*
D162*
X0276003Y0344746D03*
X0290964Y0338250D03*
D163*
X0275787Y0344648D03*
D164*
X0275609Y0344550D03*
D165*
X0275216Y0344372D03*
X0277460Y0342128D03*
D166*
X0275039Y0344274D03*
D167*
X0274881Y0344176D03*
D168*
X0274645Y0344077D03*
D169*
X0274546Y0343979D03*
X0275216Y0338152D03*
D170*
X0272342Y0339510D03*
X0274389Y0343880D03*
X0279822Y0337463D03*
X0282853Y0339983D03*
D171*
X0275019Y0337955D03*
X0274153Y0343782D03*
D172*
X0282716Y0343782D03*
D173*
X0274015Y0343683D03*
D174*
X0270905Y0340967D03*
X0279920Y0339510D03*
X0282755Y0343683D03*
D175*
X0273897Y0343585D03*
X0272046Y0339609D03*
D176*
X0278818Y0335317D03*
X0280275Y0339215D03*
X0282794Y0343585D03*
X0286298Y0339018D03*
D177*
X0273720Y0343487D03*
D178*
X0280373Y0339117D03*
X0282814Y0343487D03*
X0286200Y0338920D03*
D179*
X0287479Y0339215D03*
X0283385Y0339412D03*
X0281535Y0340475D03*
X0280747Y0340869D03*
X0274527Y0339018D03*
X0273582Y0343388D03*
X0293503Y0339215D03*
D180*
X0283680Y0339018D03*
X0282814Y0343388D03*
X0279113Y0335514D03*
X0272027Y0336105D03*
X0272027Y0336971D03*
D181*
X0274389Y0339117D03*
X0273523Y0343290D03*
X0280609Y0340967D03*
D182*
X0282913Y0343290D03*
X0285905Y0338526D03*
X0278424Y0337069D03*
X0272007Y0336676D03*
X0272007Y0336400D03*
X0272873Y0342227D03*
D183*
X0273326Y0343093D03*
D184*
X0273582Y0340967D03*
X0273661Y0340770D03*
X0278621Y0336676D03*
X0282991Y0343093D03*
D185*
X0278779Y0336400D03*
X0273228Y0343014D03*
D186*
X0276869Y0340967D03*
X0275137Y0337266D03*
X0275137Y0337069D03*
X0283090Y0343014D03*
D187*
X0271003Y0342916D03*
X0271003Y0342719D03*
X0270413Y0337758D03*
D188*
X0275137Y0337168D03*
X0278720Y0336498D03*
X0273168Y0342916D03*
D189*
X0271003Y0342817D03*
X0292853Y0338920D03*
D190*
X0278956Y0336006D03*
X0278877Y0336203D03*
X0278680Y0336597D03*
X0273129Y0342817D03*
D191*
X0271830Y0339786D03*
X0283208Y0342817D03*
D192*
X0276968Y0340869D03*
X0273070Y0342719D03*
X0275117Y0336971D03*
D193*
X0283326Y0342719D03*
D194*
X0278424Y0339786D03*
X0276574Y0339983D03*
X0270944Y0342620D03*
X0270472Y0337857D03*
X0292322Y0338526D03*
D195*
X0273031Y0342620D03*
D196*
X0280944Y0340770D03*
X0283385Y0342620D03*
X0293385Y0339313D03*
D197*
X0277361Y0342522D03*
D198*
X0275039Y0337758D03*
X0283582Y0342522D03*
D199*
X0283641Y0339117D03*
X0278483Y0336872D03*
X0277105Y0340770D03*
X0272932Y0342424D03*
X0272066Y0336597D03*
D200*
X0275019Y0337857D03*
X0283680Y0342424D03*
D201*
X0272873Y0342325D03*
X0271338Y0340081D03*
X0272007Y0336774D03*
X0272007Y0336302D03*
D202*
X0277420Y0342325D03*
X0283838Y0342325D03*
D203*
X0277401Y0342227D03*
D204*
X0284133Y0342227D03*
D205*
X0272794Y0342030D03*
X0271141Y0338920D03*
X0271338Y0338329D03*
D206*
X0277420Y0342030D03*
D207*
X0284409Y0342030D03*
D208*
X0290058Y0339412D03*
X0276633Y0339884D03*
X0270806Y0341931D03*
D209*
X0277440Y0341931D03*
D210*
X0284645Y0341931D03*
D211*
X0284704Y0340376D03*
X0285964Y0339983D03*
X0279153Y0335140D03*
X0270806Y0341833D03*
D212*
X0276279Y0341833D03*
D213*
X0284901Y0341833D03*
D214*
X0270846Y0341735D03*
D215*
X0276377Y0341735D03*
D216*
X0285039Y0341735D03*
D217*
X0270846Y0341636D03*
D218*
X0276476Y0341636D03*
D219*
X0285334Y0341636D03*
X0285924Y0341439D03*
D220*
X0270787Y0341538D03*
D221*
X0276594Y0341538D03*
D222*
X0276731Y0341439D03*
D223*
X0270846Y0341361D03*
X0270846Y0341164D03*
D224*
X0276830Y0341361D03*
D225*
X0276928Y0341262D03*
D226*
X0272539Y0339412D03*
X0286830Y0341262D03*
D227*
X0277066Y0341164D03*
D228*
X0277007Y0339609D03*
X0270905Y0341065D03*
X0294724Y0338821D03*
D229*
X0277125Y0341065D03*
D230*
X0282499Y0340278D03*
X0287578Y0341065D03*
D231*
X0287696Y0340967D03*
X0291909Y0339707D03*
D232*
X0280078Y0339412D03*
X0270944Y0340869D03*
D233*
X0288011Y0340869D03*
D234*
X0288798Y0338920D03*
X0280137Y0339313D03*
X0278759Y0335219D03*
X0271869Y0335613D03*
X0271003Y0340770D03*
D235*
X0288149Y0340770D03*
D236*
X0270944Y0340672D03*
D237*
X0271298Y0338624D03*
X0271298Y0338428D03*
X0277322Y0340672D03*
D238*
X0274153Y0339215D03*
X0281042Y0340672D03*
D239*
X0288247Y0340672D03*
D240*
X0286397Y0339117D03*
X0271042Y0340573D03*
X0270846Y0339313D03*
D241*
X0273877Y0340573D03*
D242*
X0271239Y0340180D03*
X0271239Y0338723D03*
X0272027Y0336872D03*
X0272027Y0336203D03*
X0272027Y0336006D03*
X0277460Y0340573D03*
X0279113Y0335416D03*
D243*
X0275078Y0337660D03*
X0281298Y0340573D03*
X0289960Y0338526D03*
X0292755Y0337463D03*
D244*
X0271082Y0340475D03*
D245*
X0273995Y0340475D03*
X0277893Y0339018D03*
X0278483Y0336971D03*
X0279074Y0335711D03*
X0272066Y0336498D03*
D246*
X0284802Y0340475D03*
X0293739Y0338821D03*
D247*
X0288680Y0340475D03*
D248*
X0271141Y0340376D03*
D249*
X0271298Y0338526D03*
X0274094Y0340376D03*
X0277794Y0339117D03*
X0287519Y0339707D03*
D250*
X0283720Y0338920D03*
X0277696Y0340376D03*
X0277499Y0339313D03*
X0274507Y0340180D03*
D251*
X0281731Y0340376D03*
D252*
X0288779Y0340376D03*
D253*
X0271239Y0340278D03*
X0271042Y0339018D03*
D254*
X0289035Y0340278D03*
D255*
X0282657Y0340180D03*
D256*
X0290629Y0340180D03*
D257*
X0286003Y0340081D03*
X0279783Y0339609D03*
D258*
X0290865Y0340081D03*
D259*
X0271476Y0339983D03*
D260*
X0271712Y0338054D03*
X0274822Y0339983D03*
D261*
X0278188Y0339983D03*
D262*
X0291161Y0339983D03*
D263*
X0275176Y0339884D03*
D264*
X0283031Y0339884D03*
X0291416Y0339884D03*
D265*
X0294763Y0338723D03*
X0276771Y0339786D03*
D266*
X0279605Y0339786D03*
D267*
X0283090Y0339786D03*
D268*
X0287519Y0339786D03*
D269*
X0291653Y0339786D03*
D270*
X0279743Y0339707D03*
D271*
X0283129Y0339707D03*
D272*
X0292046Y0339609D03*
D273*
X0288641Y0339117D03*
X0277263Y0339510D03*
D274*
X0293011Y0339510D03*
D275*
X0287519Y0339412D03*
D276*
X0293267Y0339412D03*
D277*
X0287519Y0339313D03*
X0283542Y0339313D03*
X0275078Y0337463D03*
D278*
X0270944Y0339215D03*
X0286102Y0338821D03*
D279*
X0293542Y0339117D03*
D280*
X0290924Y0338624D03*
X0288680Y0339018D03*
D281*
X0277263Y0338920D03*
D282*
X0277361Y0338821D03*
D283*
X0277499Y0338723D03*
D284*
X0286023Y0338723D03*
D285*
X0288897Y0338723D03*
D286*
X0277794Y0338624D03*
D287*
X0277952Y0338526D03*
D288*
X0272834Y0335613D03*
X0293149Y0338526D03*
D289*
X0278129Y0338428D03*
D290*
X0285767Y0338428D03*
D291*
X0290294Y0338428D03*
D292*
X0280117Y0338329D03*
D293*
X0291023Y0338329D03*
D294*
X0278385Y0335140D03*
X0270511Y0338250D03*
D295*
X0271771Y0338250D03*
D296*
X0280216Y0338250D03*
D297*
X0271771Y0338152D03*
D298*
X0286357Y0338152D03*
D299*
X0275117Y0338054D03*
D300*
X0286397Y0338054D03*
D301*
X0279153Y0335042D03*
X0271476Y0335514D03*
X0270413Y0337955D03*
D302*
X0286456Y0337955D03*
D303*
X0271672Y0337857D03*
X0271672Y0337660D03*
X0271672Y0337463D03*
D304*
X0286357Y0337857D03*
D305*
X0286298Y0337758D03*
D306*
X0286259Y0337660D03*
D307*
X0275078Y0337561D03*
D308*
X0286141Y0337561D03*
D309*
X0271633Y0337365D03*
D310*
X0279054Y0337365D03*
D311*
X0271869Y0337266D03*
D312*
X0278818Y0337266D03*
D313*
X0271968Y0337069D03*
D314*
X0278818Y0336302D03*
D315*
X0279015Y0335809D03*
D316*
X0279113Y0335613D03*
D317*
X0280098Y0335317D03*
M02*
