G75*
%MOIN*%
%OFA0B0*%
%FSLAX25Y25*%
%IPPOS*%
%LPD*%
%AMOC8*
5,1,8,0,0,1.08239X$1,22.5*
%
%ADD10C,0.01000*%
%ADD11C,0.02500*%
%ADD12C,0.03400*%
%ADD13C,0.20000*%
%ADD14C,0.00800*%
%ADD15C,0.02900*%
%ADD16C,0.02778*%
D10*
X0169255Y0296400D02*
X0193255Y0296400D01*
X0193255Y0310400D01*
X0193133Y0312108D01*
X0192769Y0313781D01*
X0192171Y0315385D01*
X0191350Y0316888D01*
X0190324Y0318258D01*
X0189113Y0319469D01*
X0187743Y0320495D01*
X0186240Y0321316D01*
X0184636Y0321914D01*
X0182963Y0322278D01*
X0181255Y0322400D01*
X0179547Y0322278D01*
X0177874Y0321914D01*
X0176270Y0321316D01*
X0174767Y0320495D01*
X0173397Y0319469D01*
X0172186Y0318258D01*
X0171160Y0316888D01*
X0170339Y0315385D01*
X0169741Y0313781D01*
X0169377Y0312108D01*
X0169255Y0310400D01*
X0169255Y0296400D01*
X0193255Y0296400D01*
X0193255Y0297399D02*
X0169255Y0297399D01*
X0169255Y0298397D02*
X0193255Y0298397D01*
X0193255Y0299396D02*
X0169255Y0299396D01*
X0169255Y0300394D02*
X0193255Y0300394D01*
X0193255Y0301393D02*
X0169255Y0301393D01*
X0169255Y0302391D02*
X0193255Y0302391D01*
X0193255Y0303390D02*
X0169255Y0303390D01*
X0169255Y0304388D02*
X0193255Y0304388D01*
X0193255Y0305387D02*
X0169255Y0305387D01*
X0169255Y0306385D02*
X0193255Y0306385D01*
X0193255Y0307384D02*
X0169255Y0307384D01*
X0169255Y0308382D02*
X0193255Y0308382D01*
X0193255Y0309381D02*
X0169255Y0309381D01*
X0169255Y0310379D02*
X0193255Y0310379D01*
X0193185Y0311378D02*
X0169325Y0311378D01*
X0169436Y0312376D02*
X0193075Y0312376D01*
X0192857Y0313375D02*
X0169653Y0313375D01*
X0169962Y0314373D02*
X0192548Y0314373D01*
X0192176Y0315372D02*
X0170335Y0315372D01*
X0170877Y0316370D02*
X0191633Y0316370D01*
X0190990Y0317369D02*
X0171520Y0317369D01*
X0172295Y0318367D02*
X0190215Y0318367D01*
X0189217Y0319366D02*
X0173294Y0319366D01*
X0174593Y0320364D02*
X0187917Y0320364D01*
X0186114Y0321363D02*
X0176397Y0321363D01*
X0180714Y0322361D02*
X0181796Y0322361D01*
X0209741Y0313781D02*
X0209377Y0312108D01*
X0209255Y0310400D01*
X0209255Y0296400D01*
X0233255Y0296400D01*
X0233255Y0310400D01*
X0233133Y0312108D01*
X0232769Y0313781D01*
X0232171Y0315385D01*
X0231350Y0316888D01*
X0230324Y0318258D01*
X0229113Y0319469D01*
X0227743Y0320495D01*
X0226240Y0321316D01*
X0224636Y0321914D01*
X0222963Y0322278D01*
X0221255Y0322400D01*
X0219547Y0322278D01*
X0217874Y0321914D01*
X0216270Y0321316D01*
X0214767Y0320495D01*
X0213397Y0319469D01*
X0212186Y0318258D01*
X0211160Y0316888D01*
X0210339Y0315385D01*
X0209741Y0313781D01*
X0209653Y0313375D02*
X0232857Y0313375D01*
X0233075Y0312376D02*
X0209436Y0312376D01*
X0209325Y0311378D02*
X0233185Y0311378D01*
X0233255Y0310379D02*
X0209255Y0310379D01*
X0209255Y0309381D02*
X0233255Y0309381D01*
X0233255Y0308382D02*
X0209255Y0308382D01*
X0209255Y0307384D02*
X0233255Y0307384D01*
X0233255Y0306385D02*
X0209255Y0306385D01*
X0209255Y0305387D02*
X0233255Y0305387D01*
X0233255Y0304388D02*
X0209255Y0304388D01*
X0209255Y0303390D02*
X0233255Y0303390D01*
X0233255Y0302391D02*
X0209255Y0302391D01*
X0209255Y0301393D02*
X0233255Y0301393D01*
X0233255Y0300394D02*
X0209255Y0300394D01*
X0209255Y0299396D02*
X0233255Y0299396D01*
X0233255Y0298397D02*
X0209255Y0298397D01*
X0209255Y0297399D02*
X0233255Y0297399D01*
X0233255Y0296400D02*
X0209255Y0296400D01*
X0209962Y0314373D02*
X0232548Y0314373D01*
X0232176Y0315372D02*
X0210335Y0315372D01*
X0210877Y0316370D02*
X0231633Y0316370D01*
X0230990Y0317369D02*
X0211520Y0317369D01*
X0212295Y0318367D02*
X0230215Y0318367D01*
X0229217Y0319366D02*
X0213294Y0319366D01*
X0214593Y0320364D02*
X0227917Y0320364D01*
X0226114Y0321363D02*
X0216397Y0321363D01*
X0220714Y0322361D02*
X0221796Y0322361D01*
X0237413Y0301403D02*
X0237413Y0298400D01*
X0238413Y0298400D02*
X0236412Y0298400D01*
X0238413Y0300402D02*
X0237413Y0301403D01*
X0240095Y0300902D02*
X0242097Y0298900D01*
X0241596Y0298400D01*
X0240595Y0298400D01*
X0240095Y0298900D01*
X0240095Y0300902D01*
X0240595Y0301403D01*
X0241596Y0301403D01*
X0242097Y0300902D01*
X0242097Y0298900D01*
X0243778Y0300402D02*
X0244779Y0298400D01*
X0245780Y0300402D01*
X0249255Y0300394D02*
X0273255Y0300394D01*
X0273255Y0299396D02*
X0249255Y0299396D01*
X0249255Y0298397D02*
X0273255Y0298397D01*
X0273255Y0297399D02*
X0249255Y0297399D01*
X0249255Y0296400D02*
X0273255Y0296400D01*
X0273255Y0310400D01*
X0273133Y0312108D01*
X0272769Y0313781D01*
X0272171Y0315385D01*
X0271350Y0316888D01*
X0270324Y0318258D01*
X0269113Y0319469D01*
X0267743Y0320495D01*
X0266240Y0321316D01*
X0264636Y0321914D01*
X0262963Y0322278D01*
X0261255Y0322400D01*
X0259547Y0322278D01*
X0257874Y0321914D01*
X0256270Y0321316D01*
X0254767Y0320495D01*
X0253397Y0319469D01*
X0252186Y0318258D01*
X0251160Y0316888D01*
X0250339Y0315385D01*
X0249741Y0313781D01*
X0249377Y0312108D01*
X0249255Y0310400D01*
X0249255Y0296400D01*
X0273255Y0296400D01*
X0273255Y0301393D02*
X0249255Y0301393D01*
X0249255Y0302391D02*
X0273255Y0302391D01*
X0273255Y0303390D02*
X0249255Y0303390D01*
X0249255Y0304388D02*
X0273255Y0304388D01*
X0273255Y0305387D02*
X0249255Y0305387D01*
X0249255Y0306385D02*
X0273255Y0306385D01*
X0273255Y0307384D02*
X0249255Y0307384D01*
X0249255Y0308382D02*
X0273255Y0308382D01*
X0273255Y0309381D02*
X0249255Y0309381D01*
X0249255Y0310379D02*
X0273255Y0310379D01*
X0273185Y0311378D02*
X0249325Y0311378D01*
X0249436Y0312376D02*
X0273075Y0312376D01*
X0272857Y0313375D02*
X0249653Y0313375D01*
X0249962Y0314373D02*
X0272548Y0314373D01*
X0272176Y0315372D02*
X0250335Y0315372D01*
X0250877Y0316370D02*
X0271633Y0316370D01*
X0270990Y0317369D02*
X0251520Y0317369D01*
X0252295Y0318367D02*
X0270215Y0318367D01*
X0269217Y0319366D02*
X0253294Y0319366D01*
X0254593Y0320364D02*
X0267917Y0320364D01*
X0266114Y0321363D02*
X0256397Y0321363D01*
X0260714Y0322361D02*
X0261796Y0322361D01*
X0289741Y0313781D02*
X0289377Y0312108D01*
X0289255Y0310400D01*
X0289255Y0296400D01*
X0313255Y0296400D01*
X0313255Y0310400D01*
X0313133Y0312108D01*
X0312769Y0313781D01*
X0312171Y0315385D01*
X0311350Y0316888D01*
X0310324Y0318258D01*
X0309113Y0319469D01*
X0307743Y0320495D01*
X0306240Y0321316D01*
X0304636Y0321914D01*
X0302963Y0322278D01*
X0301255Y0322400D01*
X0299547Y0322278D01*
X0297874Y0321914D01*
X0296270Y0321316D01*
X0294767Y0320495D01*
X0293397Y0319469D01*
X0292186Y0318258D01*
X0291160Y0316888D01*
X0290339Y0315385D01*
X0289741Y0313781D01*
X0289653Y0313375D02*
X0312857Y0313375D01*
X0313075Y0312376D02*
X0289436Y0312376D01*
X0289325Y0311378D02*
X0313185Y0311378D01*
X0313255Y0310379D02*
X0289255Y0310379D01*
X0289255Y0309381D02*
X0313255Y0309381D01*
X0313255Y0308382D02*
X0289255Y0308382D01*
X0289255Y0307384D02*
X0313255Y0307384D01*
X0313255Y0306385D02*
X0289255Y0306385D01*
X0289255Y0305387D02*
X0313255Y0305387D01*
X0313255Y0304388D02*
X0289255Y0304388D01*
X0289255Y0303390D02*
X0313255Y0303390D01*
X0313255Y0302391D02*
X0289255Y0302391D01*
X0289255Y0301393D02*
X0313255Y0301393D01*
X0313255Y0300394D02*
X0289255Y0300394D01*
X0289255Y0299396D02*
X0313255Y0299396D01*
X0313255Y0298397D02*
X0289255Y0298397D01*
X0289255Y0297399D02*
X0313255Y0297399D01*
X0313255Y0296400D02*
X0289255Y0296400D01*
X0289962Y0314373D02*
X0312548Y0314373D01*
X0312176Y0315372D02*
X0290335Y0315372D01*
X0290877Y0316370D02*
X0311633Y0316370D01*
X0310990Y0317369D02*
X0291520Y0317369D01*
X0292295Y0318367D02*
X0310215Y0318367D01*
X0309217Y0319366D02*
X0293294Y0319366D01*
X0294593Y0320364D02*
X0307917Y0320364D01*
X0306114Y0321363D02*
X0296397Y0321363D01*
X0300714Y0322361D02*
X0301796Y0322361D01*
X0301255Y0420400D02*
X0299547Y0420522D01*
X0297874Y0420886D01*
X0296270Y0421484D01*
X0294767Y0422305D01*
X0293397Y0423331D01*
X0292186Y0424542D01*
X0291160Y0425912D01*
X0290339Y0427415D01*
X0289741Y0429019D01*
X0289377Y0430692D01*
X0289255Y0432400D01*
X0289255Y0446400D01*
X0313255Y0446400D01*
X0313255Y0432400D01*
X0313133Y0430692D01*
X0312769Y0429019D01*
X0312171Y0427415D01*
X0311350Y0425912D01*
X0310324Y0424542D01*
X0309113Y0423331D01*
X0307743Y0422305D01*
X0306240Y0421484D01*
X0304636Y0420886D01*
X0302963Y0420522D01*
X0301255Y0420400D01*
X0296995Y0421214D02*
X0305515Y0421214D01*
X0307573Y0422212D02*
X0294937Y0422212D01*
X0293557Y0423211D02*
X0308953Y0423211D01*
X0309992Y0424209D02*
X0292518Y0424209D01*
X0291687Y0425208D02*
X0310823Y0425208D01*
X0311511Y0426206D02*
X0290999Y0426206D01*
X0290454Y0427205D02*
X0312056Y0427205D01*
X0312465Y0428203D02*
X0290045Y0428203D01*
X0289701Y0429202D02*
X0312809Y0429202D01*
X0313026Y0430201D02*
X0289484Y0430201D01*
X0289341Y0431199D02*
X0313169Y0431199D01*
X0313241Y0432198D02*
X0289270Y0432198D01*
X0289255Y0433196D02*
X0313255Y0433196D01*
X0313255Y0434195D02*
X0289255Y0434195D01*
X0289255Y0435193D02*
X0313255Y0435193D01*
X0313255Y0436192D02*
X0289255Y0436192D01*
X0289255Y0437190D02*
X0313255Y0437190D01*
X0313255Y0438189D02*
X0289255Y0438189D01*
X0289255Y0439187D02*
X0313255Y0439187D01*
X0313255Y0440186D02*
X0289255Y0440186D01*
X0289255Y0441184D02*
X0313255Y0441184D01*
X0313255Y0442183D02*
X0289255Y0442183D01*
X0289255Y0443181D02*
X0313255Y0443181D01*
X0313255Y0444180D02*
X0289255Y0444180D01*
X0289255Y0445178D02*
X0313255Y0445178D01*
X0313255Y0446177D02*
X0289255Y0446177D01*
X0273255Y0446177D02*
X0249255Y0446177D01*
X0249255Y0446400D02*
X0249255Y0432400D01*
X0249377Y0430692D01*
X0249741Y0429019D01*
X0250339Y0427415D01*
X0251160Y0425912D01*
X0252186Y0424542D01*
X0253397Y0423331D01*
X0254767Y0422305D01*
X0256270Y0421484D01*
X0257874Y0420886D01*
X0259547Y0420522D01*
X0261255Y0420400D01*
X0262963Y0420522D01*
X0264636Y0420886D01*
X0266240Y0421484D01*
X0267743Y0422305D01*
X0269113Y0423331D01*
X0270324Y0424542D01*
X0271350Y0425912D01*
X0272171Y0427415D01*
X0272769Y0429019D01*
X0273133Y0430692D01*
X0273255Y0432400D01*
X0273255Y0446400D01*
X0249255Y0446400D01*
X0249255Y0445178D02*
X0273255Y0445178D01*
X0273255Y0444180D02*
X0249255Y0444180D01*
X0249255Y0443181D02*
X0273255Y0443181D01*
X0273255Y0442183D02*
X0249255Y0442183D01*
X0249255Y0441184D02*
X0273255Y0441184D01*
X0273255Y0440186D02*
X0249255Y0440186D01*
X0249255Y0439187D02*
X0273255Y0439187D01*
X0273255Y0438189D02*
X0249255Y0438189D01*
X0249255Y0437190D02*
X0273255Y0437190D01*
X0273255Y0436192D02*
X0249255Y0436192D01*
X0249255Y0435193D02*
X0273255Y0435193D01*
X0273255Y0434195D02*
X0249255Y0434195D01*
X0249255Y0433196D02*
X0273255Y0433196D01*
X0273241Y0432198D02*
X0249270Y0432198D01*
X0249341Y0431199D02*
X0273169Y0431199D01*
X0273026Y0430201D02*
X0249484Y0430201D01*
X0249701Y0429202D02*
X0272809Y0429202D01*
X0272465Y0428203D02*
X0250045Y0428203D01*
X0250454Y0427205D02*
X0272056Y0427205D01*
X0271511Y0426206D02*
X0250999Y0426206D01*
X0251687Y0425208D02*
X0270823Y0425208D01*
X0269992Y0424209D02*
X0252518Y0424209D01*
X0253557Y0423211D02*
X0268953Y0423211D01*
X0267573Y0422212D02*
X0254937Y0422212D01*
X0256995Y0421214D02*
X0265515Y0421214D01*
X0232769Y0429019D02*
X0233133Y0430692D01*
X0233255Y0432400D01*
X0233255Y0446400D01*
X0209255Y0446400D01*
X0209255Y0432400D01*
X0209377Y0430692D01*
X0209741Y0429019D01*
X0210339Y0427415D01*
X0211160Y0425912D01*
X0212186Y0424542D01*
X0213397Y0423331D01*
X0214767Y0422305D01*
X0216270Y0421484D01*
X0217874Y0420886D01*
X0219547Y0420522D01*
X0221255Y0420400D01*
X0222963Y0420522D01*
X0224636Y0420886D01*
X0226240Y0421484D01*
X0227743Y0422305D01*
X0229113Y0423331D01*
X0230324Y0424542D01*
X0231350Y0425912D01*
X0232171Y0427415D01*
X0232769Y0429019D01*
X0232809Y0429202D02*
X0209701Y0429202D01*
X0209484Y0430201D02*
X0233026Y0430201D01*
X0233169Y0431199D02*
X0209341Y0431199D01*
X0209270Y0432198D02*
X0233241Y0432198D01*
X0233255Y0433196D02*
X0209255Y0433196D01*
X0209255Y0434195D02*
X0233255Y0434195D01*
X0233255Y0435193D02*
X0209255Y0435193D01*
X0209255Y0436192D02*
X0233255Y0436192D01*
X0233255Y0437190D02*
X0209255Y0437190D01*
X0209255Y0438189D02*
X0233255Y0438189D01*
X0233255Y0439187D02*
X0209255Y0439187D01*
X0209255Y0440186D02*
X0233255Y0440186D01*
X0233255Y0441184D02*
X0209255Y0441184D01*
X0209255Y0442183D02*
X0233255Y0442183D01*
X0233255Y0443181D02*
X0209255Y0443181D01*
X0209255Y0444180D02*
X0233255Y0444180D01*
X0233255Y0445178D02*
X0209255Y0445178D01*
X0209255Y0446177D02*
X0233255Y0446177D01*
X0232465Y0428203D02*
X0210045Y0428203D01*
X0210454Y0427205D02*
X0232056Y0427205D01*
X0231511Y0426206D02*
X0210999Y0426206D01*
X0211687Y0425208D02*
X0230823Y0425208D01*
X0229992Y0424209D02*
X0212518Y0424209D01*
X0213557Y0423211D02*
X0228953Y0423211D01*
X0227573Y0422212D02*
X0214937Y0422212D01*
X0216995Y0421214D02*
X0225515Y0421214D01*
X0192769Y0429019D02*
X0193133Y0430692D01*
X0193255Y0432400D01*
X0193255Y0446400D01*
X0169255Y0446400D01*
X0169255Y0432400D01*
X0169377Y0430692D01*
X0169741Y0429019D01*
X0170339Y0427415D01*
X0171160Y0425912D01*
X0172186Y0424542D01*
X0173397Y0423331D01*
X0174767Y0422305D01*
X0176270Y0421484D01*
X0177874Y0420886D01*
X0179547Y0420522D01*
X0181255Y0420400D01*
X0182963Y0420522D01*
X0184636Y0420886D01*
X0186240Y0421484D01*
X0187743Y0422305D01*
X0189113Y0423331D01*
X0190324Y0424542D01*
X0191350Y0425912D01*
X0192171Y0427415D01*
X0192769Y0429019D01*
X0192809Y0429202D02*
X0169701Y0429202D01*
X0169484Y0430201D02*
X0193026Y0430201D01*
X0193169Y0431199D02*
X0169341Y0431199D01*
X0169270Y0432198D02*
X0193241Y0432198D01*
X0193255Y0433196D02*
X0169255Y0433196D01*
X0169255Y0434195D02*
X0193255Y0434195D01*
X0193255Y0435193D02*
X0169255Y0435193D01*
X0169255Y0436192D02*
X0193255Y0436192D01*
X0193255Y0437190D02*
X0169255Y0437190D01*
X0169255Y0438189D02*
X0193255Y0438189D01*
X0193255Y0439187D02*
X0169255Y0439187D01*
X0169255Y0440186D02*
X0193255Y0440186D01*
X0193255Y0441184D02*
X0169255Y0441184D01*
X0169255Y0442183D02*
X0193255Y0442183D01*
X0193255Y0443181D02*
X0169255Y0443181D01*
X0169255Y0444180D02*
X0193255Y0444180D01*
X0193255Y0445178D02*
X0169255Y0445178D01*
X0169255Y0446177D02*
X0193255Y0446177D01*
X0192465Y0428203D02*
X0170045Y0428203D01*
X0170454Y0427205D02*
X0192056Y0427205D01*
X0191511Y0426206D02*
X0170999Y0426206D01*
X0171687Y0425208D02*
X0190823Y0425208D01*
X0189992Y0424209D02*
X0172518Y0424209D01*
X0173557Y0423211D02*
X0188953Y0423211D01*
X0187573Y0422212D02*
X0174937Y0422212D01*
X0176995Y0421214D02*
X0185515Y0421214D01*
D11*
X0170255Y0323900D03*
X0311255Y0416400D03*
D12*
X0213755Y0372400D03*
X0203755Y0372400D03*
X0203755Y0362400D03*
X0203755Y0352400D03*
X0213755Y0352400D03*
X0213755Y0362400D03*
D13*
X0221255Y0310400D03*
X0181255Y0310400D03*
X0261255Y0310400D03*
X0301255Y0310400D03*
X0301255Y0432400D03*
X0261255Y0432400D03*
X0221255Y0432400D03*
X0181255Y0432400D03*
D14*
X0180855Y0432147D02*
X0168255Y0432147D01*
X0168255Y0432000D02*
X0180855Y0432000D01*
X0180855Y0432800D01*
X0168255Y0432800D01*
X0168255Y0432000D01*
X0168255Y0427429D02*
X0168260Y0427412D01*
X0168260Y0427412D01*
X0168853Y0426081D01*
X0168853Y0426081D01*
X0169582Y0424819D01*
X0170438Y0423640D01*
X0171413Y0422558D01*
X0172032Y0422000D01*
X0172495Y0421583D01*
X0172496Y0421583D01*
X0173247Y0421037D01*
X0173674Y0420726D01*
X0174595Y0420195D01*
X0174936Y0419998D01*
X0176084Y0419487D01*
X0176267Y0419405D01*
X0177653Y0418955D01*
X0179078Y0418652D01*
X0180527Y0418500D01*
X0180855Y0418500D01*
X0180855Y0432000D01*
X0181655Y0432000D01*
X0181655Y0418500D01*
X0181984Y0418500D01*
X0183432Y0418652D01*
X0184858Y0418955D01*
X0186243Y0419405D01*
X0187574Y0419998D01*
X0188836Y0420726D01*
X0190015Y0421583D01*
X0191097Y0422558D01*
X0191097Y0422558D01*
X0192072Y0423640D01*
X0192072Y0423640D01*
X0192076Y0423646D01*
X0192929Y0424819D01*
X0193657Y0426081D01*
X0194250Y0427412D01*
X0194700Y0428797D01*
X0194700Y0428797D01*
X0195003Y0430223D01*
X0195155Y0431672D01*
X0195155Y0432000D01*
X0181655Y0432000D01*
X0181655Y0432800D01*
X0180855Y0432800D01*
X0180855Y0444400D01*
X0181655Y0444400D01*
X0181655Y0432800D01*
X0195155Y0432800D01*
X0195155Y0444400D01*
X0207155Y0444400D01*
X0207155Y0433183D01*
X0207098Y0433118D01*
X0207155Y0432325D01*
X0207155Y0431530D01*
X0207216Y0431469D01*
X0207233Y0431240D01*
X0207140Y0431096D01*
X0207293Y0430393D01*
X0207345Y0429675D01*
X0207474Y0429563D01*
X0207541Y0429256D01*
X0207470Y0429100D01*
X0207721Y0428426D01*
X0207874Y0427723D01*
X0208018Y0427630D01*
X0208128Y0427336D01*
X0208079Y0427172D01*
X0208424Y0426540D01*
X0208676Y0425866D01*
X0208831Y0425795D01*
X0208982Y0425519D01*
X0208958Y0425350D01*
X0209389Y0424774D01*
X0209734Y0424142D01*
X0209898Y0424094D01*
X0209993Y0423967D01*
X0204427Y0418400D01*
X0200427Y0418400D01*
X0195427Y0413400D01*
X0194255Y0412228D01*
X0194255Y0387228D01*
X0176416Y0369389D01*
X0175661Y0369389D01*
X0174562Y0368934D01*
X0173721Y0368093D01*
X0173266Y0366995D01*
X0173266Y0365805D01*
X0173721Y0364707D01*
X0174562Y0363866D01*
X0175661Y0363411D01*
X0176850Y0363411D01*
X0177948Y0363866D01*
X0178789Y0364707D01*
X0179244Y0365805D01*
X0179244Y0366561D01*
X0198255Y0385572D01*
X0198255Y0408173D01*
X0199062Y0407366D01*
X0200161Y0406911D01*
X0201350Y0406911D01*
X0202448Y0407366D01*
X0202982Y0407900D01*
X0229583Y0407900D01*
X0231095Y0409411D01*
X0231850Y0409411D01*
X0232948Y0409866D01*
X0233789Y0410707D01*
X0234244Y0411805D01*
X0234244Y0412995D01*
X0233789Y0414093D01*
X0232948Y0414934D01*
X0231850Y0415389D01*
X0230661Y0415389D01*
X0229562Y0414934D01*
X0228721Y0414093D01*
X0228266Y0412995D01*
X0228266Y0412239D01*
X0227927Y0411900D01*
X0202982Y0411900D01*
X0202448Y0412434D01*
X0201350Y0412889D01*
X0200572Y0412889D01*
X0202083Y0414400D01*
X0206083Y0414400D01*
X0207255Y0415572D01*
X0212822Y0421138D01*
X0212949Y0421043D01*
X0212998Y0420879D01*
X0213629Y0420534D01*
X0214205Y0420103D01*
X0214374Y0420127D01*
X0214650Y0419976D01*
X0214721Y0419821D01*
X0215395Y0419569D01*
X0216027Y0419224D01*
X0216191Y0419273D01*
X0216486Y0419163D01*
X0216578Y0419019D01*
X0217281Y0418866D01*
X0217955Y0418615D01*
X0218111Y0418686D01*
X0218418Y0418619D01*
X0218530Y0418490D01*
X0219248Y0418438D01*
X0219951Y0418285D01*
X0220095Y0418378D01*
X0220408Y0418355D01*
X0220537Y0418243D01*
X0221255Y0418295D01*
X0221973Y0418243D01*
X0222102Y0418355D01*
X0222415Y0418378D01*
X0222559Y0418285D01*
X0223262Y0418438D01*
X0223980Y0418490D01*
X0224092Y0418619D01*
X0224399Y0418686D01*
X0224555Y0418615D01*
X0225229Y0418866D01*
X0225932Y0419019D01*
X0226025Y0419163D01*
X0226319Y0419273D01*
X0226483Y0419224D01*
X0227115Y0419569D01*
X0227789Y0419821D01*
X0227860Y0419976D01*
X0228136Y0420127D01*
X0228305Y0420103D01*
X0228881Y0420534D01*
X0229513Y0420879D01*
X0229561Y0421043D01*
X0229812Y0421231D01*
X0229983Y0421231D01*
X0230492Y0421740D01*
X0231068Y0422171D01*
X0231093Y0422340D01*
X0231315Y0422563D01*
X0231484Y0422587D01*
X0231915Y0423163D01*
X0232424Y0423672D01*
X0232424Y0423843D01*
X0232612Y0424094D01*
X0232776Y0424142D01*
X0233121Y0424774D01*
X0233553Y0425350D01*
X0233528Y0425519D01*
X0233679Y0425795D01*
X0233834Y0425866D01*
X0234086Y0426540D01*
X0234431Y0427172D01*
X0234382Y0427336D01*
X0234492Y0427630D01*
X0234636Y0427723D01*
X0234789Y0428426D01*
X0235041Y0429100D01*
X0234970Y0429256D01*
X0235036Y0429563D01*
X0235166Y0429675D01*
X0235217Y0430393D01*
X0235370Y0431096D01*
X0235277Y0431240D01*
X0235294Y0431469D01*
X0235355Y0431530D01*
X0235355Y0432325D01*
X0235412Y0433118D01*
X0235355Y0433183D01*
X0235355Y0444400D01*
X0247155Y0444400D01*
X0247155Y0433183D01*
X0247098Y0433118D01*
X0247155Y0432325D01*
X0247155Y0431530D01*
X0247216Y0431469D01*
X0247233Y0431240D01*
X0247140Y0431096D01*
X0247293Y0430393D01*
X0247345Y0429675D01*
X0247474Y0429563D01*
X0247541Y0429256D01*
X0247470Y0429100D01*
X0247721Y0428426D01*
X0247874Y0427723D01*
X0248018Y0427630D01*
X0248128Y0427336D01*
X0248079Y0427172D01*
X0248424Y0426540D01*
X0248676Y0425866D01*
X0248831Y0425795D01*
X0248982Y0425519D01*
X0248958Y0425350D01*
X0249389Y0424774D01*
X0249734Y0424142D01*
X0249898Y0424094D01*
X0250086Y0423843D01*
X0250086Y0423672D01*
X0250595Y0423163D01*
X0251026Y0422587D01*
X0251195Y0422563D01*
X0251418Y0422340D01*
X0251442Y0422171D01*
X0252018Y0421740D01*
X0252527Y0421231D01*
X0252698Y0421231D01*
X0252949Y0421043D01*
X0252998Y0420879D01*
X0253629Y0420534D01*
X0254205Y0420103D01*
X0254374Y0420127D01*
X0254650Y0419976D01*
X0254721Y0419821D01*
X0255395Y0419569D01*
X0256027Y0419224D01*
X0256191Y0419273D01*
X0256486Y0419163D01*
X0256578Y0419019D01*
X0257281Y0418866D01*
X0257955Y0418615D01*
X0258111Y0418686D01*
X0258418Y0418619D01*
X0258530Y0418490D01*
X0259248Y0418438D01*
X0259951Y0418285D01*
X0260095Y0418378D01*
X0260408Y0418355D01*
X0260537Y0418243D01*
X0261255Y0418295D01*
X0261973Y0418243D01*
X0262102Y0418355D01*
X0262415Y0418378D01*
X0262559Y0418285D01*
X0263263Y0418438D01*
X0263980Y0418490D01*
X0264092Y0418619D01*
X0264399Y0418686D01*
X0264555Y0418615D01*
X0265229Y0418866D01*
X0265932Y0419019D01*
X0266025Y0419163D01*
X0266319Y0419273D01*
X0266483Y0419224D01*
X0267115Y0419569D01*
X0267789Y0419821D01*
X0267860Y0419976D01*
X0268136Y0420127D01*
X0268305Y0420103D01*
X0268881Y0420534D01*
X0269513Y0420879D01*
X0269561Y0421043D01*
X0269812Y0421231D01*
X0269983Y0421231D01*
X0270492Y0421740D01*
X0271068Y0422171D01*
X0271093Y0422340D01*
X0271315Y0422563D01*
X0271484Y0422587D01*
X0271915Y0423163D01*
X0272424Y0423672D01*
X0272424Y0423843D01*
X0272612Y0424094D01*
X0272776Y0424142D01*
X0273121Y0424774D01*
X0273553Y0425350D01*
X0273528Y0425519D01*
X0273679Y0425795D01*
X0273834Y0425866D01*
X0274086Y0426540D01*
X0274431Y0427172D01*
X0274382Y0427336D01*
X0274492Y0427630D01*
X0274636Y0427723D01*
X0274789Y0428426D01*
X0275041Y0429100D01*
X0274970Y0429256D01*
X0275036Y0429563D01*
X0275166Y0429675D01*
X0275217Y0430393D01*
X0275370Y0431096D01*
X0275277Y0431240D01*
X0275294Y0431469D01*
X0275355Y0431530D01*
X0275355Y0432325D01*
X0275412Y0433118D01*
X0275355Y0433183D01*
X0275355Y0444400D01*
X0287155Y0444400D01*
X0287155Y0433183D01*
X0287098Y0433118D01*
X0287155Y0432325D01*
X0287155Y0431530D01*
X0287216Y0431469D01*
X0287233Y0431240D01*
X0287140Y0431096D01*
X0287293Y0430393D01*
X0287345Y0429675D01*
X0287474Y0429563D01*
X0287541Y0429256D01*
X0287470Y0429100D01*
X0287721Y0428426D01*
X0287874Y0427723D01*
X0288018Y0427630D01*
X0288128Y0427336D01*
X0288079Y0427172D01*
X0288424Y0426540D01*
X0288676Y0425866D01*
X0288831Y0425795D01*
X0288982Y0425519D01*
X0288958Y0425350D01*
X0289389Y0424774D01*
X0289734Y0424142D01*
X0289898Y0424094D01*
X0290086Y0423843D01*
X0290086Y0423672D01*
X0290595Y0423163D01*
X0291026Y0422587D01*
X0291195Y0422563D01*
X0291418Y0422340D01*
X0291442Y0422171D01*
X0292018Y0421740D01*
X0292527Y0421231D01*
X0292698Y0421231D01*
X0292949Y0421043D01*
X0292998Y0420879D01*
X0293629Y0420534D01*
X0294205Y0420103D01*
X0294374Y0420127D01*
X0294650Y0419976D01*
X0294721Y0419821D01*
X0295395Y0419569D01*
X0296027Y0419224D01*
X0296191Y0419273D01*
X0296486Y0419163D01*
X0296578Y0419019D01*
X0297281Y0418866D01*
X0297955Y0418615D01*
X0298111Y0418686D01*
X0298418Y0418619D01*
X0298530Y0418490D01*
X0299248Y0418438D01*
X0299951Y0418285D01*
X0300095Y0418378D01*
X0300408Y0418355D01*
X0300537Y0418243D01*
X0301255Y0418295D01*
X0301973Y0418243D01*
X0302102Y0418355D01*
X0302415Y0418378D01*
X0302559Y0418285D01*
X0303263Y0418438D01*
X0303980Y0418490D01*
X0304092Y0418619D01*
X0304399Y0418686D01*
X0304555Y0418615D01*
X0305229Y0418866D01*
X0305932Y0419019D01*
X0306025Y0419163D01*
X0306319Y0419273D01*
X0306483Y0419224D01*
X0307115Y0419569D01*
X0307789Y0419821D01*
X0307860Y0419976D01*
X0308136Y0420127D01*
X0308305Y0420103D01*
X0308881Y0420534D01*
X0309513Y0420879D01*
X0309561Y0421043D01*
X0309812Y0421231D01*
X0309983Y0421231D01*
X0310492Y0421740D01*
X0311068Y0422171D01*
X0311093Y0422340D01*
X0311315Y0422563D01*
X0311484Y0422587D01*
X0311915Y0423163D01*
X0312424Y0423672D01*
X0312424Y0423843D01*
X0312612Y0424094D01*
X0312776Y0424142D01*
X0313121Y0424774D01*
X0313553Y0425350D01*
X0313528Y0425519D01*
X0313679Y0425795D01*
X0313834Y0425866D01*
X0314086Y0426540D01*
X0314255Y0426851D01*
X0314255Y0315949D01*
X0314086Y0316260D01*
X0313834Y0316934D01*
X0313679Y0317005D01*
X0313528Y0317281D01*
X0313553Y0317450D01*
X0313121Y0318026D01*
X0312776Y0318658D01*
X0312612Y0318706D01*
X0312424Y0318957D01*
X0312424Y0319128D01*
X0311915Y0319637D01*
X0311484Y0320213D01*
X0311315Y0320237D01*
X0311093Y0320460D01*
X0311068Y0320629D01*
X0310492Y0321060D01*
X0309983Y0321569D01*
X0309812Y0321569D01*
X0309561Y0321757D01*
X0309513Y0321921D01*
X0308881Y0322266D01*
X0308305Y0322697D01*
X0308136Y0322673D01*
X0307860Y0322824D01*
X0307789Y0322979D01*
X0307115Y0323231D01*
X0306483Y0323576D01*
X0306319Y0323527D01*
X0306025Y0323637D01*
X0305932Y0323781D01*
X0305229Y0323934D01*
X0304555Y0324185D01*
X0304399Y0324114D01*
X0304092Y0324181D01*
X0303980Y0324310D01*
X0303263Y0324362D01*
X0302559Y0324515D01*
X0302415Y0324422D01*
X0302102Y0324445D01*
X0301973Y0324557D01*
X0301255Y0324505D01*
X0300537Y0324557D01*
X0300408Y0324445D01*
X0300095Y0324422D01*
X0299951Y0324515D01*
X0299248Y0324362D01*
X0298530Y0324310D01*
X0298418Y0324181D01*
X0298111Y0324114D01*
X0297955Y0324185D01*
X0297281Y0323934D01*
X0296578Y0323781D01*
X0296486Y0323637D01*
X0296191Y0323527D01*
X0296027Y0323576D01*
X0295395Y0323231D01*
X0294721Y0322979D01*
X0294650Y0322824D01*
X0294374Y0322673D01*
X0294205Y0322697D01*
X0293629Y0322266D01*
X0292998Y0321921D01*
X0292949Y0321757D01*
X0292698Y0321569D01*
X0292527Y0321569D01*
X0292018Y0321060D01*
X0291442Y0320629D01*
X0291418Y0320460D01*
X0291195Y0320237D01*
X0291026Y0320213D01*
X0290595Y0319637D01*
X0290086Y0319128D01*
X0290086Y0318957D01*
X0289898Y0318706D01*
X0289734Y0318658D01*
X0289389Y0318026D01*
X0288958Y0317450D01*
X0288982Y0317281D01*
X0288831Y0317005D01*
X0288676Y0316934D01*
X0288424Y0316260D01*
X0288079Y0315628D01*
X0288128Y0315464D01*
X0288018Y0315170D01*
X0287874Y0315077D01*
X0287721Y0314374D01*
X0287470Y0313700D01*
X0287541Y0313544D01*
X0287474Y0313237D01*
X0287345Y0313125D01*
X0287293Y0312407D01*
X0287140Y0311704D01*
X0287233Y0311560D01*
X0287216Y0311331D01*
X0287155Y0311270D01*
X0287155Y0310475D01*
X0287098Y0309682D01*
X0287155Y0309617D01*
X0287155Y0298400D01*
X0275355Y0298400D01*
X0275355Y0309617D01*
X0275412Y0309682D01*
X0275355Y0310475D01*
X0275355Y0311270D01*
X0275294Y0311331D01*
X0275277Y0311560D01*
X0275370Y0311704D01*
X0275217Y0312407D01*
X0275166Y0313125D01*
X0275036Y0313237D01*
X0274970Y0313544D01*
X0275041Y0313700D01*
X0274789Y0314374D01*
X0274636Y0315077D01*
X0274492Y0315170D01*
X0274382Y0315464D01*
X0274431Y0315628D01*
X0274086Y0316260D01*
X0273834Y0316934D01*
X0273679Y0317005D01*
X0273528Y0317281D01*
X0273553Y0317450D01*
X0273121Y0318026D01*
X0272776Y0318658D01*
X0272612Y0318706D01*
X0272424Y0318957D01*
X0272424Y0319128D01*
X0271915Y0319637D01*
X0271484Y0320213D01*
X0271315Y0320237D01*
X0271093Y0320460D01*
X0271068Y0320629D01*
X0270492Y0321060D01*
X0269983Y0321569D01*
X0269812Y0321569D01*
X0269561Y0321757D01*
X0269513Y0321921D01*
X0268881Y0322266D01*
X0268305Y0322697D01*
X0268136Y0322673D01*
X0267860Y0322824D01*
X0267789Y0322979D01*
X0267115Y0323231D01*
X0266483Y0323576D01*
X0266319Y0323527D01*
X0266025Y0323637D01*
X0265932Y0323781D01*
X0265229Y0323934D01*
X0264555Y0324185D01*
X0264399Y0324114D01*
X0264092Y0324181D01*
X0263980Y0324310D01*
X0263263Y0324362D01*
X0262559Y0324515D01*
X0262415Y0324422D01*
X0262102Y0324445D01*
X0261973Y0324557D01*
X0261255Y0324505D01*
X0260537Y0324557D01*
X0260408Y0324445D01*
X0260095Y0324422D01*
X0259951Y0324515D01*
X0259248Y0324362D01*
X0258530Y0324310D01*
X0258418Y0324181D01*
X0258111Y0324114D01*
X0257955Y0324185D01*
X0257281Y0323934D01*
X0256578Y0323781D01*
X0256486Y0323637D01*
X0256191Y0323527D01*
X0256027Y0323576D01*
X0255395Y0323231D01*
X0254721Y0322979D01*
X0254650Y0322824D01*
X0254374Y0322673D01*
X0254205Y0322697D01*
X0253629Y0322266D01*
X0252998Y0321921D01*
X0252949Y0321757D01*
X0252698Y0321569D01*
X0252527Y0321569D01*
X0252018Y0321060D01*
X0251442Y0320629D01*
X0251418Y0320460D01*
X0251195Y0320237D01*
X0251026Y0320213D01*
X0250595Y0319637D01*
X0250086Y0319128D01*
X0250086Y0318957D01*
X0249898Y0318706D01*
X0249734Y0318658D01*
X0249389Y0318026D01*
X0248958Y0317450D01*
X0248982Y0317281D01*
X0248831Y0317005D01*
X0248676Y0316934D01*
X0248424Y0316260D01*
X0248079Y0315628D01*
X0248128Y0315464D01*
X0248018Y0315170D01*
X0247874Y0315077D01*
X0247721Y0314374D01*
X0247470Y0313700D01*
X0247541Y0313544D01*
X0247474Y0313237D01*
X0247345Y0313125D01*
X0247293Y0312407D01*
X0247140Y0311704D01*
X0247233Y0311560D01*
X0247216Y0311331D01*
X0247155Y0311270D01*
X0247155Y0310475D01*
X0247098Y0309682D01*
X0247155Y0309617D01*
X0247155Y0302062D01*
X0245941Y0302669D01*
X0244779Y0302282D01*
X0243617Y0302669D01*
X0243405Y0302563D01*
X0243035Y0302934D01*
X0242466Y0303503D01*
X0241587Y0303503D01*
X0240726Y0303503D01*
X0239726Y0303503D01*
X0239225Y0303002D01*
X0239004Y0302781D01*
X0238282Y0303503D01*
X0236543Y0303503D01*
X0235355Y0302315D01*
X0235355Y0309617D01*
X0235412Y0309682D01*
X0235355Y0310475D01*
X0235355Y0311270D01*
X0235294Y0311331D01*
X0235277Y0311560D01*
X0235370Y0311704D01*
X0235217Y0312407D01*
X0235166Y0313125D01*
X0235036Y0313237D01*
X0234970Y0313544D01*
X0235041Y0313700D01*
X0234789Y0314374D01*
X0234636Y0315077D01*
X0234492Y0315170D01*
X0234382Y0315464D01*
X0234431Y0315628D01*
X0234086Y0316260D01*
X0233834Y0316934D01*
X0233679Y0317005D01*
X0233528Y0317281D01*
X0233553Y0317450D01*
X0233121Y0318026D01*
X0232776Y0318658D01*
X0232612Y0318706D01*
X0232424Y0318957D01*
X0232424Y0319128D01*
X0231915Y0319637D01*
X0231484Y0320213D01*
X0231315Y0320237D01*
X0231093Y0320460D01*
X0231068Y0320629D01*
X0230492Y0321060D01*
X0229983Y0321569D01*
X0229812Y0321569D01*
X0229561Y0321757D01*
X0229513Y0321921D01*
X0228881Y0322266D01*
X0228305Y0322697D01*
X0228136Y0322673D01*
X0227860Y0322824D01*
X0227789Y0322979D01*
X0227115Y0323231D01*
X0226483Y0323576D01*
X0226319Y0323527D01*
X0226025Y0323637D01*
X0225932Y0323781D01*
X0225229Y0323934D01*
X0224555Y0324185D01*
X0224399Y0324114D01*
X0224092Y0324181D01*
X0223980Y0324310D01*
X0223262Y0324362D01*
X0222559Y0324515D01*
X0222415Y0324422D01*
X0222102Y0324445D01*
X0221973Y0324557D01*
X0221255Y0324505D01*
X0220537Y0324557D01*
X0220408Y0324445D01*
X0220095Y0324422D01*
X0219951Y0324515D01*
X0219248Y0324362D01*
X0218530Y0324310D01*
X0218418Y0324181D01*
X0218111Y0324114D01*
X0217955Y0324185D01*
X0217281Y0323934D01*
X0216578Y0323781D01*
X0216486Y0323637D01*
X0216191Y0323527D01*
X0216027Y0323576D01*
X0215395Y0323231D01*
X0214721Y0322979D01*
X0214650Y0322824D01*
X0214374Y0322673D01*
X0214205Y0322697D01*
X0213629Y0322266D01*
X0212998Y0321921D01*
X0212949Y0321757D01*
X0212698Y0321569D01*
X0212527Y0321569D01*
X0212018Y0321060D01*
X0211442Y0320629D01*
X0211418Y0320460D01*
X0211195Y0320237D01*
X0211026Y0320213D01*
X0210595Y0319637D01*
X0210086Y0319128D01*
X0210086Y0318957D01*
X0209898Y0318706D01*
X0209734Y0318658D01*
X0209389Y0318026D01*
X0208958Y0317450D01*
X0208982Y0317281D01*
X0208831Y0317005D01*
X0208676Y0316934D01*
X0208424Y0316260D01*
X0208079Y0315628D01*
X0208128Y0315464D01*
X0208018Y0315170D01*
X0207874Y0315077D01*
X0207721Y0314374D01*
X0207470Y0313700D01*
X0207541Y0313544D01*
X0207474Y0313237D01*
X0207345Y0313125D01*
X0207293Y0312407D01*
X0207140Y0311704D01*
X0207233Y0311560D01*
X0207216Y0311331D01*
X0207155Y0311270D01*
X0207155Y0310475D01*
X0207098Y0309682D01*
X0207155Y0309617D01*
X0207155Y0298400D01*
X0195155Y0298400D01*
X0195155Y0310000D01*
X0181655Y0310000D01*
X0181655Y0298400D01*
X0180855Y0298400D01*
X0180855Y0310000D01*
X0168255Y0310000D01*
X0168255Y0310800D01*
X0180855Y0310800D01*
X0180855Y0310000D01*
X0181655Y0310000D01*
X0181655Y0310800D01*
X0180855Y0310800D01*
X0180855Y0324300D01*
X0180527Y0324300D01*
X0179078Y0324148D01*
X0177653Y0323845D01*
X0176267Y0323395D01*
X0174936Y0322802D01*
X0173674Y0322074D01*
X0172496Y0321217D01*
X0171413Y0320242D01*
X0170438Y0319160D01*
X0170438Y0319160D01*
X0170431Y0319150D01*
X0169582Y0317981D01*
X0168853Y0316719D01*
X0168260Y0315388D01*
X0168255Y0315371D01*
X0168255Y0321870D01*
X0168641Y0321484D01*
X0169688Y0321050D01*
X0170822Y0321050D01*
X0171869Y0321484D01*
X0172671Y0322286D01*
X0173105Y0323333D01*
X0173105Y0324467D01*
X0172671Y0325514D01*
X0171869Y0326316D01*
X0170822Y0326750D01*
X0169688Y0326750D01*
X0168641Y0326316D01*
X0168255Y0325930D01*
X0168255Y0427429D01*
X0168255Y0427356D02*
X0168285Y0427356D01*
X0168255Y0426557D02*
X0168641Y0426557D01*
X0168255Y0425759D02*
X0169039Y0425759D01*
X0169500Y0424960D02*
X0168255Y0424960D01*
X0168255Y0424162D02*
X0170059Y0424162D01*
X0170438Y0423640D02*
X0170438Y0423640D01*
X0170687Y0423363D02*
X0168255Y0423363D01*
X0168255Y0422565D02*
X0171406Y0422565D01*
X0171413Y0422558D02*
X0171413Y0422558D01*
X0171413Y0422558D01*
X0172292Y0421766D02*
X0168255Y0421766D01*
X0168255Y0420968D02*
X0173342Y0420968D01*
X0173674Y0420726D02*
X0173674Y0420726D01*
X0174639Y0420169D02*
X0168255Y0420169D01*
X0168255Y0419371D02*
X0176374Y0419371D01*
X0176267Y0419405D02*
X0176267Y0419405D01*
X0174936Y0419998D02*
X0174936Y0419998D01*
X0179839Y0418572D02*
X0168255Y0418572D01*
X0168255Y0417774D02*
X0199800Y0417774D01*
X0199002Y0416975D02*
X0168255Y0416975D01*
X0168255Y0416177D02*
X0198203Y0416177D01*
X0197405Y0415378D02*
X0168255Y0415378D01*
X0168255Y0414580D02*
X0196606Y0414580D01*
X0195808Y0413781D02*
X0168255Y0413781D01*
X0168255Y0412983D02*
X0195009Y0412983D01*
X0194255Y0412184D02*
X0168255Y0412184D01*
X0168255Y0411386D02*
X0194255Y0411386D01*
X0194255Y0410587D02*
X0168255Y0410587D01*
X0168255Y0409789D02*
X0194255Y0409789D01*
X0194255Y0408990D02*
X0168255Y0408990D01*
X0168255Y0408192D02*
X0194255Y0408192D01*
X0194255Y0407393D02*
X0168255Y0407393D01*
X0168255Y0406595D02*
X0194255Y0406595D01*
X0194255Y0405796D02*
X0168255Y0405796D01*
X0168255Y0404998D02*
X0194255Y0404998D01*
X0194255Y0404199D02*
X0168255Y0404199D01*
X0168255Y0403401D02*
X0194255Y0403401D01*
X0194255Y0402602D02*
X0168255Y0402602D01*
X0168255Y0401803D02*
X0194255Y0401803D01*
X0194255Y0401005D02*
X0168255Y0401005D01*
X0168255Y0400206D02*
X0194255Y0400206D01*
X0194255Y0399408D02*
X0168255Y0399408D01*
X0168255Y0398609D02*
X0194255Y0398609D01*
X0194255Y0397811D02*
X0168255Y0397811D01*
X0168255Y0397012D02*
X0194255Y0397012D01*
X0194255Y0396214D02*
X0168255Y0396214D01*
X0168255Y0395415D02*
X0194255Y0395415D01*
X0194255Y0394617D02*
X0168255Y0394617D01*
X0168255Y0393818D02*
X0194255Y0393818D01*
X0194255Y0393020D02*
X0168255Y0393020D01*
X0168255Y0392221D02*
X0194255Y0392221D01*
X0194255Y0391423D02*
X0168255Y0391423D01*
X0168255Y0390624D02*
X0194255Y0390624D01*
X0194255Y0389826D02*
X0168255Y0389826D01*
X0168255Y0389027D02*
X0194255Y0389027D01*
X0194255Y0388229D02*
X0168255Y0388229D01*
X0168255Y0387430D02*
X0194255Y0387430D01*
X0193658Y0386632D02*
X0168255Y0386632D01*
X0168255Y0385833D02*
X0192860Y0385833D01*
X0192061Y0385035D02*
X0168255Y0385035D01*
X0168255Y0384236D02*
X0191263Y0384236D01*
X0190464Y0383438D02*
X0168255Y0383438D01*
X0168255Y0382639D02*
X0189666Y0382639D01*
X0188867Y0381841D02*
X0168255Y0381841D01*
X0168255Y0381042D02*
X0188069Y0381042D01*
X0187270Y0380244D02*
X0168255Y0380244D01*
X0168255Y0379445D02*
X0186472Y0379445D01*
X0185673Y0378647D02*
X0168255Y0378647D01*
X0168255Y0377848D02*
X0184875Y0377848D01*
X0184076Y0377050D02*
X0168255Y0377050D01*
X0168255Y0376251D02*
X0183278Y0376251D01*
X0182479Y0375453D02*
X0168255Y0375453D01*
X0168255Y0374654D02*
X0181681Y0374654D01*
X0180882Y0373856D02*
X0168255Y0373856D01*
X0168255Y0373057D02*
X0180084Y0373057D01*
X0179285Y0372259D02*
X0168255Y0372259D01*
X0168255Y0371460D02*
X0178487Y0371460D01*
X0177688Y0370662D02*
X0168255Y0370662D01*
X0168255Y0369863D02*
X0176890Y0369863D01*
X0174877Y0369065D02*
X0168255Y0369065D01*
X0168255Y0368266D02*
X0173894Y0368266D01*
X0173462Y0367468D02*
X0168255Y0367468D01*
X0168255Y0366669D02*
X0173266Y0366669D01*
X0173266Y0365870D02*
X0168255Y0365870D01*
X0168255Y0365072D02*
X0173570Y0365072D01*
X0174155Y0364273D02*
X0168255Y0364273D01*
X0168255Y0363475D02*
X0175506Y0363475D01*
X0177004Y0363475D02*
X0197006Y0363475D01*
X0197161Y0363411D02*
X0198350Y0363411D01*
X0199448Y0363866D01*
X0200289Y0364707D01*
X0200744Y0365805D01*
X0200744Y0366561D01*
X0203283Y0369100D01*
X0204411Y0369100D01*
X0205624Y0369602D01*
X0206553Y0370531D01*
X0207055Y0371744D01*
X0207055Y0373056D01*
X0206553Y0374269D01*
X0205624Y0375198D01*
X0204411Y0375700D01*
X0203099Y0375700D01*
X0201886Y0375198D01*
X0200957Y0374269D01*
X0200455Y0373056D01*
X0200455Y0371928D01*
X0197916Y0369389D01*
X0197161Y0369389D01*
X0196062Y0368934D01*
X0195221Y0368093D01*
X0194766Y0366995D01*
X0194766Y0365805D01*
X0195221Y0364707D01*
X0196062Y0363866D01*
X0197161Y0363411D01*
X0198504Y0363475D02*
X0200628Y0363475D01*
X0200455Y0363056D02*
X0200957Y0364269D01*
X0201886Y0365198D01*
X0203099Y0365700D01*
X0204411Y0365700D01*
X0205624Y0365198D01*
X0206553Y0364269D01*
X0207055Y0363056D01*
X0207055Y0361744D01*
X0206553Y0360531D01*
X0206253Y0360231D01*
X0208595Y0357889D01*
X0209350Y0357889D01*
X0210448Y0357434D01*
X0211289Y0356593D01*
X0211744Y0355495D01*
X0211744Y0355056D01*
X0211886Y0355198D01*
X0213099Y0355700D01*
X0214411Y0355700D01*
X0215624Y0355198D01*
X0216553Y0354269D01*
X0217055Y0353056D01*
X0217055Y0351744D01*
X0216553Y0350531D01*
X0215624Y0349602D01*
X0214411Y0349100D01*
X0213099Y0349100D01*
X0211886Y0349602D01*
X0210957Y0350531D01*
X0210455Y0351744D01*
X0210455Y0352373D01*
X0210448Y0352366D01*
X0209350Y0351911D01*
X0208161Y0351911D01*
X0207062Y0352366D01*
X0206855Y0352573D01*
X0206855Y0352500D01*
X0203855Y0352500D01*
X0203655Y0352500D01*
X0203655Y0352300D01*
X0200655Y0352300D01*
X0200655Y0352095D01*
X0200774Y0351496D01*
X0201008Y0350932D01*
X0201347Y0350424D01*
X0201779Y0349992D01*
X0202287Y0349653D01*
X0202851Y0349419D01*
X0203450Y0349300D01*
X0203655Y0349300D01*
X0203655Y0352300D01*
X0203855Y0352300D01*
X0203855Y0349300D01*
X0204060Y0349300D01*
X0204659Y0349419D01*
X0205223Y0349653D01*
X0205731Y0349992D01*
X0206163Y0350424D01*
X0206502Y0350932D01*
X0206736Y0351496D01*
X0206855Y0352095D01*
X0206855Y0352300D01*
X0203855Y0352300D01*
X0203855Y0352500D01*
X0203855Y0355500D01*
X0204060Y0355500D01*
X0204659Y0355381D01*
X0205223Y0355147D01*
X0205731Y0354808D01*
X0205766Y0354773D01*
X0205766Y0355061D01*
X0202927Y0357900D01*
X0201755Y0359072D01*
X0201755Y0359733D01*
X0200957Y0360531D01*
X0200455Y0361744D01*
X0200455Y0363056D01*
X0200455Y0362676D02*
X0168255Y0362676D01*
X0168255Y0361878D02*
X0200455Y0361878D01*
X0200730Y0361079D02*
X0168255Y0361079D01*
X0168255Y0360281D02*
X0201207Y0360281D01*
X0201755Y0359482D02*
X0168255Y0359482D01*
X0168255Y0358684D02*
X0202143Y0358684D01*
X0202941Y0357885D02*
X0168255Y0357885D01*
X0168255Y0357087D02*
X0203740Y0357087D01*
X0204538Y0356288D02*
X0168255Y0356288D01*
X0168255Y0355490D02*
X0203399Y0355490D01*
X0203450Y0355500D02*
X0202851Y0355381D01*
X0202287Y0355147D01*
X0201779Y0354808D01*
X0201347Y0354376D01*
X0201008Y0353868D01*
X0200774Y0353304D01*
X0200655Y0352705D01*
X0200655Y0352500D01*
X0203655Y0352500D01*
X0203655Y0355500D01*
X0203450Y0355500D01*
X0203655Y0355490D02*
X0203855Y0355490D01*
X0204111Y0355490D02*
X0205337Y0355490D01*
X0203855Y0354691D02*
X0203655Y0354691D01*
X0203655Y0353893D02*
X0203855Y0353893D01*
X0203855Y0353094D02*
X0203655Y0353094D01*
X0203655Y0352296D02*
X0203855Y0352296D01*
X0203855Y0351497D02*
X0203655Y0351497D01*
X0203655Y0350699D02*
X0203855Y0350699D01*
X0203855Y0349900D02*
X0203655Y0349900D01*
X0201916Y0349900D02*
X0168255Y0349900D01*
X0168255Y0349102D02*
X0213094Y0349102D01*
X0214416Y0349102D02*
X0223730Y0349102D01*
X0223721Y0349093D02*
X0223266Y0347995D01*
X0223266Y0346805D01*
X0223721Y0345707D01*
X0224562Y0344866D01*
X0225661Y0344411D01*
X0226850Y0344411D01*
X0227948Y0344866D01*
X0228789Y0345707D01*
X0229244Y0346805D01*
X0229244Y0347995D01*
X0228789Y0349093D01*
X0228255Y0349627D01*
X0228255Y0350728D01*
X0227083Y0351900D01*
X0217055Y0361928D01*
X0217055Y0363056D01*
X0216553Y0364269D01*
X0215624Y0365198D01*
X0214411Y0365700D01*
X0213099Y0365700D01*
X0211886Y0365198D01*
X0210957Y0364269D01*
X0210455Y0363056D01*
X0210455Y0361744D01*
X0210957Y0360531D01*
X0211886Y0359602D01*
X0213099Y0359100D01*
X0214227Y0359100D01*
X0223977Y0349349D01*
X0223721Y0349093D01*
X0223394Y0348303D02*
X0168255Y0348303D01*
X0168255Y0347505D02*
X0223266Y0347505D01*
X0223307Y0346706D02*
X0168255Y0346706D01*
X0168255Y0345908D02*
X0223638Y0345908D01*
X0224319Y0345109D02*
X0168255Y0345109D01*
X0168255Y0344311D02*
X0246617Y0344311D01*
X0246221Y0344707D02*
X0247062Y0343866D01*
X0248161Y0343411D01*
X0249350Y0343411D01*
X0250448Y0343866D01*
X0250982Y0344400D01*
X0269583Y0344400D01*
X0270755Y0345572D01*
X0299306Y0374122D01*
X0299562Y0373866D01*
X0300221Y0373593D01*
X0299766Y0372495D01*
X0299766Y0371305D01*
X0300221Y0370207D01*
X0301062Y0369366D01*
X0302161Y0368911D01*
X0303350Y0368911D01*
X0304448Y0369366D01*
X0305289Y0370207D01*
X0305744Y0371305D01*
X0305744Y0372061D01*
X0309083Y0375400D01*
X0310255Y0376572D01*
X0310255Y0390173D01*
X0310789Y0390707D01*
X0311244Y0391805D01*
X0311244Y0392995D01*
X0310789Y0394093D01*
X0309948Y0394934D01*
X0308850Y0395389D01*
X0307661Y0395389D01*
X0306562Y0394934D01*
X0305721Y0394093D01*
X0305266Y0392995D01*
X0305266Y0391805D01*
X0305721Y0390707D01*
X0306255Y0390173D01*
X0306255Y0378228D01*
X0304244Y0376217D01*
X0304244Y0376995D01*
X0303789Y0378093D01*
X0302948Y0378934D01*
X0301850Y0379389D01*
X0300661Y0379389D01*
X0299562Y0378934D01*
X0299028Y0378400D01*
X0297927Y0378400D01*
X0267927Y0348400D01*
X0250982Y0348400D01*
X0250448Y0348934D01*
X0249350Y0349389D01*
X0248161Y0349389D01*
X0247062Y0348934D01*
X0246221Y0348093D01*
X0245766Y0346995D01*
X0245766Y0345805D01*
X0246221Y0344707D01*
X0246054Y0345109D02*
X0228191Y0345109D01*
X0228872Y0345908D02*
X0245766Y0345908D01*
X0245766Y0346706D02*
X0229203Y0346706D01*
X0229244Y0347505D02*
X0245977Y0347505D01*
X0246431Y0348303D02*
X0229116Y0348303D01*
X0228780Y0349102D02*
X0247467Y0349102D01*
X0250043Y0349102D02*
X0268628Y0349102D01*
X0269427Y0349900D02*
X0228255Y0349900D01*
X0228255Y0350699D02*
X0270225Y0350699D01*
X0271024Y0351497D02*
X0227486Y0351497D01*
X0226688Y0352296D02*
X0271822Y0352296D01*
X0272621Y0353094D02*
X0225889Y0353094D01*
X0225091Y0353893D02*
X0273419Y0353893D01*
X0274218Y0354691D02*
X0224292Y0354691D01*
X0223494Y0355490D02*
X0275016Y0355490D01*
X0275815Y0356288D02*
X0222695Y0356288D01*
X0221897Y0357087D02*
X0276614Y0357087D01*
X0277412Y0357885D02*
X0221098Y0357885D01*
X0220300Y0358684D02*
X0278211Y0358684D01*
X0279009Y0359482D02*
X0219501Y0359482D01*
X0218703Y0360281D02*
X0279808Y0360281D01*
X0280606Y0361079D02*
X0217904Y0361079D01*
X0217106Y0361878D02*
X0281405Y0361878D01*
X0282203Y0362676D02*
X0269024Y0362676D01*
X0269425Y0362842D02*
X0268326Y0362387D01*
X0267137Y0362387D01*
X0266038Y0362842D01*
X0265504Y0363376D01*
X0219903Y0363376D01*
X0218731Y0364548D01*
X0218731Y0364595D01*
X0214227Y0369100D01*
X0213099Y0369100D01*
X0211886Y0369602D01*
X0210957Y0370531D01*
X0210455Y0371744D01*
X0210455Y0373056D01*
X0210957Y0374269D01*
X0211886Y0375198D01*
X0213099Y0375700D01*
X0214411Y0375700D01*
X0215624Y0375198D01*
X0216553Y0374269D01*
X0217055Y0373056D01*
X0217055Y0371928D01*
X0221560Y0367424D01*
X0221607Y0367376D01*
X0265504Y0367376D01*
X0266038Y0367910D01*
X0267137Y0368365D01*
X0268326Y0368365D01*
X0269425Y0367910D01*
X0270265Y0367069D01*
X0270720Y0365971D01*
X0270720Y0364782D01*
X0270265Y0363683D01*
X0269425Y0362842D01*
X0270057Y0363475D02*
X0283002Y0363475D01*
X0283800Y0364273D02*
X0270510Y0364273D01*
X0270720Y0365072D02*
X0284599Y0365072D01*
X0285397Y0365870D02*
X0270720Y0365870D01*
X0270431Y0366669D02*
X0286196Y0366669D01*
X0286994Y0367468D02*
X0269867Y0367468D01*
X0268566Y0368266D02*
X0287793Y0368266D01*
X0288591Y0369065D02*
X0219919Y0369065D01*
X0219120Y0369863D02*
X0289390Y0369863D01*
X0290188Y0370662D02*
X0218322Y0370662D01*
X0217523Y0371460D02*
X0290987Y0371460D01*
X0291785Y0372259D02*
X0217055Y0372259D01*
X0217055Y0373057D02*
X0292584Y0373057D01*
X0293382Y0373856D02*
X0291348Y0373856D01*
X0291373Y0373866D02*
X0292214Y0374707D01*
X0292669Y0375805D01*
X0292669Y0376995D01*
X0292214Y0378093D01*
X0291373Y0378934D01*
X0290275Y0379389D01*
X0289086Y0379389D01*
X0287987Y0378934D01*
X0287453Y0378400D01*
X0254683Y0378400D01*
X0253044Y0380039D01*
X0253044Y0380795D01*
X0252589Y0381893D01*
X0251748Y0382734D01*
X0250650Y0383189D01*
X0249461Y0383189D01*
X0248362Y0382734D01*
X0247521Y0381893D01*
X0247066Y0380795D01*
X0247066Y0379605D01*
X0247521Y0378507D01*
X0248362Y0377666D01*
X0249461Y0377211D01*
X0250216Y0377211D01*
X0251855Y0375572D01*
X0253027Y0374400D01*
X0287453Y0374400D01*
X0287987Y0373866D01*
X0289086Y0373411D01*
X0290275Y0373411D01*
X0291373Y0373866D01*
X0292161Y0374654D02*
X0294181Y0374654D01*
X0294979Y0375453D02*
X0292523Y0375453D01*
X0292669Y0376251D02*
X0295778Y0376251D01*
X0296576Y0377050D02*
X0292646Y0377050D01*
X0292316Y0377848D02*
X0297375Y0377848D01*
X0298755Y0376400D02*
X0268755Y0346400D01*
X0248755Y0346400D01*
X0250893Y0344311D02*
X0314255Y0344311D01*
X0314255Y0345109D02*
X0270293Y0345109D01*
X0271091Y0345908D02*
X0314255Y0345908D01*
X0314255Y0346706D02*
X0271890Y0346706D01*
X0272688Y0347505D02*
X0314255Y0347505D01*
X0314255Y0348303D02*
X0273487Y0348303D01*
X0274285Y0349102D02*
X0314255Y0349102D01*
X0314255Y0349900D02*
X0275084Y0349900D01*
X0275882Y0350699D02*
X0314255Y0350699D01*
X0314255Y0351497D02*
X0276681Y0351497D01*
X0277479Y0352296D02*
X0314255Y0352296D01*
X0314255Y0353094D02*
X0278278Y0353094D01*
X0279076Y0353893D02*
X0314255Y0353893D01*
X0314255Y0354691D02*
X0279875Y0354691D01*
X0280673Y0355490D02*
X0314255Y0355490D01*
X0314255Y0356288D02*
X0281472Y0356288D01*
X0282270Y0357087D02*
X0314255Y0357087D01*
X0314255Y0357885D02*
X0283069Y0357885D01*
X0283867Y0358684D02*
X0314255Y0358684D01*
X0314255Y0359482D02*
X0284666Y0359482D01*
X0285464Y0360281D02*
X0314255Y0360281D01*
X0314255Y0361079D02*
X0286263Y0361079D01*
X0287061Y0361878D02*
X0314255Y0361878D01*
X0314255Y0362676D02*
X0287860Y0362676D01*
X0288658Y0363475D02*
X0314255Y0363475D01*
X0314255Y0364273D02*
X0289457Y0364273D01*
X0290255Y0365072D02*
X0314255Y0365072D01*
X0314255Y0365870D02*
X0291054Y0365870D01*
X0291852Y0366669D02*
X0314255Y0366669D01*
X0314255Y0367468D02*
X0292651Y0367468D01*
X0293450Y0368266D02*
X0314255Y0368266D01*
X0314255Y0369065D02*
X0303720Y0369065D01*
X0304945Y0369863D02*
X0314255Y0369863D01*
X0314255Y0370662D02*
X0305477Y0370662D01*
X0305744Y0371460D02*
X0314255Y0371460D01*
X0314255Y0372259D02*
X0305942Y0372259D01*
X0306741Y0373057D02*
X0314255Y0373057D01*
X0314255Y0373856D02*
X0307539Y0373856D01*
X0308338Y0374654D02*
X0314255Y0374654D01*
X0314255Y0375453D02*
X0309136Y0375453D01*
X0309935Y0376251D02*
X0314255Y0376251D01*
X0314255Y0377050D02*
X0310255Y0377050D01*
X0310255Y0377848D02*
X0314255Y0377848D01*
X0314255Y0378647D02*
X0310255Y0378647D01*
X0310255Y0379445D02*
X0314255Y0379445D01*
X0314255Y0380244D02*
X0310255Y0380244D01*
X0310255Y0381042D02*
X0314255Y0381042D01*
X0314255Y0381841D02*
X0310255Y0381841D01*
X0310255Y0382639D02*
X0314255Y0382639D01*
X0314255Y0383438D02*
X0310255Y0383438D01*
X0310255Y0384236D02*
X0314255Y0384236D01*
X0314255Y0385035D02*
X0310255Y0385035D01*
X0310255Y0385833D02*
X0314255Y0385833D01*
X0314255Y0386632D02*
X0310255Y0386632D01*
X0310255Y0387430D02*
X0314255Y0387430D01*
X0314255Y0388229D02*
X0310255Y0388229D01*
X0310255Y0389027D02*
X0314255Y0389027D01*
X0314255Y0389826D02*
X0310255Y0389826D01*
X0310706Y0390624D02*
X0314255Y0390624D01*
X0314255Y0391423D02*
X0311086Y0391423D01*
X0311244Y0392221D02*
X0314255Y0392221D01*
X0314255Y0393020D02*
X0311234Y0393020D01*
X0310903Y0393818D02*
X0314255Y0393818D01*
X0314255Y0394617D02*
X0310265Y0394617D01*
X0308255Y0392400D02*
X0308255Y0377400D01*
X0302755Y0371900D01*
X0299999Y0373057D02*
X0298241Y0373057D01*
X0299039Y0373856D02*
X0299587Y0373856D01*
X0299766Y0372259D02*
X0297442Y0372259D01*
X0296644Y0371460D02*
X0299766Y0371460D01*
X0300033Y0370662D02*
X0295845Y0370662D01*
X0295047Y0369863D02*
X0300565Y0369863D01*
X0301790Y0369065D02*
X0294248Y0369065D01*
X0288012Y0373856D02*
X0216724Y0373856D01*
X0216168Y0374654D02*
X0252773Y0374654D01*
X0251974Y0375453D02*
X0215009Y0375453D01*
X0212501Y0375453D02*
X0205009Y0375453D01*
X0206168Y0374654D02*
X0211342Y0374654D01*
X0210786Y0373856D02*
X0206724Y0373856D01*
X0207055Y0373057D02*
X0210455Y0373057D01*
X0210455Y0372259D02*
X0207055Y0372259D01*
X0206938Y0371460D02*
X0210573Y0371460D01*
X0210903Y0370662D02*
X0206607Y0370662D01*
X0205885Y0369863D02*
X0211625Y0369863D01*
X0214262Y0369065D02*
X0203248Y0369065D01*
X0202450Y0368266D02*
X0215061Y0368266D01*
X0215859Y0367468D02*
X0201651Y0367468D01*
X0200852Y0366669D02*
X0216658Y0366669D01*
X0217456Y0365870D02*
X0200744Y0365870D01*
X0200440Y0365072D02*
X0201760Y0365072D01*
X0200962Y0364273D02*
X0199856Y0364273D01*
X0197755Y0366400D02*
X0203755Y0372400D01*
X0202501Y0375453D02*
X0188136Y0375453D01*
X0188935Y0376251D02*
X0251176Y0376251D01*
X0250377Y0377050D02*
X0189733Y0377050D01*
X0190532Y0377848D02*
X0248180Y0377848D01*
X0247463Y0378647D02*
X0191330Y0378647D01*
X0192129Y0379445D02*
X0247132Y0379445D01*
X0247066Y0380244D02*
X0192927Y0380244D01*
X0193726Y0381042D02*
X0247169Y0381042D01*
X0247499Y0381841D02*
X0194524Y0381841D01*
X0195323Y0382639D02*
X0248267Y0382639D01*
X0250055Y0380200D02*
X0253855Y0376400D01*
X0289680Y0376400D01*
X0287700Y0378647D02*
X0254437Y0378647D01*
X0253638Y0379445D02*
X0306255Y0379445D01*
X0306255Y0378647D02*
X0303235Y0378647D01*
X0303890Y0377848D02*
X0305875Y0377848D01*
X0305076Y0377050D02*
X0304221Y0377050D01*
X0304244Y0376251D02*
X0304278Y0376251D01*
X0301255Y0376400D02*
X0298755Y0376400D01*
X0299275Y0378647D02*
X0291661Y0378647D01*
X0305804Y0390624D02*
X0198255Y0390624D01*
X0198255Y0389826D02*
X0306255Y0389826D01*
X0306255Y0389027D02*
X0198255Y0389027D01*
X0198255Y0388229D02*
X0306255Y0388229D01*
X0306255Y0387430D02*
X0198255Y0387430D01*
X0198255Y0386632D02*
X0306255Y0386632D01*
X0306255Y0385833D02*
X0198255Y0385833D01*
X0197718Y0385035D02*
X0306255Y0385035D01*
X0306255Y0384236D02*
X0196920Y0384236D01*
X0196121Y0383438D02*
X0306255Y0383438D01*
X0306255Y0382639D02*
X0251843Y0382639D01*
X0252611Y0381841D02*
X0306255Y0381841D01*
X0306255Y0381042D02*
X0252941Y0381042D01*
X0253044Y0380244D02*
X0306255Y0380244D01*
X0305425Y0391423D02*
X0198255Y0391423D01*
X0198255Y0392221D02*
X0305266Y0392221D01*
X0305277Y0393020D02*
X0198255Y0393020D01*
X0198255Y0393818D02*
X0305607Y0393818D01*
X0306245Y0394617D02*
X0198255Y0394617D01*
X0198255Y0395415D02*
X0314255Y0395415D01*
X0314255Y0396214D02*
X0198255Y0396214D01*
X0198255Y0397012D02*
X0314255Y0397012D01*
X0314255Y0397811D02*
X0198255Y0397811D01*
X0198255Y0398609D02*
X0314255Y0398609D01*
X0314255Y0399408D02*
X0198255Y0399408D01*
X0198255Y0400206D02*
X0314255Y0400206D01*
X0314255Y0401005D02*
X0198255Y0401005D01*
X0198255Y0401803D02*
X0314255Y0401803D01*
X0314255Y0402602D02*
X0198255Y0402602D01*
X0198255Y0403401D02*
X0314255Y0403401D01*
X0314255Y0404199D02*
X0198255Y0404199D01*
X0198255Y0404998D02*
X0314255Y0404998D01*
X0314255Y0405796D02*
X0198255Y0405796D01*
X0198255Y0406595D02*
X0314255Y0406595D01*
X0314255Y0407393D02*
X0202475Y0407393D01*
X0200755Y0409900D02*
X0228755Y0409900D01*
X0231255Y0412400D01*
X0229208Y0414580D02*
X0206263Y0414580D01*
X0207062Y0415378D02*
X0230635Y0415378D01*
X0231876Y0415378D02*
X0308593Y0415378D01*
X0308405Y0415833D02*
X0308839Y0414786D01*
X0309641Y0413984D01*
X0310688Y0413550D01*
X0311822Y0413550D01*
X0312869Y0413984D01*
X0313671Y0414786D01*
X0314105Y0415833D01*
X0314105Y0416967D01*
X0313671Y0418014D01*
X0312869Y0418816D01*
X0311822Y0419250D01*
X0310688Y0419250D01*
X0309641Y0418816D01*
X0308839Y0418014D01*
X0308405Y0416967D01*
X0308405Y0415833D01*
X0308405Y0416177D02*
X0207860Y0416177D01*
X0208659Y0416975D02*
X0308409Y0416975D01*
X0308739Y0417774D02*
X0209457Y0417774D01*
X0210256Y0418572D02*
X0218458Y0418572D01*
X0215759Y0419371D02*
X0211054Y0419371D01*
X0211853Y0420169D02*
X0214116Y0420169D01*
X0212971Y0420968D02*
X0212651Y0420968D01*
X0209390Y0423363D02*
X0191823Y0423363D01*
X0192451Y0424162D02*
X0209723Y0424162D01*
X0209249Y0424960D02*
X0193010Y0424960D01*
X0192929Y0424819D02*
X0192929Y0424819D01*
X0193471Y0425759D02*
X0208851Y0425759D01*
X0208415Y0426557D02*
X0193869Y0426557D01*
X0193657Y0426081D02*
X0193657Y0426081D01*
X0194225Y0427356D02*
X0208120Y0427356D01*
X0207780Y0428154D02*
X0194491Y0428154D01*
X0194250Y0427412D02*
X0194250Y0427412D01*
X0194733Y0428953D02*
X0207525Y0428953D01*
X0207339Y0429751D02*
X0194903Y0429751D01*
X0195003Y0430223D02*
X0195003Y0430223D01*
X0195037Y0430550D02*
X0207259Y0430550D01*
X0207225Y0431348D02*
X0195121Y0431348D01*
X0195155Y0432945D02*
X0207111Y0432945D01*
X0207155Y0432147D02*
X0181655Y0432147D01*
X0181655Y0432945D02*
X0180855Y0432945D01*
X0180855Y0433744D02*
X0181655Y0433744D01*
X0181655Y0434542D02*
X0180855Y0434542D01*
X0180855Y0435341D02*
X0181655Y0435341D01*
X0181655Y0436139D02*
X0180855Y0436139D01*
X0180855Y0436938D02*
X0181655Y0436938D01*
X0181655Y0437737D02*
X0180855Y0437737D01*
X0180855Y0438535D02*
X0181655Y0438535D01*
X0181655Y0439334D02*
X0180855Y0439334D01*
X0180855Y0440132D02*
X0181655Y0440132D01*
X0181655Y0440931D02*
X0180855Y0440931D01*
X0180855Y0441729D02*
X0181655Y0441729D01*
X0181655Y0442528D02*
X0180855Y0442528D01*
X0180855Y0443326D02*
X0181655Y0443326D01*
X0181655Y0444125D02*
X0180855Y0444125D01*
X0180855Y0431348D02*
X0181655Y0431348D01*
X0181655Y0430550D02*
X0180855Y0430550D01*
X0180855Y0429751D02*
X0181655Y0429751D01*
X0181655Y0428953D02*
X0180855Y0428953D01*
X0180855Y0428154D02*
X0181655Y0428154D01*
X0181655Y0427356D02*
X0180855Y0427356D01*
X0180855Y0426557D02*
X0181655Y0426557D01*
X0181655Y0425759D02*
X0180855Y0425759D01*
X0180855Y0424960D02*
X0181655Y0424960D01*
X0181655Y0424162D02*
X0180855Y0424162D01*
X0180855Y0423363D02*
X0181655Y0423363D01*
X0181655Y0422565D02*
X0180855Y0422565D01*
X0180855Y0421766D02*
X0181655Y0421766D01*
X0181655Y0420968D02*
X0180855Y0420968D01*
X0180855Y0420169D02*
X0181655Y0420169D01*
X0181655Y0419371D02*
X0180855Y0419371D01*
X0180855Y0418572D02*
X0181655Y0418572D01*
X0182671Y0418572D02*
X0204599Y0418572D01*
X0205397Y0419371D02*
X0186137Y0419371D01*
X0187871Y0420169D02*
X0206196Y0420169D01*
X0206994Y0420968D02*
X0189168Y0420968D01*
X0190218Y0421766D02*
X0207793Y0421766D01*
X0208591Y0422565D02*
X0191104Y0422565D01*
X0201255Y0416400D02*
X0196255Y0411400D01*
X0196255Y0386400D01*
X0176255Y0366400D01*
X0178356Y0364273D02*
X0195655Y0364273D01*
X0195070Y0365072D02*
X0178940Y0365072D01*
X0179244Y0365870D02*
X0194766Y0365870D01*
X0194766Y0366669D02*
X0179352Y0366669D01*
X0180151Y0367468D02*
X0194962Y0367468D01*
X0195394Y0368266D02*
X0180950Y0368266D01*
X0181748Y0369065D02*
X0196377Y0369065D01*
X0198390Y0369863D02*
X0182547Y0369863D01*
X0183345Y0370662D02*
X0199188Y0370662D01*
X0199987Y0371460D02*
X0184144Y0371460D01*
X0184942Y0372259D02*
X0200455Y0372259D01*
X0200455Y0373057D02*
X0185741Y0373057D01*
X0186539Y0373856D02*
X0200786Y0373856D01*
X0201342Y0374654D02*
X0187338Y0374654D01*
X0203755Y0362400D02*
X0203755Y0359900D01*
X0208755Y0354900D01*
X0210795Y0357087D02*
X0216240Y0357087D01*
X0217038Y0356288D02*
X0211415Y0356288D01*
X0211744Y0355490D02*
X0212591Y0355490D01*
X0214919Y0355490D02*
X0217837Y0355490D01*
X0218635Y0354691D02*
X0216131Y0354691D01*
X0216709Y0353893D02*
X0219434Y0353893D01*
X0220232Y0353094D02*
X0217039Y0353094D01*
X0217055Y0352296D02*
X0221031Y0352296D01*
X0221829Y0351497D02*
X0216953Y0351497D01*
X0216622Y0350699D02*
X0222628Y0350699D01*
X0223426Y0349900D02*
X0215922Y0349900D01*
X0211588Y0349900D02*
X0205594Y0349900D01*
X0206347Y0350699D02*
X0210888Y0350699D01*
X0210557Y0351497D02*
X0206736Y0351497D01*
X0206855Y0352296D02*
X0207232Y0352296D01*
X0210279Y0352296D02*
X0210455Y0352296D01*
X0209358Y0357885D02*
X0215441Y0357885D01*
X0214643Y0358684D02*
X0207800Y0358684D01*
X0207001Y0359482D02*
X0212175Y0359482D01*
X0211207Y0360281D02*
X0206303Y0360281D01*
X0206780Y0361079D02*
X0210730Y0361079D01*
X0210455Y0361878D02*
X0207055Y0361878D01*
X0207055Y0362676D02*
X0210455Y0362676D01*
X0210628Y0363475D02*
X0206882Y0363475D01*
X0206548Y0364273D02*
X0210962Y0364273D01*
X0211760Y0365072D02*
X0205750Y0365072D01*
X0213755Y0362400D02*
X0226255Y0349900D01*
X0226255Y0347400D01*
X0219804Y0363475D02*
X0216882Y0363475D01*
X0217055Y0362676D02*
X0266439Y0362676D01*
X0267731Y0365376D02*
X0220731Y0365376D01*
X0220731Y0365424D01*
X0213755Y0372400D01*
X0215750Y0365072D02*
X0218255Y0365072D01*
X0219006Y0364273D02*
X0216548Y0364273D01*
X0220717Y0368266D02*
X0266897Y0368266D01*
X0265596Y0367468D02*
X0221516Y0367468D01*
X0201662Y0354691D02*
X0168255Y0354691D01*
X0168255Y0353893D02*
X0201024Y0353893D01*
X0200732Y0353094D02*
X0168255Y0353094D01*
X0168255Y0352296D02*
X0200655Y0352296D01*
X0200774Y0351497D02*
X0168255Y0351497D01*
X0168255Y0350699D02*
X0201163Y0350699D01*
X0215979Y0323549D02*
X0185767Y0323549D01*
X0186034Y0323462D02*
X0184858Y0323845D01*
X0184858Y0323845D01*
X0184588Y0323902D01*
X0183432Y0324148D01*
X0181984Y0324300D01*
X0181655Y0324300D01*
X0181655Y0310800D01*
X0195155Y0310800D01*
X0195155Y0311128D01*
X0195003Y0312577D01*
X0194700Y0314002D01*
X0194700Y0314003D01*
X0194250Y0315388D01*
X0194250Y0315388D01*
X0193657Y0316719D01*
X0193657Y0316719D01*
X0192929Y0317981D01*
X0192072Y0319160D01*
X0191097Y0320242D01*
X0191002Y0320328D01*
X0190015Y0321217D01*
X0190015Y0321217D01*
X0189900Y0321300D01*
X0188836Y0322074D01*
X0188698Y0322153D01*
X0187574Y0322802D01*
X0187406Y0322877D01*
X0186243Y0323395D01*
X0186034Y0323462D01*
X0186243Y0323395D02*
X0186243Y0323395D01*
X0187574Y0322802D02*
X0187574Y0322802D01*
X0187663Y0322751D02*
X0214517Y0322751D01*
X0213054Y0321952D02*
X0189003Y0321952D01*
X0188836Y0322074D02*
X0188836Y0322074D01*
X0190085Y0321154D02*
X0212112Y0321154D01*
X0211313Y0320355D02*
X0190972Y0320355D01*
X0191097Y0320242D02*
X0191097Y0320242D01*
X0191097Y0320242D01*
X0191714Y0319557D02*
X0210515Y0319557D01*
X0209937Y0318758D02*
X0192364Y0318758D01*
X0192072Y0319160D02*
X0192072Y0319160D01*
X0192929Y0317981D02*
X0192929Y0317981D01*
X0192941Y0317960D02*
X0209339Y0317960D01*
X0208917Y0317161D02*
X0193402Y0317161D01*
X0193816Y0316363D02*
X0208463Y0316363D01*
X0208098Y0315564D02*
X0194171Y0315564D01*
X0194452Y0314766D02*
X0207806Y0314766D01*
X0207569Y0313967D02*
X0194707Y0313967D01*
X0194877Y0313169D02*
X0207395Y0313169D01*
X0207285Y0312370D02*
X0195025Y0312370D01*
X0195003Y0312577D02*
X0195003Y0312577D01*
X0195108Y0311572D02*
X0207225Y0311572D01*
X0207155Y0310773D02*
X0181655Y0310773D01*
X0181655Y0309975D02*
X0180855Y0309975D01*
X0180855Y0310773D02*
X0168255Y0310773D01*
X0168260Y0315388D02*
X0168260Y0315388D01*
X0168255Y0315564D02*
X0168339Y0315564D01*
X0168255Y0316363D02*
X0168694Y0316363D01*
X0168853Y0316719D02*
X0168853Y0316719D01*
X0169108Y0317161D02*
X0168255Y0317161D01*
X0168255Y0317960D02*
X0169569Y0317960D01*
X0169582Y0317981D02*
X0169582Y0317981D01*
X0170146Y0318758D02*
X0168255Y0318758D01*
X0168255Y0319557D02*
X0170796Y0319557D01*
X0171413Y0320242D02*
X0171413Y0320242D01*
X0171538Y0320355D02*
X0168255Y0320355D01*
X0168255Y0321154D02*
X0169437Y0321154D01*
X0171073Y0321154D02*
X0172425Y0321154D01*
X0172338Y0321952D02*
X0173507Y0321952D01*
X0172864Y0322751D02*
X0174847Y0322751D01*
X0173105Y0323549D02*
X0176743Y0323549D01*
X0173105Y0324348D02*
X0219054Y0324348D01*
X0216250Y0323549D02*
X0216116Y0323549D01*
X0223457Y0324348D02*
X0259054Y0324348D01*
X0256250Y0323549D02*
X0256116Y0323549D01*
X0255979Y0323549D02*
X0226531Y0323549D01*
X0226394Y0323549D02*
X0226260Y0323549D01*
X0227993Y0322751D02*
X0254517Y0322751D01*
X0253054Y0321952D02*
X0229456Y0321952D01*
X0230398Y0321154D02*
X0252112Y0321154D01*
X0251313Y0320355D02*
X0231197Y0320355D01*
X0231995Y0319557D02*
X0250515Y0319557D01*
X0249937Y0318758D02*
X0232573Y0318758D01*
X0233171Y0317960D02*
X0249339Y0317960D01*
X0248917Y0317161D02*
X0233593Y0317161D01*
X0234047Y0316363D02*
X0248463Y0316363D01*
X0248098Y0315564D02*
X0234412Y0315564D01*
X0234704Y0314766D02*
X0247806Y0314766D01*
X0247569Y0313967D02*
X0234941Y0313967D01*
X0235115Y0313169D02*
X0247395Y0313169D01*
X0247285Y0312370D02*
X0235225Y0312370D01*
X0235285Y0311572D02*
X0247225Y0311572D01*
X0247155Y0310773D02*
X0235355Y0310773D01*
X0235391Y0309975D02*
X0247119Y0309975D01*
X0247155Y0309176D02*
X0235355Y0309176D01*
X0235355Y0308378D02*
X0247155Y0308378D01*
X0247155Y0307579D02*
X0235355Y0307579D01*
X0235355Y0306781D02*
X0247155Y0306781D01*
X0247155Y0305982D02*
X0235355Y0305982D01*
X0235355Y0305184D02*
X0247155Y0305184D01*
X0247155Y0304385D02*
X0235355Y0304385D01*
X0235355Y0303587D02*
X0247155Y0303587D01*
X0247155Y0302788D02*
X0243181Y0302788D01*
X0242466Y0303503D02*
X0242466Y0303503D01*
X0242466Y0303503D01*
X0240726Y0303503D02*
X0240726Y0303503D01*
X0239225Y0303002D02*
X0239225Y0303002D01*
X0239011Y0302788D02*
X0238997Y0302788D01*
X0235828Y0302788D02*
X0235355Y0302788D01*
X0207155Y0302788D02*
X0195155Y0302788D01*
X0195155Y0301990D02*
X0207155Y0301990D01*
X0207155Y0301191D02*
X0195155Y0301191D01*
X0195155Y0300393D02*
X0207155Y0300393D01*
X0207155Y0299594D02*
X0195155Y0299594D01*
X0195155Y0298796D02*
X0207155Y0298796D01*
X0207155Y0303587D02*
X0195155Y0303587D01*
X0195155Y0304385D02*
X0207155Y0304385D01*
X0207155Y0305184D02*
X0195155Y0305184D01*
X0195155Y0305982D02*
X0207155Y0305982D01*
X0207155Y0306781D02*
X0195155Y0306781D01*
X0195155Y0307579D02*
X0207155Y0307579D01*
X0207155Y0308378D02*
X0195155Y0308378D01*
X0195155Y0309176D02*
X0207155Y0309176D01*
X0207119Y0309975D02*
X0195155Y0309975D01*
X0181655Y0309176D02*
X0180855Y0309176D01*
X0180855Y0308378D02*
X0181655Y0308378D01*
X0181655Y0307579D02*
X0180855Y0307579D01*
X0180855Y0306781D02*
X0181655Y0306781D01*
X0181655Y0305982D02*
X0180855Y0305982D01*
X0180855Y0305184D02*
X0181655Y0305184D01*
X0181655Y0304385D02*
X0180855Y0304385D01*
X0180855Y0303587D02*
X0181655Y0303587D01*
X0181655Y0302788D02*
X0180855Y0302788D01*
X0180855Y0301990D02*
X0181655Y0301990D01*
X0181655Y0301191D02*
X0180855Y0301191D01*
X0180855Y0300393D02*
X0181655Y0300393D01*
X0181655Y0299594D02*
X0180855Y0299594D01*
X0180855Y0298796D02*
X0181655Y0298796D01*
X0181655Y0311572D02*
X0180855Y0311572D01*
X0180855Y0312370D02*
X0181655Y0312370D01*
X0181655Y0313169D02*
X0180855Y0313169D01*
X0180855Y0313967D02*
X0181655Y0313967D01*
X0181655Y0314766D02*
X0180855Y0314766D01*
X0180855Y0315564D02*
X0181655Y0315564D01*
X0181655Y0316363D02*
X0180855Y0316363D01*
X0180855Y0317161D02*
X0181655Y0317161D01*
X0181655Y0317960D02*
X0180855Y0317960D01*
X0180855Y0318758D02*
X0181655Y0318758D01*
X0181655Y0319557D02*
X0180855Y0319557D01*
X0180855Y0320355D02*
X0181655Y0320355D01*
X0181655Y0321154D02*
X0180855Y0321154D01*
X0180855Y0321952D02*
X0181655Y0321952D01*
X0181655Y0322751D02*
X0180855Y0322751D01*
X0180855Y0323549D02*
X0181655Y0323549D01*
X0183432Y0324148D02*
X0183432Y0324148D01*
X0172824Y0325146D02*
X0314255Y0325146D01*
X0314255Y0324348D02*
X0303457Y0324348D01*
X0306260Y0323549D02*
X0306394Y0323549D01*
X0306531Y0323549D02*
X0314255Y0323549D01*
X0314255Y0322751D02*
X0307993Y0322751D01*
X0309456Y0321952D02*
X0314255Y0321952D01*
X0314255Y0321154D02*
X0310398Y0321154D01*
X0311197Y0320355D02*
X0314255Y0320355D01*
X0314255Y0319557D02*
X0311995Y0319557D01*
X0312573Y0318758D02*
X0314255Y0318758D01*
X0314255Y0317960D02*
X0313171Y0317960D01*
X0313593Y0317161D02*
X0314255Y0317161D01*
X0314255Y0316363D02*
X0314047Y0316363D01*
X0314255Y0325945D02*
X0172241Y0325945D01*
X0170838Y0326743D02*
X0314255Y0326743D01*
X0314255Y0327542D02*
X0168255Y0327542D01*
X0168255Y0328340D02*
X0314255Y0328340D01*
X0314255Y0329139D02*
X0168255Y0329139D01*
X0168255Y0329937D02*
X0314255Y0329937D01*
X0314255Y0330736D02*
X0168255Y0330736D01*
X0168255Y0331534D02*
X0314255Y0331534D01*
X0314255Y0332333D02*
X0168255Y0332333D01*
X0168255Y0333132D02*
X0314255Y0333132D01*
X0314255Y0333930D02*
X0168255Y0333930D01*
X0168255Y0334729D02*
X0314255Y0334729D01*
X0314255Y0335527D02*
X0168255Y0335527D01*
X0168255Y0336326D02*
X0314255Y0336326D01*
X0314255Y0337124D02*
X0168255Y0337124D01*
X0168255Y0337923D02*
X0314255Y0337923D01*
X0314255Y0338721D02*
X0168255Y0338721D01*
X0168255Y0339520D02*
X0314255Y0339520D01*
X0314255Y0340318D02*
X0168255Y0340318D01*
X0168255Y0341117D02*
X0314255Y0341117D01*
X0314255Y0341915D02*
X0168255Y0341915D01*
X0168255Y0342714D02*
X0314255Y0342714D01*
X0314255Y0343512D02*
X0249594Y0343512D01*
X0247916Y0343512D02*
X0168255Y0343512D01*
X0168255Y0326743D02*
X0169672Y0326743D01*
X0168270Y0325945D02*
X0168255Y0325945D01*
X0198255Y0407393D02*
X0199035Y0407393D01*
X0200666Y0412983D02*
X0228266Y0412983D01*
X0228211Y0412184D02*
X0202698Y0412184D01*
X0201465Y0413781D02*
X0228592Y0413781D01*
X0233302Y0414580D02*
X0309045Y0414580D01*
X0308101Y0413781D02*
X0310130Y0413781D01*
X0308789Y0413093D02*
X0307948Y0413934D01*
X0306850Y0414389D01*
X0305661Y0414389D01*
X0304562Y0413934D01*
X0304028Y0413400D01*
X0298482Y0413400D01*
X0297948Y0413934D01*
X0296850Y0414389D01*
X0295661Y0414389D01*
X0294562Y0413934D01*
X0293721Y0413093D01*
X0293266Y0411995D01*
X0293266Y0410805D01*
X0293721Y0409707D01*
X0294562Y0408866D01*
X0295661Y0408411D01*
X0296850Y0408411D01*
X0297948Y0408866D01*
X0298482Y0409400D01*
X0304028Y0409400D01*
X0304562Y0408866D01*
X0305661Y0408411D01*
X0306850Y0408411D01*
X0307948Y0408866D01*
X0308789Y0409707D01*
X0309244Y0410805D01*
X0309244Y0411995D01*
X0308789Y0413093D01*
X0308835Y0412983D02*
X0314255Y0412983D01*
X0314255Y0413781D02*
X0312380Y0413781D01*
X0313465Y0414580D02*
X0314255Y0414580D01*
X0314255Y0415378D02*
X0313917Y0415378D01*
X0314105Y0416177D02*
X0314255Y0416177D01*
X0314255Y0416975D02*
X0314102Y0416975D01*
X0314255Y0417774D02*
X0313771Y0417774D01*
X0314255Y0418572D02*
X0313113Y0418572D01*
X0314255Y0419371D02*
X0306751Y0419371D01*
X0308394Y0420169D02*
X0314255Y0420169D01*
X0314255Y0420968D02*
X0309539Y0420968D01*
X0310527Y0421766D02*
X0314255Y0421766D01*
X0314255Y0422565D02*
X0311331Y0422565D01*
X0312116Y0423363D02*
X0314255Y0423363D01*
X0314255Y0424162D02*
X0312787Y0424162D01*
X0313261Y0424960D02*
X0314255Y0424960D01*
X0314255Y0425759D02*
X0313659Y0425759D01*
X0314095Y0426557D02*
X0314255Y0426557D01*
X0309397Y0418572D02*
X0304052Y0418572D01*
X0304409Y0413781D02*
X0298101Y0413781D01*
X0296255Y0411400D02*
X0306255Y0411400D01*
X0309244Y0411386D02*
X0314255Y0411386D01*
X0314255Y0412184D02*
X0309166Y0412184D01*
X0309154Y0410587D02*
X0314255Y0410587D01*
X0314255Y0409789D02*
X0308823Y0409789D01*
X0308072Y0408990D02*
X0314255Y0408990D01*
X0314255Y0408192D02*
X0229875Y0408192D01*
X0230674Y0408990D02*
X0294438Y0408990D01*
X0293687Y0409789D02*
X0232761Y0409789D01*
X0233669Y0410587D02*
X0293357Y0410587D01*
X0293266Y0411386D02*
X0234070Y0411386D01*
X0234244Y0412184D02*
X0293345Y0412184D01*
X0293675Y0412983D02*
X0234244Y0412983D01*
X0233918Y0413781D02*
X0294409Y0413781D01*
X0295759Y0419371D02*
X0266751Y0419371D01*
X0268394Y0420169D02*
X0294116Y0420169D01*
X0292971Y0420968D02*
X0269539Y0420968D01*
X0270527Y0421766D02*
X0291983Y0421766D01*
X0291180Y0422565D02*
X0271331Y0422565D01*
X0272116Y0423363D02*
X0290395Y0423363D01*
X0289723Y0424162D02*
X0272787Y0424162D01*
X0273261Y0424960D02*
X0289249Y0424960D01*
X0288851Y0425759D02*
X0273659Y0425759D01*
X0274095Y0426557D02*
X0288415Y0426557D01*
X0288120Y0427356D02*
X0274390Y0427356D01*
X0274730Y0428154D02*
X0287780Y0428154D01*
X0287525Y0428953D02*
X0274986Y0428953D01*
X0275171Y0429751D02*
X0287339Y0429751D01*
X0287259Y0430550D02*
X0275251Y0430550D01*
X0275285Y0431348D02*
X0287225Y0431348D01*
X0287155Y0432147D02*
X0275355Y0432147D01*
X0275399Y0432945D02*
X0287111Y0432945D01*
X0287155Y0433744D02*
X0275355Y0433744D01*
X0275355Y0434542D02*
X0287155Y0434542D01*
X0287155Y0435341D02*
X0275355Y0435341D01*
X0275355Y0436139D02*
X0287155Y0436139D01*
X0287155Y0436938D02*
X0275355Y0436938D01*
X0275355Y0437737D02*
X0287155Y0437737D01*
X0287155Y0438535D02*
X0275355Y0438535D01*
X0275355Y0439334D02*
X0287155Y0439334D01*
X0287155Y0440132D02*
X0275355Y0440132D01*
X0275355Y0440931D02*
X0287155Y0440931D01*
X0287155Y0441729D02*
X0275355Y0441729D01*
X0275355Y0442528D02*
X0287155Y0442528D01*
X0287155Y0443326D02*
X0275355Y0443326D01*
X0275355Y0444125D02*
X0287155Y0444125D01*
X0298458Y0418572D02*
X0264052Y0418572D01*
X0258458Y0418572D02*
X0224052Y0418572D01*
X0226751Y0419371D02*
X0255759Y0419371D01*
X0254116Y0420169D02*
X0228394Y0420169D01*
X0229539Y0420968D02*
X0252971Y0420968D01*
X0251983Y0421766D02*
X0230527Y0421766D01*
X0231331Y0422565D02*
X0251180Y0422565D01*
X0250395Y0423363D02*
X0232116Y0423363D01*
X0232787Y0424162D02*
X0249723Y0424162D01*
X0249249Y0424960D02*
X0233261Y0424960D01*
X0233659Y0425759D02*
X0248851Y0425759D01*
X0248415Y0426557D02*
X0234095Y0426557D01*
X0234390Y0427356D02*
X0248120Y0427356D01*
X0247780Y0428154D02*
X0234730Y0428154D01*
X0234986Y0428953D02*
X0247525Y0428953D01*
X0247339Y0429751D02*
X0235171Y0429751D01*
X0235251Y0430550D02*
X0247259Y0430550D01*
X0247225Y0431348D02*
X0235285Y0431348D01*
X0235355Y0432147D02*
X0247155Y0432147D01*
X0247111Y0432945D02*
X0235399Y0432945D01*
X0235355Y0433744D02*
X0247155Y0433744D01*
X0247155Y0434542D02*
X0235355Y0434542D01*
X0235355Y0435341D02*
X0247155Y0435341D01*
X0247155Y0436139D02*
X0235355Y0436139D01*
X0235355Y0436938D02*
X0247155Y0436938D01*
X0247155Y0437737D02*
X0235355Y0437737D01*
X0235355Y0438535D02*
X0247155Y0438535D01*
X0247155Y0439334D02*
X0235355Y0439334D01*
X0235355Y0440132D02*
X0247155Y0440132D01*
X0247155Y0440931D02*
X0235355Y0440931D01*
X0235355Y0441729D02*
X0247155Y0441729D01*
X0247155Y0442528D02*
X0235355Y0442528D01*
X0235355Y0443326D02*
X0247155Y0443326D01*
X0247155Y0444125D02*
X0235355Y0444125D01*
X0221255Y0432400D02*
X0205255Y0416400D01*
X0201255Y0416400D01*
X0207155Y0433744D02*
X0195155Y0433744D01*
X0195155Y0434542D02*
X0207155Y0434542D01*
X0207155Y0435341D02*
X0195155Y0435341D01*
X0195155Y0436139D02*
X0207155Y0436139D01*
X0207155Y0436938D02*
X0195155Y0436938D01*
X0195155Y0437737D02*
X0207155Y0437737D01*
X0207155Y0438535D02*
X0195155Y0438535D01*
X0195155Y0439334D02*
X0207155Y0439334D01*
X0207155Y0440132D02*
X0195155Y0440132D01*
X0195155Y0440931D02*
X0207155Y0440931D01*
X0207155Y0441729D02*
X0195155Y0441729D01*
X0195155Y0442528D02*
X0207155Y0442528D01*
X0207155Y0443326D02*
X0195155Y0443326D01*
X0195155Y0444125D02*
X0207155Y0444125D01*
X0169582Y0424819D02*
X0169582Y0424819D01*
X0263456Y0324348D02*
X0299054Y0324348D01*
X0296250Y0323549D02*
X0296116Y0323549D01*
X0295979Y0323549D02*
X0266531Y0323549D01*
X0266394Y0323549D02*
X0266260Y0323549D01*
X0267993Y0322751D02*
X0294517Y0322751D01*
X0293054Y0321952D02*
X0269456Y0321952D01*
X0270398Y0321154D02*
X0292112Y0321154D01*
X0291313Y0320355D02*
X0271197Y0320355D01*
X0271995Y0319557D02*
X0290515Y0319557D01*
X0289937Y0318758D02*
X0272573Y0318758D01*
X0273171Y0317960D02*
X0289339Y0317960D01*
X0288917Y0317161D02*
X0273593Y0317161D01*
X0274047Y0316363D02*
X0288463Y0316363D01*
X0288098Y0315564D02*
X0274412Y0315564D01*
X0274704Y0314766D02*
X0287806Y0314766D01*
X0287569Y0313967D02*
X0274941Y0313967D01*
X0275115Y0313169D02*
X0287395Y0313169D01*
X0287285Y0312370D02*
X0275225Y0312370D01*
X0275285Y0311572D02*
X0287225Y0311572D01*
X0287155Y0310773D02*
X0275355Y0310773D01*
X0275391Y0309975D02*
X0287119Y0309975D01*
X0287155Y0309176D02*
X0275355Y0309176D01*
X0275355Y0308378D02*
X0287155Y0308378D01*
X0287155Y0307579D02*
X0275355Y0307579D01*
X0275355Y0306781D02*
X0287155Y0306781D01*
X0287155Y0305982D02*
X0275355Y0305982D01*
X0275355Y0305184D02*
X0287155Y0305184D01*
X0287155Y0304385D02*
X0275355Y0304385D01*
X0275355Y0303587D02*
X0287155Y0303587D01*
X0287155Y0302788D02*
X0275355Y0302788D01*
X0275355Y0301990D02*
X0287155Y0301990D01*
X0287155Y0301191D02*
X0275355Y0301191D01*
X0275355Y0300393D02*
X0287155Y0300393D01*
X0287155Y0299594D02*
X0275355Y0299594D01*
X0275355Y0298796D02*
X0287155Y0298796D01*
X0298072Y0408990D02*
X0304438Y0408990D01*
D15*
X0230255Y0417600D03*
D16*
X0231255Y0412400D03*
X0200755Y0409900D03*
X0193255Y0409900D03*
X0183755Y0409900D03*
X0181255Y0381400D03*
X0176255Y0366400D03*
X0197755Y0366400D03*
X0196255Y0376400D03*
X0208755Y0354900D03*
X0226255Y0347400D03*
X0234255Y0334400D03*
X0248755Y0346400D03*
X0250755Y0357900D03*
X0267731Y0365376D03*
X0281255Y0366400D03*
X0289680Y0376400D03*
X0281255Y0386400D03*
X0290755Y0398400D03*
X0296255Y0411400D03*
X0306255Y0411400D03*
X0308255Y0392400D03*
X0301255Y0386400D03*
X0301255Y0376400D03*
X0302755Y0371900D03*
X0301255Y0366400D03*
X0268755Y0396400D03*
X0250055Y0380200D03*
X0243755Y0376400D03*
X0221255Y0381400D03*
X0281255Y0301400D03*
M02*
